<svg version="1.1" xmlns="http://www.w3.org/2000/svg" viewBox="0 0 1224.9298095703125 609.9309234619141" width="1224.9298095703125" height="609.9309234619141">
  <!-- svg-source:excalidraw -->
  
  <defs>
    <style>
      @font-face {
        font-family: "Virgil";
        src: url("https://unpkg.com/@excalidraw/excalidraw-next@0.11.0-120c8f3/dist/excalidraw-assets/Virgil.woff2");
      }
      @font-face {
        font-family: "Cascadia";
        src: url("https://unpkg.com/@excalidraw/excalidraw-next@0.11.0-120c8f3/dist/excalidraw-assets/Cascadia.woff2");
      }
    </style>
  </defs>
  <rect x="0" y="0" width="1224.9298095703125" height="609.9309234619141" fill="#ffffff"></rect><g stroke-linecap="round" transform="translate(344.85992431640625 135.22645568847656) rotate(0 78.5 24)"><path d="M1.08 1.07 L158.64 1.5 L155.94 48.89 L-1.01 46.02" stroke="none" stroke-width="0" fill="#82c91e"></path><path d="M0.06 -1.61 C37.88 1.24, 76.72 0.23, 156.54 1.81 M-0.33 -0.43 C55.53 -0.9, 110.19 0.14, 156.78 0.71 M156.3 0.93 C155.82 14.53, 155.1 31.53, 157.9 48.74 M157.49 -0.61 C156.49 15.21, 156.39 30.33, 157.69 47.79 M155.37 49.47 C116.44 50.81, 77.7 49.66, 1.78 46.95 M157.32 48.98 C111.26 48.84, 65.75 47.52, 0.04 48.34 M0.93 49.94 C-0.88 34.8, -1.15 19.18, 0.44 1.29 M-0.95 48.29 C0.63 36.88, 0.61 24.14, 0.69 0.58" stroke="#000000" stroke-width="1" fill="none"></path></g><g transform="translate(349.85992431640625 149.22645568847656) rotate(0 73.5 10)"><text x="73.5" y="16" font-family="Cascadia, Segoe UI Emoji" font-size="16px" fill="#000000" text-anchor="middle" style="white-space: pre;" direction="ltr">grid container</text></g><g stroke-linecap="round" transform="translate(236.63153076171875 10) rotate(0 133.5 23.5)"><path d="M0 0 C0 0, 0 0, 0 0 M0 0 C0 0, 0 0, 0 0 M0.21 6.2 C1.14 4.77, 3.96 1.91, 5.75 0.61 M-0.12 6.71 C0.74 4.85, 2.62 3.38, 4.97 0.64 M0.07 12.14 C3.83 8.92, 10.03 3.9, 10.9 -0.7 M0.49 11.26 C3.47 7.19, 8.26 3.29, 10.85 0.32 M0.84 19.95 C3.8 12.03, 11.76 6.8, 15.6 -1.12 M0.27 17.73 C5.39 12.31, 9.83 6.87, 15.86 1.32 M-1.4 24.51 C8.97 15.77, 12.38 7.48, 20.86 1.6 M-0.24 23.8 C4.49 18.93, 9.43 13.57, 20.83 -0.49 M-0.92 30.91 C8.85 17.79, 20.34 8.59, 28 -0.25 M0.78 30.18 C9.21 19.49, 20.72 7.19, 26.62 0.4 M-0.19 36.05 C6.37 29.32, 11.71 20.77, 33.43 -1.91 M0.48 37.16 C12.23 22.54, 25.18 7.94, 32.71 -0.62 M0.87 42.14 C11.81 28.12, 24.3 15.78, 36.27 -1.01 M1 43.08 C7.62 33.11, 16.99 22.5, 37.63 0.3 M1 48.7 C11.93 35.67, 21.27 20.67, 44.29 -0.41 M0.54 47.41 C12.15 33.05, 24.31 20.39, 41.78 -0.25 M6.24 47.32 C20.55 30.23, 33.7 14.4, 49.47 1.14 M6.81 48.63 C15.67 37.61, 24.68 26.46, 47.88 -0.5 M12.27 48.95 C20.68 36.09, 34.82 24.17, 53.93 -1.81 M10.24 48.7 C25.61 32.84, 39.47 15.73, 53.79 0.81 M16.87 49.57 C27.05 33.78, 40.02 20.02, 57.51 -0.13 M17.4 47.79 C31.09 31.3, 44.91 15.01, 58.93 0.89 M22.19 49.01 C35.89 29.37, 53.39 11.89, 63.72 -0.88 M22.02 48.25 C31.97 37.59, 41.42 25.24, 63.09 -0.81 M28.03 48.9 C43.01 30.53, 53.73 17.36, 67.22 1.97 M27.26 47.69 C39.12 35.47, 48.14 23.71, 68.88 -0.18 M31.39 49.94 C42.53 37.91, 51.57 23.83, 75.89 0.75 M32.08 47.4 C44.92 34.43, 57.12 20.16, 74.56 -0.07 M36.45 49.15 C50.6 33.15, 64.03 18.16, 78.26 -0.64 M38.06 48.66 C49.46 34.69, 60.79 22.05, 78.43 0.06 M42.06 49.14 C58.71 27.75, 76.84 10.45, 85.56 -1.47 M43.84 47.18 C54.59 35.05, 68.47 19.37, 85.67 0.53 M47.76 47.31 C62.25 31.84, 76.99 15.5, 91.19 1.08 M47.98 47.43 C63.38 30.73, 76.11 15.66, 90.79 -0.18 M53.25 49.16 C67.54 30.74, 82.09 13.63, 96.72 1.09 M53.3 47.05 C64.67 35.95, 73.13 24.82, 96.44 -1.07 M60.44 49.49 C70.12 35.73, 80.44 20.2, 99.43 1.29 M59.81 47.18 C68.93 37.04, 77.72 25.27, 99.79 -0.24 M64.89 49.67 C78.43 30.23, 94.05 11.06, 106.24 -1.85 M65.01 48.91 C71.87 38.29, 81.63 26.96, 105.44 -0.51 M69.86 46.9 C87.48 28.27, 101.94 9.25, 113.28 -0.72 M70.87 47.55 C85.19 28.74, 100.83 10.67, 111.78 0.97 M73.78 47.46 C85.74 32.97, 97.79 20.62, 115.2 1.32 M74.09 47.1 C87.89 34.76, 99.13 19.89, 117.18 -0.21 M80.26 47.91 C90.02 34.86, 100.97 19.42, 119.94 -0.52 M81.06 46.57 C91.88 35.46, 101.78 23.63, 121.68 0.96 M85.6 48.44 C96.77 35.89, 106.65 25.32, 127.53 1.06 M86.2 48.4 C95.39 37.62, 105.4 25.82, 126.66 -0.46 M92.76 46 C101.97 35.4, 112.69 22.81, 131.44 -0.59 M90.84 46.76 C106.17 28.68, 123.51 10.15, 133 -0.29 M94.89 47.65 C105.03 38.12, 113.51 26.06, 138.06 -0.77 M95.59 48.02 C105.2 37.1, 114.35 26.23, 137.5 1.2 M101.34 47.76 C114.22 31.03, 128.71 17.06, 144.71 1.76 M101.23 47.04 C115.91 30.38, 130.11 14.2, 143.77 -0.38 M105.1 49.26 C119.04 36.75, 128.85 22.74, 147.15 2.07 M107.06 47.61 C120.14 32.6, 131.51 19.09, 148.54 0.87 M112.87 48.92 C120.17 34.63, 133.2 26.41, 153.57 -1.7 M111.81 46.78 C124.98 33.07, 138.31 17.64, 154.61 -0.48 M116.51 46.57 C129.12 36.57, 139 21.79, 160.06 0.92 M117.97 47.27 C132.84 30.04, 147.83 14.27, 159.18 1.13 M123.09 46.34 C137.91 34.26, 149.89 16.58, 164.67 -2.04 M122.73 47.79 C137.01 31.24, 152.13 15.78, 164.71 0.69 M126.32 45.98 C140.84 31.95, 156.12 15.01, 170.89 0.27 M128.26 47.51 C139.09 34.69, 151.18 20.94, 169.36 0.96 M131.96 46.76 C144.17 34.95, 154.85 23.93, 173.59 -1.23 M134.03 49.07 C147.03 31.25, 160.76 14.95, 175.8 -1.15 M140.56 47.04 C155.17 30.45, 169.58 11.8, 178.63 1.72 M138.41 47.3 C148.86 35.65, 161.71 22.52, 179.61 -0.2 M142.28 47.76 C155.57 34.42, 166.37 20.38, 184.75 -0.09 M144.31 47.8 C153.34 36.21, 163.72 25, 186.17 0.14 M150.18 46.41 C163.41 30.71, 181.64 12.41, 191.14 -0.01 M149.47 48.05 C162.15 32.2, 175.13 18.01, 191.02 -0.49 M155.76 46.32 C161.78 36.54, 174.05 27.84, 195.44 1.66 M154.74 47.84 C164.57 38.01, 171.8 28.01, 196.71 -0.84 M158.96 45.89 C172.51 34.4, 184.31 18.95, 201.18 -1.05 M159.05 47.59 C171.65 34.47, 181.36 22.71, 201.22 0.41 M163.65 47.82 C179.65 30.03, 193.59 15.3, 207.85 1.44 M165.72 48.76 C178.46 33.35, 190.1 18.61, 206.82 -1.07 M171.6 48.39 C180.7 34.24, 191.44 20.43, 210.35 -0.44 M171.34 48.2 C178.52 36.44, 188.91 26.16, 212.43 -0.77 M174.05 46.71 C187.46 34.75, 198.9 22.79, 217.03 -2.22 M176.2 48.55 C191.45 30.07, 205.91 14.18, 218.51 -1.08 M181.64 45.95 C196.93 31.52, 209.66 13.22, 221.15 -0.07 M181.08 46.59 C195.82 31.9, 207.98 15.66, 223.42 -0.83 M187.96 46.6 C199.15 31.76, 215.51 14.17, 226.91 -1.63 M185.7 47.64 C198.17 34.45, 210.46 20.42, 228.32 -0.97 M191.51 47.73 C202.5 33.58, 211.77 24.12, 232.93 -0.7 M191.55 47.91 C206.39 29.04, 221.79 11.81, 233.51 -0.16 M195.24 48.23 C205.9 35.14, 218.8 22.47, 237.63 0.73 M196.3 46.9 C207.48 34.35, 219.35 21, 238.71 0.34 M200.51 48.04 C216.6 31.79, 227.56 20.74, 241.95 -1.99 M202.64 47.76 C218.27 30.34, 232.9 11.96, 244.62 -0.7 M206.63 49.45 C222.48 29.97, 235.73 15.47, 248.18 1.29 M206.66 47.65 C218.6 34.77, 232.46 19.73, 248.67 0.13 M212.82 46.29 C224.64 33.11, 238.56 20.15, 253.3 1.54 M212.76 48.15 C221.36 37.49, 231.23 28.06, 255.18 0.04 M217.75 49.23 C234.23 28.2, 248.65 10.54, 260.47 -0.18 M217.98 47.62 C226.9 37.06, 234.83 28.78, 259.78 0.37 M225.5 47 C237.15 32.5, 250.04 19.22, 265 0.5 M222.9 47.56 C239.5 29.17, 255.24 10.44, 264.24 -1 M229.09 47.68 C236.31 37.61, 243.98 30.21, 268.6 2.02 M228.03 47 C239.38 35.55, 251.29 22.4, 269.54 2.22 M232.46 47.87 C240.95 37.46, 252.04 27.96, 269.33 6.16 M234.63 46.88 C243.12 36.74, 252.45 25.15, 268.79 7.1 M238.01 46.02 C249.51 36.13, 258.46 26.86, 269 14.22 M239.14 48.41 C245.72 38.55, 254.84 31.07, 269.43 12.82 M243.87 48.42 C252.28 39.16, 256.46 33.83, 268.01 21.11 M243.38 48.21 C250.38 41.72, 257.83 33.78, 268.97 19.87 M250.75 46.62 C253.15 42.77, 259.96 37.99, 268.05 24.28 M250.21 46.91 C256.58 40.09, 262.79 34.42, 268.57 26.13 M256.7 47.06 C261.11 40.31, 264.18 33.77, 266.9 33.29 M255.16 47.81 C258.65 44.02, 260.09 40.97, 268.73 31.53 M261.81 48.51 C262.97 43.57, 267.04 41.26, 268.27 39.09 M260.68 47.88 C263.32 45.11, 265.09 42.93, 269.35 37.39 M265.93 48.44 C267.2 46.74, 267.85 45.07, 269.39 43.85 M265.86 48.21 C266.3 47.07, 266.89 46.31, 268.85 44.09" stroke="#ced4da" stroke-width="0.5" fill="none"></path><path d="M-0.77 1.27 C92.56 -0.64, 183.98 0.37, 266.66 -0.87 M-0.65 -0.04 C104.96 -0.13, 211.39 1.21, 267.47 0.56 M266.98 -1.57 C265.48 14.53, 267.75 29.47, 267.52 48.56 M267.44 -0.59 C268.3 17.8, 267.7 35.91, 266.94 47.57 M266.02 47.64 C204.6 47.37, 142.75 48.19, -0.2 48.53 M266.26 47.25 C204.26 48.01, 141.39 49.28, -0.32 46.73 M-0.65 47.17 C0.01 29.04, 0.66 13.21, 0.24 -0.66 M-0.21 47.05 C0.83 30.15, 0.92 13.88, -0.39 -0.4" stroke="#000000" stroke-width="1" fill="none"></path></g><g transform="translate(241.63153076171875 23.5) rotate(0 128.5 10)"><text x="128.5" y="16" font-family="Cascadia, Segoe UI Emoji" font-size="16px" fill="#000000" text-anchor="middle" style="white-space: pre;" direction="ltr">display: grid | inline-grid</text></g><g stroke-linecap="round"><g transform="translate(407.56111427416 130.85890174717082) rotate(0 0.10757699231339757 -34.70382651575868)"><path d="M0 0 C0.04 -11.57, 0.18 -57.84, 0.22 -69.41 M0 0 C0.04 -11.57, 0.18 -57.84, 0.22 -69.41" stroke="#000000" stroke-width="1" fill="none"></path></g><g transform="translate(407.56111427416 130.85890174717082) rotate(0 0.10757699231339757 -34.70382651575868)"><path d="M10.39 -41.19 C8.33 -46.88, 6.28 -52.58, 0.22 -69.41 M10.39 -41.19 C8.08 -47.59, 5.77 -53.99, 0.22 -69.41" stroke="#000000" stroke-width="1" fill="none"></path></g><g transform="translate(407.56111427416 130.85890174717082) rotate(0 0.10757699231339757 -34.70382651575868)"><path d="M-10.13 -41.25 C-8.04 -46.93, -5.95 -52.62, 0.22 -69.41 M-10.13 -41.25 C-7.79 -47.64, -5.44 -54.02, 0.22 -69.41" stroke="#000000" stroke-width="1" fill="none"></path></g></g><g stroke-linecap="round" transform="translate(162.35159301757812 290.6151885986328) rotate(0 112 32.5)"><path d="M0 0 C0 0, 0 0, 0 0 M0 0 C0 0, 0 0, 0 0 M-0.86 5.98 C1.06 4.79, 3.08 3.02, 5.14 0.48 M-0.12 6.23 C0.87 5.07, 1.91 3.8, 4.83 0.44 M-0.88 10.93 C5.63 7.07, 7.23 1.49, 10.6 0.55 M-0.33 11.85 C3.4 8.85, 6.49 5.61, 10.69 -0.47 M-2.02 19.38 C5.4 14.1, 9.21 7.84, 15.49 -0.9 M-0.23 18.73 C5.74 10.93, 12.7 4.38, 15.42 0.51 M0.84 24.97 C7.69 15.5, 12.85 9.88, 19.3 -1.83 M0.05 23.58 C7.31 16.38, 12.5 10.02, 21.83 0.4 M-1.6 31.42 C7.35 23.13, 15.14 12.17, 25.71 0.06 M-0.79 31.11 C7.94 20.85, 15.36 13.17, 27.24 0.98 M0.62 35.31 C7.86 29.38, 14.82 19.7, 32.85 -0.05 M-0.13 37.09 C11.06 24.94, 21.82 10.43, 31.96 -0.24 M-0.7 43.26 C12.24 25.61, 26.52 10.64, 36.77 -0.62 M0.02 42.94 C13.94 26.4, 27.48 10.84, 37.71 0.29 M-1.22 49.5 C10.8 36.44, 19.18 24.87, 41.44 -0.55 M0.74 48.37 C12.12 36.76, 21.85 23.75, 42.51 0.52 M1.36 53.8 C16.3 39.26, 28.1 22.68, 46.27 2.06 M0.37 54.49 C16.47 36.85, 30.39 18.84, 47.03 1.19 M-1.24 62.78 C17.47 40.53, 33.98 23.07, 52.1 -0.8 M0.95 60.18 C17.56 42.74, 34.34 22.1, 53.48 0.16 M2.79 66.34 C18.67 44.74, 36.3 23.28, 56.7 2.18 M1.67 65.72 C17.65 47.38, 33.49 28.01, 57.97 0.85 M7.47 67.95 C18.42 51.64, 32.17 32.67, 64.78 -1.12 M5.94 66.16 C19.15 51.44, 32.17 36.74, 63.41 0.57 M11.21 67.47 C32.59 42.81, 49.13 22.57, 67.44 -1.02 M12.4 65.23 C25.07 48.57, 38.83 32.37, 67.86 0.9 M17.45 67.27 C34.86 45.25, 52.15 26.71, 76.26 -0.73 M16.46 66.68 C35.32 44.31, 54.26 23.11, 73.43 0.09 M24.07 66.81 C39.38 46.7, 56.01 30.74, 78.72 0.82 M22.58 65.91 C36.18 49.35, 49.95 35.58, 78.61 -0.6 M26.86 67.86 C48.86 38.51, 71.33 12.46, 84.24 -1.71 M26.59 66.34 C40.29 50.13, 55.49 34.08, 85.2 -0.5 M33.55 63.77 C53.12 40.48, 74.84 19.27, 91.66 1.16 M32.63 65.8 C51.81 44.3, 71.1 23.66, 90.66 0.84 M39.31 64.7 C56.53 43.94, 75.47 23.71, 95.26 -1.02 M37.51 66.88 C50.06 52.33, 62.26 38.06, 94.97 0.01 M44.71 66.89 C56.03 52.13, 68.68 35.27, 100.25 -1.38 M43.56 65.35 C55.25 50.41, 68.66 36.48, 101.04 0.15 M47.29 65.9 C67.62 45.05, 86.24 22.96, 104.75 1.51 M49.01 66.49 C65.17 46.86, 84.46 24.41, 105.54 -0.72 M55.48 65.85 C67.17 54.79, 78.82 39.92, 111.34 0.92 M54.91 65.48 C72.06 46.05, 88.02 26.99, 111.33 0.71 M60.16 64.68 C79.04 47.53, 96.5 25.94, 116.36 -0.08 M59.42 65.78 C74.23 48.89, 91.33 29.53, 115.62 0.15 M64.65 67.42 C79.79 48.4, 93.19 31.74, 120.69 0.91 M64.79 65.51 C83.62 43.99, 102.63 23.07, 121.67 0.32 M68.17 67.4 C91.68 40.24, 114.39 17.9, 128.58 -0.88 M69.63 65.82 C86.22 46.56, 102.62 28.72, 126.44 -0.37 M75.9 67.53 C86.22 51.13, 102.53 36.98, 132.91 0.58 M75.88 65.24 C97.35 40.33, 119.9 13.95, 132.78 -0.78 M82.43 65.54 C102.67 44.15, 120.01 19.57, 138.79 -0.59 M81.1 66.09 C99.37 42.65, 119.75 18.93, 137.84 -0.56 M85.79 67.22 C109.41 41.16, 130.3 15.88, 141.49 -0.97 M85.42 64.86 C107.31 42.49, 126.97 18.4, 143.93 0.11 M90.94 67.7 C109.89 43.99, 129.07 22.3, 149.95 1.45 M91.86 66.54 C110.69 43.86, 130.19 21.11, 148.88 0.98 M95.75 64.65 C109.15 48.01, 126.3 32.88, 152.79 0.49 M97.22 65.03 C118.31 40.33, 139.63 15.66, 152.94 0.09 M102.54 67.6 C125.79 39.85, 147.02 13.16, 157.83 -0.97 M102.47 65.52 C123.37 41.93, 143.51 19.19, 159.16 0.1 M107.41 67.87 C122.12 49.78, 134.29 32.59, 166.05 -1.7 M106.97 65.59 C119.18 51.91, 131.5 36.37, 164.22 0.73 M111 64.11 C130.33 46.08, 147.25 24.03, 171.13 -0.92 M112.1 65.85 C133.79 42.48, 153.56 19.27, 168.86 1.07 M117.28 67.79 C129.39 53.1, 142.87 36.45, 173.4 -1.05 M116.93 66.57 C134.58 46.21, 152.42 26.28, 174.72 0.02 M122.92 65.2 C142.14 42.7, 163.85 18.51, 179.39 1.62 M122.44 66.78 C141.04 44.46, 159.38 23.89, 180.72 0.61 M128.75 66.7 C143.17 47.33, 162.97 27.12, 183.81 -1.95 M127.91 66.68 C144.54 47.17, 160.66 27.44, 185.96 0.39 M133.79 63.97 C154.18 44.58, 173.59 21.6, 189.05 -0.18 M133.77 65.98 C150.21 46.68, 168.53 26.6, 190.05 -0.15 M138.74 67.27 C148.91 54.04, 162.75 38.5, 195.16 0.31 M137.98 66.32 C155.24 46.14, 172.05 28.1, 196.02 0.72 M143.97 66.66 C160.48 45.37, 177.55 29.42, 199.4 -0.02 M144.92 65.58 C163.13 41.86, 183.79 17.96, 200.7 0.41 M149.06 65.29 C171.85 38.86, 192.07 16.96, 206.18 -0.4 M149.75 66.32 C164.73 47.54, 181.24 30, 207.56 0.32 M154.72 64.61 C174.31 43.87, 194.66 18.37, 210.62 1.52 M155.29 66.13 C168.08 51.13, 180.04 36.35, 211.11 0.29 M158.38 65.67 C179.33 46.39, 196.39 26.5, 216.49 -1.11 M160.4 65.98 C171.78 50.87, 184.12 37.04, 217.77 -1.09 M164.14 66.31 C185.88 39.38, 209.19 11.97, 223.77 0.97 M164.84 66.63 C181 48.42, 196.6 28.67, 222.26 -0.04 M170.26 66.45 C189.42 45.21, 204.71 26.99, 224.62 0.55 M169.66 66.99 C190.69 42.97, 209.52 19.08, 226.47 0.97 M175.22 65.35 C190.87 47.02, 207.69 28.56, 225.55 8.3 M176.07 66.51 C191.82 46.23, 208.67 27.65, 226.49 8.63 M181.13 66.81 C198.61 46.97, 218.23 26.91, 225.36 13.36 M181.83 65.52 C190.67 54.8, 199.8 43.93, 225.41 14.64 M187.82 64.47 C199.9 52.6, 214.04 36.05, 226.71 21.77 M186.09 65.64 C195.36 55.23, 204.32 44.92, 225.85 21.12 M192.29 67.03 C206.32 52.21, 219.76 37.13, 225.48 25.86 M191.79 66.15 C199.92 55.43, 208.45 46.4, 226.04 25.18 M198.7 67.52 C204.75 59.95, 208.66 51.51, 226.21 33.53 M196.53 66.33 C204.53 57.52, 213.15 47.27, 226.29 31.41 M201.91 64.54 C212.6 54.59, 222.58 46.36, 227.46 38.27 M202.95 65.9 C210.4 58.27, 216.16 48.54, 225.14 38.84 M209.46 67.48 C212.15 60.73, 217.37 55.15, 224.59 44.62 M207.6 65.33 C216.15 57.89, 222.61 49.19, 227.06 43.72 M213.06 65.86 C219.2 60.89, 224.13 54.78, 224.57 49.7 M213.31 66.25 C218.49 61.31, 221.58 55.45, 226.06 50.05 M218.62 66.08 C222.39 63.05, 225.25 57.59, 226.98 56.91 M218.31 65.69 C220.05 63.17, 222.33 61.55, 226.18 56.61" stroke="#ced4da" stroke-width="0.5" fill="none"></path><path d="M0.69 -1.17 C87.9 -0.4, 176.91 1.9, 222.46 0.61 M0.69 -0.53 C87.4 0.26, 175.89 -0.08, 224.65 -0.84 M222.51 -0.59 C224.43 25.86, 223.2 50.51, 223.05 66.09 M224.88 -0.23 C224.33 16.77, 224.31 32.32, 224.42 65.82 M225.64 65.02 C139.33 65.16, 56.25 65.01, -1.68 63.76 M223.94 64.29 C142.24 65.47, 60.89 65.5, -0.7 65.58 M0.66 63.28 C-1.23 39.44, 1.26 13.25, 1.1 1.6 M-0.49 64.05 C1 41.08, 0.23 17.2, -0.69 0.9" stroke="#000000" stroke-width="1" fill="none"></path></g><g transform="translate(167.35159301757812 300.1151885986328) rotate(0 107 23)"><text x="107" y="17" font-family="Cascadia, Segoe UI Emoji" font-size="16px" fill="#000000" text-anchor="middle" style="white-space: pre;" direction="ltr">grid-template-rows</text><text x="107" y="40" font-family="Cascadia, Segoe UI Emoji" font-size="16px" fill="#000000" text-anchor="middle" style="white-space: pre;" direction="ltr">grid-tempalte-columns</text></g><g stroke-linecap="round"><g transform="translate(378.5000139183895 187.39842881228373) rotate(0 -33.74373773415965 50.170484649468676)"><path d="M0 0 C-11.25 16.72, -56.24 83.62, -67.49 100.34 M0 0 C-11.25 16.72, -56.24 83.62, -67.49 100.34" stroke="#000000" stroke-width="1" fill="none"></path></g><g transform="translate(378.5000139183895 187.39842881228373) rotate(0 -33.74373773415965 50.170484649468676)"><path d="M-60.27 71.22 C-62.88 81.77, -65.5 92.32, -67.49 100.34 M-60.27 71.22 C-62.93 81.95, -65.59 92.67, -67.49 100.34" stroke="#000000" stroke-width="1" fill="none"></path></g><g transform="translate(378.5000139183895 187.39842881228373) rotate(0 -33.74373773415965 50.170484649468676)"><path d="M-43.24 82.68 C-52.02 89.07, -60.81 95.47, -67.49 100.34 M-43.24 82.68 C-52.17 89.18, -61.1 95.69, -67.49 100.34" stroke="#000000" stroke-width="1" fill="none"></path></g></g><g stroke-linecap="round" transform="translate(468.3394775390625 296.1633758544922) rotate(0 97.5 24.5)"><path d="M0 0 C0 0, 0 0, 0 0 M0 0 C0 0, 0 0, 0 0 M0.09 6.74 C1.09 4.98, 3.02 3.25, 4.19 0.68 M-0.11 6.07 C1.51 4.39, 3.16 2.77, 5.35 0.15 M0.53 11.74 C4.99 8.02, 6.17 3.83, 10.19 -1.34 M0.76 11.58 C3.75 7.06, 8.2 2.8, 10.1 0.61 M0.28 19.82 C4.02 11.17, 12.44 5.1, 17.04 -1.38 M0.39 18.3 C3.25 14.26, 8.28 9.83, 15.95 1.09 M1.85 22.55 C5.26 18.67, 10.04 15.6, 20.01 -1.91 M-0.07 24.59 C5.79 18.36, 10.09 12.4, 20.49 -0.52 M1.55 31.27 C4.96 23.65, 12.33 16.13, 26.34 0.14 M0.7 31.35 C7.73 22.84, 15.01 12.83, 25.38 -0.21 M1.4 37.4 C6.1 26.98, 16.55 16.22, 31.09 -1.79 M0.61 36.53 C11.19 24.44, 20.44 12.73, 31.19 0.62 M-1.52 43.45 C12.57 26.57, 29.86 8.24, 35 -1.46 M0.74 42.83 C12.56 28.27, 23.65 14.36, 36.38 1.03 M-1.79 50 C14.56 34.17, 29.25 17.05, 41.01 -1.07 M-0.3 49.63 C14.59 32.87, 27.48 15.64, 42.96 0.07 M4.85 52.11 C20.2 33.76, 35.07 11.35, 48.25 -0.51 M3.29 52.34 C12.51 39.53, 23.03 28.78, 47.57 0.5 M6.22 52.22 C20.48 35.41, 32.57 22.86, 52.54 1.37 M8.3 52.03 C21.2 35.59, 36.02 20.17, 53.13 0.31 M14.21 50.81 C24.85 37.58, 35.31 26.84, 56.43 1.54 M14.19 51.07 C30.7 32.59, 47.81 12.99, 57.99 0.43 M20.04 51.17 C30.19 38.45, 41.9 26.41, 65.62 -0.48 M19.45 52.75 C36.32 31.33, 54.11 11.71, 63.5 0.33 M24.1 53.11 C38.71 33.73, 51.54 18.2, 67.03 0.13 M24.59 51.85 C39.05 33.96, 55.14 15.03, 69.16 -0.36 M30.01 51.78 C47.51 30.81, 64.07 9.94, 73.27 0.25 M29.28 52.35 C44.67 33.02, 60.81 14.63, 74.26 -0.26 M33.06 52.36 C48.84 33.61, 63.8 16.64, 80.65 -0.44 M33.96 51 C46.5 39.12, 56.99 27.42, 78.99 -0.53 M38.24 52.86 C55.6 35.22, 67.2 16.89, 85.66 -0.71 M38.97 50.96 C52.47 37.45, 63.43 24.87, 84.07 0.67 M44.75 50.82 C54.96 39.87, 67.61 28.1, 91.01 1 M46.19 51.42 C61.47 32.5, 76.24 14.44, 89.87 -0.13 M51.97 50.09 C63.74 36.66, 78.71 19.37, 94.09 1.26 M50.14 51.25 C66.79 31.48, 85.72 11.04, 96.02 -0.16 M55.97 51.58 C68.57 37.14, 81.21 24.01, 100.98 -1.5 M55.63 50.57 C68.53 38.1, 78.77 24.16, 100.59 -0.69 M59.54 52.02 C70.82 39.34, 79.48 31.3, 106.97 -0.34 M60.86 52.46 C75.31 35.9, 88.39 20.46, 105.64 0.51 M68.63 50.65 C82.04 36.1, 95.75 16.13, 110.53 -1 M67.05 50.48 C76.7 41.47, 84.14 30.5, 110.41 0.85 M70.43 52.07 C91.49 32.42, 105.99 12.76, 117.19 1.59 M71.6 52.39 C80.38 39.8, 90.38 28.7, 116.23 1.27 M77.78 52.89 C90.62 34.77, 103.27 21.29, 120.77 -1.7 M77.67 51.71 C89.84 36.7, 102.38 23.31, 121 0.11 M83.25 52.55 C92.75 41.25, 104.67 28.77, 128.71 0.8 M81.32 51.4 C100.52 30.2, 117.64 10.01, 127.51 1.01 M87.58 52.04 C100.25 35.34, 117.31 20.01, 133.91 1.07 M87.14 51.42 C97.62 40.1, 105.97 30.26, 132.49 -0.74 M93.72 52.64 C110.63 30.62, 126.07 12.38, 136.69 2.15 M93.37 52.43 C109.72 33.22, 125.87 14.5, 137.66 -0.56 M99.32 50.71 C108.78 42.06, 115.5 29.14, 141.33 0.86 M99.54 51.32 C107.38 40.63, 117.4 28.3, 143.43 -0.97 M102.7 52.39 C116.57 38.09, 128.76 24.58, 150.04 -1.37 M103.57 50.95 C117.63 35.37, 129.94 20.79, 147.96 0.08 M107.41 52.4 C117.78 38.89, 126.92 30.47, 155.48 0.12 M109.41 51.68 C126.22 32.94, 142.56 13.44, 152.82 0.74 M116.17 52.73 C126.46 39.48, 137.36 25.35, 158.78 0.1 M114.16 51.03 C125.73 38.87, 136.1 26.56, 158.11 1.01 M119.4 49.46 C130.67 40.73, 138.65 27, 165.99 -1.87 M119.7 51.32 C135.06 33.42, 149.78 15.05, 164.09 0.25 M125.23 51.46 C134.14 39.78, 146.58 26.09, 170.1 1.32 M123.82 51.28 C138.26 37.36, 149.87 22.04, 170.28 0.88 M131.3 51.9 C146.28 34.26, 160.28 16.77, 175.57 -0.93 M129.17 52.41 C146.1 34.29, 161.25 16.68, 175.11 -0.02 M134.11 51.26 C148.26 36.22, 159.87 20.21, 180.29 1.88 M135.67 50.87 C151.21 31.94, 168.13 14.3, 181.05 0.9 M142.22 52.32 C157.55 33.42, 174.93 12.08, 184.08 0.01 M140.95 51.38 C157.56 30.61, 176.14 10.81, 186.2 -1.08 M144.16 51.68 C157.38 39.61, 165.61 30.72, 190.75 -1.71 M145.28 51.54 C159.39 36.51, 172.15 20.58, 191.45 0.84 M150.4 50.47 C167.67 36.35, 183.23 16.54, 195.85 -0.39 M150.68 51.52 C166.86 32.8, 182.73 14.33, 195.43 1.38 M157.86 53.14 C169.86 38.03, 178.04 25.16, 194.13 6.7 M156.63 51.6 C170.14 36.32, 183.97 20.49, 195.03 7.82 M159.89 50.21 C171.74 38.63, 181.2 27.74, 195.79 11.26 M161.07 51.9 C176.16 35.14, 187.95 20.83, 196.8 12.04 M166.81 52.96 C176.28 41.81, 182.91 31.38, 195.4 19.84 M168.15 51.91 C174.22 42.62, 181.3 36.39, 195.01 19.23 M171.87 52.28 C179.46 42.68, 186.06 34.61, 196.96 23.3 M173.27 52.18 C179.19 44.33, 186.67 34.83, 195.79 24.25 M179.75 53.31 C184.4 42.43, 189.73 37.09, 195.94 31.55 M178.73 51.9 C184.85 44.24, 189.84 37.1, 196.32 31.25 M184.53 50.36 C188.67 46.15, 192.62 41.37, 195.1 37.06 M182.87 52.52 C185.84 47.29, 190.37 42.99, 195.76 37.98 M189.66 52.37 C191.98 47.21, 194.87 45.39, 196.84 42.35 M188.08 51.44 C190.07 49.13, 191.78 46.67, 195.77 43.49" stroke="#ced4da" stroke-width="0.5" fill="none"></path><path d="M0.06 -1.57 C66.19 -0.16, 130.7 -1.28, 195.78 -0.09 M0.32 0.29 C52.63 -1.52, 105.03 -0.73, 195.2 0.57 M195.14 1.39 C195.31 16.7, 194.79 28.17, 193.13 48.22 M194.47 -0.68 C194.3 12.97, 195.42 25.17, 194.67 48.56 M193.53 47.72 C150.57 46.26, 103.99 48.94, -0.68 48.3 M195.45 49.77 C117.96 47.5, 40.98 48.2, 0.62 48.8 M-1.94 47.24 C-1.2 33.88, -0.3 23.19, -1.15 -0.53 M0.97 48.33 C-0.19 29.75, 0.95 12.62, -0.87 -0.93" stroke="#000000" stroke-width="1" fill="none"></path></g><g transform="translate(473.3394775390625 309.1633758544922) rotate(0 92.5 11.5)"><text x="92.5" y="17" font-family="Cascadia, Segoe UI Emoji" font-size="16px" fill="#000000" text-anchor="middle" style="white-space: pre;" direction="ltr">grid-tempalte-areas</text></g><g stroke-linecap="round" transform="translate(761.354248046875 22.828018188476562) rotate(0 59 19.5)"><path d="M0.97 -1.74 L117.9 -1.02 L119.14 37.35 L0.99 37.64" stroke="none" stroke-width="0" fill="#82c91e"></path><path d="M-1.65 1.69 C44.14 -1.57, 85.18 -0.65, 116.52 -1.55 M-0.41 0.35 C41.07 -0.88, 82.13 -0.54, 118.92 0.92 M118.83 -1.54 C117.37 11.25, 116.95 22.69, 117.59 40.27 M118.38 0.76 C117.14 8.22, 117.65 16.47, 117.34 39.8 M116.36 38.48 C82.86 40.74, 50.67 40.75, -0.07 38.71 M117.13 39.77 C73.82 39.96, 28.32 39.5, 0.97 39.7 M-0.1 40.07 C1.22 29.93, 0.69 23.63, -1.63 -0.67 M-0.1 39.34 C-1.12 28.99, 0.45 21.12, -0.87 0.79" stroke="#000000" stroke-width="1" fill="none"></path></g><g transform="translate(766.354248046875 32.32801818847656) rotate(0 54 10)"><text x="54" y="16" font-family="Cascadia, Segoe UI Emoji" font-size="16px" fill="#000000" text-anchor="middle" style="white-space: pre;" direction="ltr">grid item</text></g><g stroke-linecap="round" transform="translate(677.439453125 166.81764221191406) rotate(0 88.5 28)"><path d="M0 0 C0 0, 0 0, 0 0 M0 0 C0 0, 0 0, 0 0 M-0.77 6.33 C1.18 5.35, 3.13 3.14, 5.34 0.75 M-0.25 6.06 C1.06 5.21, 2.25 3.63, 4.78 0.68 M1.25 12.01 C3.66 8.31, 6.34 4.99, 10.13 -1.06 M0.25 11.84 C2.99 8.91, 3.87 7.39, 11.05 -0.78 M-0.44 17.66 C6.67 13.01, 9.69 4.72, 16.6 -0.61 M-0.44 18.82 C3.72 13.95, 8.15 9.01, 15.81 -0.49 M1.17 24.07 C6.51 16.26, 14.98 3.86, 19.9 1.81 M0.92 24.02 C4.79 17.41, 11.5 10.5, 21.07 0.04 M-1.34 30.93 C7.01 21.18, 15.25 15.23, 27.09 1.88 M0.53 30.22 C8.03 22.32, 14.97 13.42, 25.88 0.15 M-0.11 36.21 C7.77 27.03, 19.09 14.51, 30.8 -0.18 M0.46 36.02 C11.16 23.78, 20 12.78, 31.07 -1.01 M1.52 43.21 C14.67 26.17, 26.57 10.6, 35.11 -1.08 M1.05 41.68 C8.52 33.78, 15.85 24.54, 36.52 1.02 M-1.69 47.52 C10.22 38.59, 18.15 29.16, 44.06 0.26 M-0.7 49.01 C14.19 32.87, 27.52 18.02, 42.74 -0.39 M-1.02 56.55 C19.77 36.33, 34.66 14.19, 47.6 1.5 M-0.09 53.69 C16.51 36.88, 33.17 18.9, 48.01 0.66 M2.8 57.24 C15.75 43.23, 29.58 26.53, 54.16 -0.43 M2.93 57.97 C14.01 46.27, 23.43 33.81, 54.05 0.21 M6.23 57.59 C22.17 38.53, 38.43 21.32, 56.59 1.48 M7.57 59 C26.06 37.38, 43.82 17.77, 59.07 0.13 M12.16 57.68 C25.39 45.48, 32.87 33.24, 64.7 -0.96 M12.56 58.72 C33.23 34.02, 53.78 12.33, 63.45 -0.34 M16.45 58.65 C32.48 44.45, 47.44 27.09, 67.24 -0.4 M17.8 57.75 C33.46 41.22, 46.62 25.14, 68.84 1.09 M25.17 57.16 C39.61 39.4, 58.46 18.37, 76.41 0.85 M24.72 58.7 C42.4 36.73, 59.11 18.35, 73.8 -0.63 M28.58 60.19 C44.86 40.45, 64.93 18.86, 77.85 1.49 M29.42 57.89 C46.51 37.55, 64.2 15.8, 78.92 -0.26 M33.63 59.77 C47.53 42.87, 59.72 29.02, 83.14 0.05 M34.26 56.87 C53.64 35.39, 74.22 12.19, 84.42 -0.66 M37.98 59.75 C53.19 41.84, 66.62 26.97, 91.83 1.62 M39 58.16 C53.7 41.91, 69.33 23.75, 89.32 0.86 M46.46 58.51 C60.76 39.05, 81.05 20.16, 95.88 0.58 M44.43 58.76 C61.79 39.86, 77.15 20.65, 95.04 0.13 M49.12 59.77 C62.05 45.76, 73.41 33.84, 101.72 -0.63 M49.52 57.86 C62.11 44.57, 74.37 29.22, 100.52 -0.22 M57.69 59.26 C71.63 40.03, 87.41 20.03, 106.72 -0.77 M54.97 58.43 C75.23 36.79, 92.56 14.8, 105.86 -1.16 M59.61 59.55 C75.74 43.12, 85.99 28.71, 113.2 -1.03 M60.42 58.86 C72.39 44.46, 86.04 31.46, 111.42 0.39 M65.84 57.49 C75.22 45.2, 86.88 34, 116.24 -1.56 M65.37 59.3 C78.09 44.44, 89.36 30.92, 116.82 -0.09 M72.18 59.26 C85.18 45.56, 95.78 30.65, 121.04 1.54 M71.58 57.58 C87.55 38.5, 104.24 18.45, 121.35 -0.85 M76.51 59.32 C91.39 44.16, 104.61 27.48, 128.11 -0.75 M75.52 59.06 C90.13 42.96, 103.24 27.05, 126.31 0.06 M82.67 59.96 C99.02 40.2, 116.25 20.04, 133.17 1.07 M81.3 59.01 C95.26 41.89, 110.15 26.4, 132.09 -0.92 M86.45 58 C105.97 38.1, 125.71 14.17, 137.14 1.84 M87.8 58.24 C100.69 42.66, 114.01 26.99, 137.17 0.85 M92.08 59.57 C105.22 44.52, 114.21 32.32, 142.63 0.43 M92.31 58.71 C105.73 43.59, 116.57 30.79, 143.85 -0.23 M98.22 58.88 C111.53 41.23, 126.18 25.88, 147.95 -1.48 M97.67 59.17 C112.87 39.45, 130.2 21.23, 147.32 -0.34 M102.5 56.91 C121.75 36.25, 142.92 13.78, 155.58 -0.65 M103.82 58.78 C117.61 43.19, 131.47 26.06, 153.29 -0.64 M107.47 60.21 C124.8 38, 142.65 19.25, 158.25 -1.54 M109.03 58.75 C125.05 37.91, 142.35 19.3, 159.13 0.39 M113.15 59.64 C126.36 41.36, 139.23 30.48, 163.32 -1.55 M113.43 57.91 C127.31 40.91, 141.28 25.65, 163.49 0.55 M119 57.11 C127.42 45.45, 138.48 35.44, 170.9 -0.28 M118.22 58.43 C133.46 41.62, 147.67 24.45, 169.42 -0.45 M124.41 56.32 C139.03 38.81, 154.83 20.89, 174.26 -0.78 M125.21 57.34 C134.25 47.01, 144.33 35.78, 175.99 0.63 M130.72 57.56 C146.85 40.73, 161.06 23.22, 180.57 2.73 M130.02 58.24 C141.07 46.48, 150.7 35.32, 178.11 1.7 M133.73 56.38 C148.88 43.49, 162.41 25.58, 179.38 7.58 M135.65 58.86 C146.43 45.12, 158.76 31.1, 178.18 6.96 M141.68 58.42 C150.06 48.3, 155.99 39.29, 180.49 12.36 M139.64 58.75 C156.36 40.93, 170.88 22.27, 179.02 13.49 M147.73 58.11 C154.6 48.94, 160.52 41.1, 179.31 20.49 M145.68 58.84 C155.88 46.52, 166.45 34.6, 178.43 19.68 M152.03 57.45 C159.18 50.86, 165.03 42.89, 178.07 26.71 M150.73 59.12 C162.24 46.08, 172.86 33.92, 179.45 26.56 M158.14 56.71 C164.4 48.18, 169.16 42.3, 179.1 32.04 M156.67 58.21 C163.42 49.01, 170.78 42.13, 178.83 31.71 M163.08 57.25 C167.04 53.49, 170.02 50.25, 180.67 39.33 M161.39 59.04 C167.77 51.21, 175.52 42.8, 179.96 37.63 M165.93 56.37 C169.9 52.43, 176.02 48.01, 178.99 44 M166.5 58.38 C169.18 55.48, 172.84 51.81, 178.1 43.42 M172.65 57.73 C174.08 55.21, 176.11 53.47, 179.37 50.01 M172.1 58.47 C173.56 55.82, 175.68 54.17, 178.76 50.68" stroke="#ced4da" stroke-width="0.5" fill="none"></path><path d="M1.31 -1.25 C41.32 -0.07, 82.23 0, 175.96 0.11 M-0.42 0.71 C43.33 0.79, 86.58 -0.6, 177.28 0.61 M178.6 -1.77 C178.33 15.06, 175.73 29.93, 175.39 57.99 M177.91 0.19 C177.25 17.18, 176.98 34.45, 176.11 55.82 M175.08 55.77 C114.91 53.2, 49.92 56.22, 0.08 55.2 M176.6 56.44 C130.23 58.08, 82.75 57.37, 0.23 56.65 M-0.8 57.98 C-0.99 39.78, 1.34 21.11, -0.14 -1.93 M-0.4 56.68 C-0.39 34.68, 0.57 13.26, 0.11 -0.72" stroke="#000000" stroke-width="1" fill="none"></path></g><g transform="translate(682.439453125 171.81764221191406) rotate(0 83.5 23)"><text x="83.5" y="17" font-family="Cascadia, Segoe UI Emoji" font-size="16px" fill="#000000" text-anchor="middle" style="white-space: pre;" direction="ltr">grid-row-start</text><text x="83.5" y="40" font-family="Cascadia, Segoe UI Emoji" font-size="16px" fill="#000000" text-anchor="middle" style="white-space: pre;" direction="ltr">grid-row-end</text></g><g stroke-linecap="round"><g transform="translate(812.0762796553108 70.21733093261719) rotate(0 -20.33274367946933 43.71161651611328)"><path d="M0 0 C-6.78 14.57, -33.89 72.85, -40.67 87.42 M0 0 C-6.78 14.57, -33.89 72.85, -40.67 87.42" stroke="#000000" stroke-width="1" fill="none"></path></g><g transform="translate(812.0762796553108 70.21733093261719) rotate(0 -20.33274367946933 43.71161651611328)"><path d="M-38.08 57.53 C-38.91 67.17, -39.75 76.8, -40.67 87.42 M-38.08 57.53 C-39.06 68.87, -40.04 80.2, -40.67 87.42" stroke="#000000" stroke-width="1" fill="none"></path></g><g transform="translate(812.0762796553108 70.21733093261719) rotate(0 -20.33274367946933 43.71161651611328)"><path d="M-19.47 66.19 C-26.3 73.03, -33.13 79.88, -40.67 87.42 M-19.47 66.19 C-27.51 74.24, -35.55 82.29, -40.67 87.42" stroke="#000000" stroke-width="1" fill="none"></path></g></g><g stroke-linecap="round" transform="translate(838.2630004882812 384.8032684326172) rotate(0 57.5 19.5)"><path d="M0 0 C0 0, 0 0, 0 0 M0 0 C0 0, 0 0, 0 0 M0.45 6.85 C1.74 4.73, 3.4 1.98, 5.32 0.31 M-0.65 6.18 C1.26 4.55, 3.57 2.26, 4.77 0.47 M1.01 12.9 C1.54 8.77, 3.98 8.36, 11.15 -0.8 M0.46 11.59 C2.44 8.98, 5.65 5.68, 10.12 -0.49 M0.6 19.34 C6.8 10.24, 12.33 7.53, 14.57 -0.75 M-0.29 18.13 C3.61 13.98, 8.28 8.29, 15.07 -0.42 M0.2 24.2 C7.15 16.33, 16.72 5.24, 20.99 1.07 M0.22 25.07 C6.87 15.5, 15.11 7.63, 22.09 -0.45 M-0.97 31.52 C5.08 22.98, 10.4 15.25, 25.05 -0.31 M-0.79 29.82 C6.86 23.13, 13.52 14.67, 27.24 -0.66 M-0.13 36.95 C8.9 27.67, 16.77 18.46, 32.41 -1.38 M-0.83 37.3 C8.89 28.34, 17.71 18.34, 31.39 -1.02 M2.02 39.18 C9.77 27.95, 22.9 16.95, 35.43 -1.02 M1.63 40.2 C14.79 24.67, 29.19 9.46, 36.41 0.94 M5.45 40.48 C19.2 27.42, 26.22 15.75, 43.15 0.65 M6.11 40.64 C17.75 29.44, 28.59 16.82, 42.1 0.44 M12.24 41.23 C18.47 30.45, 25.84 21.68, 48.78 -0.35 M12.48 39.75 C23.28 28.45, 32.14 17.05, 46.55 -0.15 M17.9 40.12 C26.63 28.11, 38.67 18.14, 51.7 1.25 M17.17 41.08 C30.61 25.97, 44.61 9.96, 53 -0.9 M21.5 39.86 C33.79 30.96, 41.67 17.66, 57 1.36 M22.11 41.44 C32.87 28.54, 42.51 17.41, 58.23 -0.02 M28.37 40.79 C40.3 28.62, 47.6 16.54, 65.43 -0.34 M28.39 41.54 C39.08 27.51, 49.91 15.32, 63.42 0.58 M32.97 42.28 C46.4 29.3, 54.45 17.06, 68.92 0.92 M33.91 40.64 C44.53 28.03, 55.74 12.94, 68.54 -0.35 M40.16 40.79 C51.29 27.87, 58.47 16.75, 72.58 0.22 M39.62 39.63 C50.03 28.43, 60.79 16.16, 75.24 -1.05 M44.75 39.1 C51.23 29.26, 62.86 21.3, 78.2 0.23 M43.87 41.43 C51.35 31.75, 60.38 21.58, 79.18 -0.35 M49.45 39.54 C59.82 28.1, 71.89 17.62, 86.25 0.42 M49.29 41.35 C58.43 30.48, 66.98 21.64, 84.94 0.7 M56.44 41.3 C63.15 30.39, 74.47 17.28, 91.4 -1.66 M55.19 41.53 C61.36 31.46, 69.37 22.34, 90.38 -0.81 M61.29 41.58 C73.55 25.49, 85.89 9.63, 96.46 -1.15 M60.39 41.19 C67.82 31.79, 75.48 21.32, 95.53 -1.25 M64.53 40.97 C73.54 28.62, 81.17 18.27, 99.94 -0.59 M65.65 41.13 C77.78 25.61, 93.39 9.27, 100.94 -0.08 M69.61 40.58 C82.98 25.1, 96.28 10.03, 106.04 -0.74 M70.48 40.03 C80.19 31.94, 88.14 20.65, 106.59 0.49 M74.39 39.36 C82.72 30.34, 92.9 21.59, 112.13 0.73 M75.58 40.85 C84.86 30.98, 94.42 19.43, 112.22 -0.07 M81.2 39.32 C91.27 29.7, 101.07 15.93, 117.45 -0.01 M81.66 41.21 C89.81 29.89, 100.32 19.01, 114.95 1.23 M88.27 38.81 C96.36 29.68, 108.71 16.47, 115.25 7.52 M85.87 39.76 C93.42 31.76, 99.5 24.47, 116.26 6.55 M91.76 41.72 C95.44 33.69, 101.22 26.85, 115.41 12.09 M92.62 40.52 C101.34 31.22, 108.51 21.88, 115.46 12.27 M97.27 38.8 C102.32 33.93, 106.7 26.8, 116.65 17.8 M97.99 41.34 C102.18 33.06, 107.54 26.86, 116.84 19.21 M101.83 40.83 C107.83 35.46, 113.63 28.37, 114.6 24.09 M102.59 40.17 C106.98 35.04, 113.03 27.96, 116.57 25.72 M108.73 40.23 C110.17 39.51, 110.25 36.46, 115.37 31.67 M107.87 41.18 C110.21 38.13, 112.65 35.01, 115.22 31.12 M113.28 39.98 C114.2 39.17, 115.1 38.51, 116.29 37.05 M113.39 40.38 C114.2 39.2, 115.25 38.12, 116.04 37.14" stroke="#ced4da" stroke-width="0.5" fill="none"></path><path d="M-0.9 1.17 C29.48 1.84, 57.27 -0.85, 113.61 0.79 M0.05 -0.1 C24.39 1.09, 48.56 0.83, 115.55 -0.35 M116.34 -1.03 C113.69 9.47, 113.89 21.87, 116.42 40.99 M115.3 -0.81 C116.22 10.8, 115.08 22.9, 114.28 39.88 M116.17 38.71 C81.66 41.56, 48.94 38.58, 1.51 38.03 M114.23 38.07 C70.69 40.13, 27.58 38.67, 0.02 39.1 M-0.19 40.53 C-0.37 26.05, 0.5 18.44, -0.88 1.95 M0.94 38.52 C-0.71 26.61, 0.81 13.35, 0.18 -0.46" stroke="#000000" stroke-width="1" fill="none"></path></g><g transform="translate(843.2630004882812 394.3032684326172) rotate(0 52.5 11.5)"><text x="52.5" y="17" font-family="Cascadia, Segoe UI Emoji" font-size="16px" fill="#000000" text-anchor="middle" style="white-space: pre;" direction="ltr">grid-area</text></g><g stroke-linecap="round"><g transform="translate(668.0029989719569 357.616220675538) rotate(0 78.75762943807831 23.22062342097388)"><path d="M0 0 C26.25 7.74, 131.26 38.7, 157.52 46.44 M0 0 C26.25 7.74, 131.26 38.7, 157.52 46.44" stroke="#000000" stroke-width="1" fill="none"></path></g><g transform="translate(668.0029989719569 357.616220675538) rotate(0 78.75762943807831 23.22062342097388)"><path d="M127.57 48.31 C137.35 47.7, 147.12 47.09, 157.52 46.44 M127.57 48.31 C137.5 47.69, 147.42 47.07, 157.52 46.44" stroke="#000000" stroke-width="1" fill="none"></path></g><g transform="translate(668.0029989719569 357.616220675538) rotate(0 78.75762943807831 23.22062342097388)"><path d="M133.38 28.63 C141.25 34.44, 149.13 40.25, 157.52 46.44 M133.38 28.63 C141.38 34.53, 149.38 40.43, 157.52 46.44" stroke="#000000" stroke-width="1" fill="none"></path></g></g><g stroke-linecap="round" transform="translate(190.70831298828125 425.7016143798828) rotate(0 73 24)"><path d="M0 0 C0 0, 0 0, 0 0 M0 0 C0 0, 0 0, 0 0 M-0.62 6.29 C1 4.35, 2.59 2.73, 4.29 -0.41 M-0.04 6.09 C1.53 4.32, 3.28 1.59, 4.98 0.6 M-0.59 11.07 C1.28 10.01, 4.72 5.86, 9.93 -1.44 M0.1 12.79 C3.51 7.94, 6.29 4.99, 9.87 -0.34 M1.13 17.72 C4.05 13.18, 10.03 3.81, 16.59 1.73 M-0.71 17.83 C4.74 12.39, 9.29 6.46, 16.16 0.18 M1.84 22.45 C7.04 16.8, 10.8 9.89, 21.52 -0.99 M-0.45 23.52 C8.47 14.92, 16.19 4.54, 20.67 -0.93 M-1.2 28.78 C9.03 18.56, 17.22 9.21, 25.26 1.45 M0.82 30.56 C9.97 18.13, 19.61 8.07, 26.35 1.14 M-1 38.5 C7.13 29.92, 12.69 23.52, 33.45 -1.03 M-0.43 37.72 C6.88 28.47, 14.36 20.05, 32.12 0.15 M1.75 40.98 C10.83 31.77, 19.53 19.03, 36.14 1.33 M0.43 42.7 C10.26 30.34, 22.46 17.37, 37.1 1.18 M2.07 49.93 C9.79 38.24, 19.9 26.28, 41.84 -0.64 M0.48 47.94 C11.55 34.62, 24.96 19.82, 43.4 -1.08 M6.05 47.08 C18.98 31.09, 36.15 14.08, 48.96 2.22 M5.47 47.55 C17.07 35.54, 28.31 22.82, 46.56 0.11 M9.8 49.29 C26.67 32.59, 40.41 13.95, 51.86 -1.39 M11.68 47.43 C28.4 28.86, 44.57 9.3, 52.42 -0.11 M15.36 46.99 C23.27 39.5, 34.47 26.97, 56.33 2.09 M16.64 48.9 C30.14 32.99, 43.6 15.95, 57.45 0.19 M23.46 47.38 C35.11 31.42, 51.72 14.76, 65.58 0.26 M20.8 49 C35.32 32.34, 49.98 15.08, 63.67 0.05 M25 47.79 C39.89 32.86, 52.69 17.27, 67.75 0.06 M25.91 48.98 C42.74 28.75, 59.9 10.51, 69.02 0.09 M31.06 48.81 C42.56 34.31, 54.14 24.04, 73.92 0.97 M31.86 48.59 C49.79 29.01, 66 9.62, 74.21 -1.22 M36.39 47.64 C48 39.62, 54.95 28.36, 77.58 0.34 M37.08 48.47 C54.11 28.47, 69 9.5, 79.12 0.93 M41.45 47.29 C54.51 36.53, 64.44 22.03, 84.68 -1.46 M43.43 48.55 C54.3 35.92, 65.13 23.34, 85.66 -0.07 M47.84 49.85 C62.29 34.09, 72.88 16.14, 89.07 0.29 M48.54 48.43 C59.44 33.9, 72.49 19.92, 90.14 0.27 M52.37 49.69 C65.03 35.68, 77.89 22.3, 94.54 -0.12 M54.68 47.71 C65.56 35.32, 77.08 20.76, 96.18 -0.22 M58.52 46.81 C68.95 36.25, 78.36 26.05, 102.31 -1.6 M59.19 48.41 C71.5 32.47, 85.79 16.65, 101.04 0.11 M61.79 48.74 C77.82 31.18, 94.03 13.21, 105.05 1.03 M64.64 48.06 C74.81 35.42, 84.93 23.04, 106.52 -0.97 M68.48 48.08 C83.36 32.09, 96.03 17.9, 110.32 -1.74 M68.52 48.36 C84.46 31.89, 96.76 16.07, 111.33 0.87 M74.5 48.03 C83.83 38.77, 92.21 29.18, 117.98 -0.09 M74.9 47.78 C83.07 36.83, 93.08 26.74, 115.32 -0.41 M78.66 48.32 C94.71 33.08, 105.51 15.21, 122.95 0.61 M80.6 48.69 C90.49 35.17, 101.06 21.76, 121.11 -0.56 M86.22 50.54 C98.09 32.03, 113.3 15.41, 125.96 1.31 M85.64 47.74 C95.46 36.51, 106.92 21.48, 127.76 -0.45 M90.85 47.32 C100.61 36.88, 113.59 23.33, 130.94 -0.71 M90.04 48.23 C101.29 37.18, 110.17 25.36, 133.01 -0.9 M94.18 47.64 C110.29 30.49, 124.22 13.8, 136.49 1.39 M96.25 48.49 C107.92 33.59, 121.36 17.42, 137.62 -0.32 M99.74 50 C108.7 40.17, 119.47 27.9, 141.9 1.28 M102 48.26 C113.36 36.37, 123.77 23.65, 142.25 -0.37 M104.5 47.79 C119.09 32.55, 132.03 14.99, 145.98 1.46 M106.69 49.04 C119.35 33.91, 132.12 19.29, 147.21 1.21 M112.87 46.4 C120.67 35.18, 132.83 25.6, 145.78 6.24 M112.24 48.49 C125.73 33.57, 139.41 16.56, 148.03 6.73 M116.17 48.6 C126.96 35.27, 138.85 21.21, 147.18 13.73 M117.49 48.81 C126.39 37.42, 135.98 26.75, 146.92 13.59 M122.67 47.68 C130.1 37.67, 139.07 30.64, 146.55 20.38 M123.05 49.08 C129.17 40.02, 136.79 33.48, 147.32 20.01 M129.06 48.8 C130.3 45.55, 136.27 37.64, 148.06 26.45 M127.71 47.67 C132.79 40.49, 139.75 33.89, 148.04 25.6 M134.46 46.14 C137.4 41.97, 142.42 38.02, 146.39 29.52 M133.3 48.61 C137.82 44.47, 140.26 38.51, 146.94 32.01 M139.36 48.31 C140.07 44.82, 143.29 41.18, 146.1 37.98 M138.74 48.1 C140.11 45.67, 143.4 42.44, 146.76 37.63 M143.32 47.81 C143.97 47.45, 144.8 45.61, 147.88 44.02 M143.92 48.09 C145.25 46.67, 146.22 45.22, 147.86 43.74" stroke="#ced4da" stroke-width="0.5" fill="none"></path><path d="M-1.55 -1.35 C47.19 0.39, 90.71 -1.58, 144.75 -1.4 M0.48 -0.74 C36.39 0.02, 73.51 0.13, 145.47 0.33 M147.52 -1.96 C144.73 10.17, 143.92 21.28, 145.75 47.39 M146.98 1 C146.54 16.58, 145.8 30.89, 146.27 47.91 M144.71 47.35 C105.17 46.38, 63.84 46.12, 0.48 46.48 M146.49 48.38 C95.77 47.65, 46.46 46.98, -0.97 47.22 M-0.76 47.13 C0.81 30.24, 1.23 13.5, 0.89 0.56 M-0.79 47.1 C-0.57 27.99, -0.02 10.54, -0.63 0.1" stroke="#000000" stroke-width="1" fill="none"></path></g><g transform="translate(195.70831298828125 439.7016143798828) rotate(0 68 11.5)"><text x="68" y="17" font-family="Cascadia, Segoe UI Emoji" font-size="16px" fill="#000000" text-anchor="middle" style="white-space: pre;" direction="ltr">grid-tempalte</text></g><g stroke-linecap="round" transform="translate(10 101.91526794433594) rotate(0 107.5 51)"><path d="M0 0 C0 0, 0 0, 0 0 M0 0 C0 0, 0 0, 0 0 M-0.24 5.61 C1.45 3.93, 2.11 2.76, 4.82 1.13 M-0.37 6.7 C1.28 4.82, 2.59 3.53, 5.06 0.2 M1.64 11.57 C4.92 6.05, 8.43 2.15, 10.33 0.96 M-0.33 12.18 C3.72 7.83, 6.14 3.91, 10.62 -0.15 M1.4 17.08 C5.94 11.86, 12.48 4.95, 14.16 -0.14 M-0.75 18.97 C2.39 15.41, 6.44 10.31, 15.95 0.47 M0.98 24.96 C8.39 16.76, 16.62 6.1, 21.48 -1.09 M-0.52 24.55 C4.31 18.97, 9.28 13.61, 21.2 -0.65 M0.04 29.09 C7.63 22.07, 16.58 8.67, 26.84 0.08 M-0.15 29.76 C7.49 21.83, 13.65 13.99, 26.47 0.22 M-2.14 37.24 C7.68 24.69, 18.32 14.33, 30.85 0.89 M-0.44 37.4 C13.5 21.96, 26.45 7.36, 31.49 0.71 M-0.93 42 C12.58 29.22, 22.55 16.99, 38.02 1.42 M-0.16 42.23 C12.03 28.06, 24.79 14.29, 36.76 0 M-1.11 47.77 C15.55 34.07, 26.47 17.4, 41.34 -0.94 M0.38 48.77 C7.2 39.72, 16.91 29.75, 43.21 0.43 M-1.02 54.24 C11.67 41.66, 23.38 27.25, 48.24 -0.75 M0.23 53.7 C18.14 32.2, 37.72 12.27, 47.29 1.14 M1.45 59.17 C9.95 49.65, 22 37.54, 53.07 -1.77 M0.99 61.5 C14.12 44.62, 30.2 27.39, 52.57 -0.35 M0.7 65.87 C20.74 39.29, 46.93 12.31, 59.16 1.81 M-0.23 66.78 C14.38 50.36, 27 34.24, 58.94 -0.46 M0.7 74.18 C22.08 46.85, 41.85 24.27, 63.26 0.08 M-0.44 72.22 C20.09 49.7, 41.69 23.92, 64.17 0.03 M0.28 79.55 C16.89 61.11, 35.7 41.18, 69.58 -1.78 M-0.34 80.4 C23.76 50.97, 48.34 22.57, 69.07 -0.35 M0.95 84.43 C29.13 53.85, 57.91 20.78, 74.26 -0.83 M0.66 84.16 C22.02 60.47, 43.98 34.3, 75.08 -0.19 M0.92 93.1 C24.68 62.31, 52.96 32.52, 79.4 -1.54 M-0.46 92.28 C21.26 67.57, 41.22 43.12, 79.44 0.49 M-1.06 99.14 C18.37 74.52, 38.19 54.97, 85.55 -1.09 M0.67 97.83 C16.77 76.21, 34.56 55.93, 84.79 -0.2 M0.24 103.68 C34.09 62.41, 68.94 22.77, 89.69 1.4 M0.83 103.24 C32.49 65.32, 62.51 30.09, 90.28 -0.35 M4.43 103.39 C41.58 62.17, 77.42 21.88, 93.74 -0.39 M6.27 103.26 C34.06 69.54, 62.28 37.62, 95.23 -0.64 M9.54 103.54 C32.02 79.45, 55.69 55.08, 102.59 -1.22 M11.87 102.82 C35.57 76.18, 59.03 48.08, 100.23 -0.73 M15.13 101.68 C38.92 76.47, 63.79 48.02, 104.55 -1.56 M17.39 103.63 C45.86 69.08, 76.05 35.06, 106.77 0.41 M22.21 103.66 C49.78 66.72, 82.75 32.94, 109.4 -0.79 M22.47 103.02 C51.25 70.04, 77.95 38.65, 110.38 0.07 M27.23 102.41 C52.3 70.73, 78.86 44.22, 116.18 2.23 M27.78 103.66 C49.74 77.57, 72.33 50.78, 115.57 0.2 M34.6 104.62 C68.57 62.15, 98.93 25.75, 122.53 0.2 M32.66 103.08 C52.91 79.05, 74 56.44, 122.26 -0.7 M38.65 101.56 C66.18 71.49, 96.31 36.54, 125.92 0.38 M38.22 103.37 C64.24 72.21, 91.1 41.85, 126.18 0.28 M44.18 103.82 C69.74 71.12, 98.91 37.35, 131.53 0.09 M42.95 102.79 C64.81 77.69, 85.42 53.56, 131.84 0.81 M48.43 104.02 C73.07 74.24, 97.3 48, 138.23 1.45 M47.91 103.36 C80.53 65.86, 111.61 29.07, 137.63 1.01 M53.57 103.58 C81.12 72.28, 109.64 39.82, 143.07 -1.87 M54.28 102.52 C72.46 80.9, 91.09 59.88, 143.5 -1.01 M60.73 103.5 C85.98 75.08, 113.43 45.05, 147.32 2.12 M58.52 102.76 C93.21 62.3, 127.76 24.12, 148.04 0.56 M66.49 103.07 C100.95 62.99, 134.51 24.01, 152.93 -1.56 M64 103.21 C88.23 74.03, 111.59 47.38, 154.1 0.8 M68.85 102.64 C104.55 63.07, 140.97 23.09, 160.55 -0.06 M70.12 103.29 C103.71 62.71, 137.34 24.33, 157.96 -0.31 M75.79 102.34 C96.47 77.69, 118.1 54.39, 166.03 -1.99 M75.93 102.33 C109.63 62.4, 141.82 24.74, 164.91 -0.25 M79.2 100.91 C97.15 81.68, 117.17 60.53, 170.4 1.35 M79.25 103.21 C114.49 62.79, 150.17 21.75, 170.4 -0.32 M87.45 102.33 C118.59 62.03, 152.01 24.05, 176.4 -1.3 M86.31 101.95 C121.41 62.55, 157.09 22.65, 175.64 -0.06 M91.33 102.69 C112.11 78.89, 130.48 53.67, 178.47 1.63 M90.87 103.36 C121.33 67.06, 152.54 32, 180.78 0.41 M96.58 100.84 C125.6 68.74, 157.83 31.32, 187.23 -0.75 M95.83 102.67 C131.07 61.02, 166.31 19.48, 186.45 0 M101.89 101.21 C134.62 61.63, 168.62 22.86, 191.5 0.98 M102.37 103.13 C120.94 80.31, 140.73 59.23, 190.97 0.3 M107.4 100.53 C139.71 64.96, 170.53 26.84, 194.79 -0.72 M107.6 101.67 C137.51 66.28, 169 32.28, 195.92 -0.85 M112.68 102.6 C136.57 78.3, 158.18 50.49, 201.33 0.44 M111.61 102.48 C130.81 80.66, 150.64 60.59, 201.28 0.34 M117.27 100.98 C141.92 76.66, 164.13 48.66, 208.51 -0.72 M117.18 102.69 C140.39 77.75, 160.43 53.28, 207.08 -0.85 M122.62 101.83 C145.79 76.97, 169.02 52, 212.94 1.94 M122.86 101.94 C143.88 80.02, 162.95 56.32, 212.46 0.07 M128 103.35 C158.46 65.76, 189.18 33.5, 217.61 2.12 M127.92 102.78 C157.45 69.18, 186.61 35.01, 216.08 1.85 M131.75 102.78 C151.51 78.83, 173.21 58.82, 217.89 7.83 M132.82 102.57 C150.68 83.69, 167.6 63.82, 215.13 7.18 M136.53 103.45 C163.71 70.64, 191.87 42.96, 217.89 15.1 M137.55 103.32 C166.85 71.45, 194.29 38.52, 216.94 13.2 M145.23 102.19 C166.07 75.51, 188.43 50.95, 218.01 18.77 M144.65 102.04 C168.32 73.44, 193.59 47.11, 215.54 19.3 M150.91 104.19 C165.23 85.67, 178.28 67.35, 215.32 26.76 M148.3 102.46 C168.09 81.96, 187.06 59.19, 217.21 26.09 M153.35 101.67 C169.91 86.48, 186.29 66.28, 217.6 30.79 M153.95 102.55 C172.51 82.43, 189.36 62.94, 215.66 31.15 M161 104.65 C173.25 87.9, 185.27 73.67, 215.16 37.86 M159.46 102.21 C179 81.65, 198.01 58.81, 216.98 37.3 M163.53 103.71 C174.73 88.35, 185.96 78.78, 218.13 45.31 M164.73 102.86 C182.82 83.67, 200.47 63.54, 216.02 44.54 M169.79 104.74 C179.09 93.33, 189.34 81.16, 217.76 51.75 M170.79 103.11 C179.56 91.7, 190.12 80.74, 216.8 49.9 M176.32 103.67 C184.22 91.82, 196.07 77.15, 218.22 56.63 M175.46 102.31 C186.77 90.09, 197.4 77.37, 217.52 55.83 M181.36 101.27 C190.14 92.85, 201.02 79.92, 214.64 62.93 M180.46 102.28 C189.01 94.23, 197.54 84.04, 215.65 61.79 M185.37 101.81 C193.23 95.95, 202.02 85.82, 216.94 68.69 M187.04 102.81 C195.42 92.53, 203.62 81.83, 216.9 68.69 M192.96 103.91 C199.73 94.45, 208.42 82.72, 215.09 74 M191.1 103.39 C196.4 95.8, 202.51 90.1, 215.63 74.68 M197.48 103.22 C202.23 97.23, 209.04 86.9, 216.44 80.03 M196.82 102.79 C203.83 96.27, 209.15 88.5, 215.26 81.11 M202.94 103.22 C206.86 99.53, 209.11 92.05, 217.52 84.46 M201.77 102.69 C204.15 99.33, 208.73 96.72, 217.25 86.84 M208.28 102.09 C209.99 99.97, 212.01 96.77, 217.44 92.43 M208.28 102.99 C209.66 100.33, 211.75 97.22, 216.23 92.15 M212.25 102.75 C213.72 102.03, 214.52 100.49, 216.23 99.12 M212.55 102.84 C213.8 101.52, 214.84 100.23, 216.23 99.23" stroke="#ced4da" stroke-width="0.5" fill="none"></path><path d="M0.48 -1.45 C65.97 -1.18, 134.71 -0.32, 216.61 -0.45 M0.6 -0.86 C68.9 1.11, 138.05 1.71, 214.51 -0.87 M215.43 1 C215.65 28.58, 212.84 52.75, 213.84 103 M215.92 -0.12 C213.97 31.65, 214.21 63.36, 214.18 102.05 M216.67 101.08 C158.04 100.68, 104.36 99.48, -1.22 101.33 M214.42 101.61 C169.26 102.69, 124.34 101.39, 0.34 102.69 M1.39 102.08 C1.42 68.55, -0.88 34.94, 1.4 1.32 M0.81 101.73 C0.99 67.6, 0.57 31.03, 0.18 0.13" stroke="#000000" stroke-width="1" fill="none"></path></g><g transform="translate(15 106.91526794433594) rotate(0 102.5 46)"><text x="102.5" y="17" font-family="Cascadia, Segoe UI Emoji" font-size="16px" fill="#000000" text-anchor="middle" style="white-space: pre;" direction="ltr">grid-row-gap(old)</text><text x="102.5" y="40" font-family="Cascadia, Segoe UI Emoji" font-size="16px" fill="#000000" text-anchor="middle" style="white-space: pre;" direction="ltr">grid-column-gap(old)</text><text x="102.5" y="63" font-family="Cascadia, Segoe UI Emoji" font-size="16px" fill="#000000" text-anchor="middle" style="white-space: pre;" direction="ltr">row-gap</text><text x="102.5" y="86" font-family="Cascadia, Segoe UI Emoji" font-size="16px" fill="#000000" text-anchor="middle" style="white-space: pre;" direction="ltr">column-gap</text></g><g stroke-linecap="round"><g transform="translate(343.85992431640625 157.95661648349653) rotate(0 -58.70343586223987 1.3822965893037917)"><path d="M0 0 C-19.57 0.46, -97.84 2.3, -117.41 2.76 M0 0 C-19.57 0.46, -97.84 2.3, -117.41 2.76" stroke="#000000" stroke-width="1" fill="none"></path></g><g transform="translate(343.85992431640625 157.95661648349653) rotate(0 -58.70343586223987 1.3822965893037917)"><path d="M-89.47 -8.16 C-96.04 -5.59, -102.62 -3.01, -117.41 2.76 M-89.47 -8.16 C-97.72 -4.93, -105.97 -1.7, -117.41 2.76" stroke="#000000" stroke-width="1" fill="none"></path></g><g transform="translate(343.85992431640625 157.95661648349653) rotate(0 -58.70343586223987 1.3822965893037917)"><path d="M-88.98 12.36 C-95.67 10.1, -102.37 7.84, -117.41 2.76 M-88.98 12.36 C-97.38 9.52, -105.78 6.69, -117.41 2.76" stroke="#000000" stroke-width="1" fill="none"></path></g></g><g stroke-linecap="round"><g transform="translate(475.8874439152403 194.41617032224383) rotate(0 44.14706744049806 46.68902694846744)"><path d="M0 0 C14.72 15.56, 73.58 77.82, 88.29 93.38 M0 0 C14.72 15.56, 73.58 77.82, 88.29 93.38" stroke="#000000" stroke-width="1" fill="none"></path></g><g transform="translate(475.8874439152403 194.41617032224383) rotate(0 44.14706744049806 46.68902694846744)"><path d="M61.47 79.94 C67.07 82.75, 72.68 85.56, 88.29 93.38 M61.47 79.94 C68.07 83.25, 74.68 86.56, 88.29 93.38" stroke="#000000" stroke-width="1" fill="none"></path></g><g transform="translate(475.8874439152403 194.41617032224383) rotate(0 44.14706744049806 46.68902694846744)"><path d="M76.38 65.84 C78.87 71.6, 81.36 77.35, 88.29 93.38 M76.38 65.84 C79.31 72.62, 82.25 79.4, 88.29 93.38" stroke="#000000" stroke-width="1" fill="none"></path></g></g><g stroke-linecap="round"><g transform="translate(261.6511372897586 367.5426936553457) rotate(0 -0.050014049252638415 21.436562626431396)"><path d="M0 0 C-0.02 7.15, -0.08 35.73, -0.1 42.87 M0 0 C-0.02 7.15, -0.08 35.73, -0.1 42.87" stroke="#000000" stroke-width="1" fill="none"></path></g><g transform="translate(261.6511372897586 367.5426936553457) rotate(0 -0.050014049252638415 21.436562626431396)"><path d="M15 0.03 C9.81 0.02, 4.62 0.01, 0 0 M15 0.03 C11.05 0.03, 7.11 0.02, 0 0" stroke="#000000" stroke-width="1" fill="none"></path></g><g transform="translate(261.6511372897586 367.5426936553457) rotate(0 -0.050014049252638415 21.436562626431396)"><path d="M-15 -0.03 C-9.81 -0.02, -4.62 -0.01, 0 0 M-15 -0.03 C-11.05 -0.03, -7.11 -0.02, 0 0" stroke="#000000" stroke-width="1" fill="none"></path></g></g><g stroke-linecap="round"><g transform="translate(455.9328688824528 325.39004680168625) rotate(0 -27.641142982014628 0.3581836650967034)"><path d="M0 0 C-9.21 0.12, -46.07 0.6, -55.28 0.72" stroke="#000000" stroke-width="1.5" fill="none" stroke-dasharray="8 9"></path></g></g><g stroke-linecap="round" transform="translate(1013.9298095703125 370.65809631347656) rotate(0 100.5 24.5)"><path d="M-0.12 -1.24 C65.85 2.12, 130.43 3.23, 200.85 -1.49 M202.33 -1.86 C202.31 13.53, 202.52 27.77, 202.39 48.37 M202.76 48.53 C147.95 49.76, 97.56 48.57, -1.5 50.12 M-1.65 50.9 C-0.83 37.15, 1.65 23.39, -1.29 -0.96" stroke="#000000" stroke-width="1.5" fill="none" stroke-dasharray="8 9"></path></g><g transform="translate(1018.9298095703125 377.15809631347656) rotate(0 95.5 18)"><text x="0" y="15" font-family="Helvetica, Segoe UI Emoji" font-size="16px" fill="#000000" text-anchor="start" style="white-space: pre;" direction="ltr">1、定义 grid item 名称</text><text x="0" y="33" font-family="Helvetica, Segoe UI Emoji" font-size="16px" fill="#000000" text-anchor="start" style="white-space: pre;" direction="ltr">2、上面两兄弟的简写形式</text></g><g stroke-linecap="round"><g transform="translate(1009.2162259527997 402.0662315607276) rotate(0 -25.30950021766523 0.1599595263632807)"><path d="M0 0 C-8.44 0.05, -42.18 0.27, -50.62 0.32 M0 0 C-8.44 0.05, -42.18 0.27, -50.62 0.32" stroke="#000000" stroke-width="1" fill="none"></path></g></g><g stroke-linecap="round" transform="translate(481.05987548828125 403.8333282470703) rotate(0 99.5 23)"><path d="M-0.13 0.61 C59.79 -0.57, 117.6 2.24, 198.84 0.34 M200.95 -1.43 C197.91 11.34, 199.18 23.05, 198.3 47.85 M200.35 47.93 C146.34 44.17, 95.8 43.32, 1.99 47.36 M0.88 44.43 C1.81 30.73, 1.29 12.66, -0.25 -1.42" stroke="#000000" stroke-width="1.5" fill="none" stroke-dasharray="8 9"></path></g><g transform="translate(486.05987548828125 417.8333282470703) rotate(0 94.5 9)"><text x="0" y="14" font-family="Helvetica, Segoe UI Emoji" font-size="16px" fill="#000000" text-anchor="start" style="white-space: pre;" direction="ltr">引用 grid-area 定义的名称</text></g><g stroke-linecap="round"><g transform="translate(559.361629586235 394.7218603042993) rotate(0 -0.4427142647588198 -19.422603683563295)"><path d="M0 0 C-0.15 -6.47, -0.74 -32.37, -0.89 -38.85 M0 0 C-0.15 -6.47, -0.74 -32.37, -0.89 -38.85" stroke="#000000" stroke-width="1" fill="none"></path></g></g><g stroke-linecap="round" transform="translate(103.744140625 535.9309234619141) rotate(0 180 32)"><path d="M-0.37 1.11 C87.12 -3.22, 174.38 -2.9, 361.23 0.3 M359.69 1.3 C359.85 16.19, 358.07 30.22, 358.27 64.63 M360.07 64.17 C239.53 62.35, 117.92 63.5, -1.14 64.68 M0.82 65.12 C-0.82 47.68, 2.26 30.19, 0.42 -0.33" stroke="#000000" stroke-width="1.5" fill="none" stroke-dasharray="8 9"></path></g><g transform="translate(108.744140625 549.4309234619141) rotate(0 175 18)"><text x="0" y="15" font-family="Helvetica, Segoe UI Emoji" font-size="16px" fill="#000000" text-anchor="start" style="white-space: pre;" direction="ltr">1、上面两兄弟的简写形式</text><text x="0" y="33" font-family="Helvetica, Segoe UI Emoji" font-size="16px" fill="#000000" text-anchor="start" style="white-space: pre;" direction="ltr">2、上面两兄弟及 grid-template-areas 的简写形式</text></g><g stroke-linecap="round"><g transform="translate(257.26489091320354 523.9881477325714) rotate(0 -0.351050591911644 -20.351169583157343)"><path d="M0 0 C-0.12 -6.78, -0.59 -33.92, -0.7 -40.7 M0 0 C-0.12 -6.78, -0.59 -33.92, -0.7 -40.7" stroke="#000000" stroke-width="1" fill="none"></path></g></g><g stroke-linecap="round" transform="translate(13.189834594726562 290.1910705566406) rotate(0 55 24)"><path d="M0 0 C0 0, 0 0, 0 0 M0 0 C0 0, 0 0, 0 0 M0.28 6.87 C2.13 3.86, 3.97 2.14, 5.49 0.46 M-0.04 6.25 C1.8 4.58, 2.82 2.97, 4.74 0.44 M-0.57 12.36 C4.85 9.84, 5.74 4.24, 11.51 0.41 M0.64 12.2 C3.94 6.86, 7.47 2.45, 10.5 -0.8 M0.54 17.95 C5.99 12.88, 11.13 4.64, 14 -0.76 M0.55 19.21 C6.01 11.17, 10.39 5.05, 14.66 0.24 M-0.6 22.48 C8.41 15.78, 14.86 5.98, 22.31 -0.42 M0.02 23.08 C5.17 17.67, 9.99 11.65, 21.74 0.31 M1.33 30.96 C10.64 20.11, 18.64 9.6, 25.49 -1.61 M0.93 30.35 C8.25 21.83, 15.46 12.73, 25.68 -0.12 M0.02 37.13 C8.74 28.24, 18.73 17.11, 33.7 0.09 M-1.23 36.85 C8.95 25.69, 18.66 16.82, 32.6 0.44 M-0.14 41.25 C12.55 25.7, 26.67 11.29, 37.71 2.11 M0.57 42.27 C12.44 28.63, 22.31 15.69, 37.26 0.62 M-0.87 47.16 C12.87 33.81, 25.89 22.53, 42.59 0.46 M1.3 47.91 C11.78 36.12, 22.77 24.02, 42.07 0.35 M5.05 50.2 C14.25 37.48, 22.82 28.58, 46.98 -0.83 M6.22 49.39 C20.31 31.3, 37.01 12.47, 47.6 1.21 M12.53 48.55 C19.76 37.76, 29.03 29.17, 52.86 -0.17 M10.84 48.73 C24.47 33.32, 39.37 17.96, 53.54 0.61 M15.8 49.94 C29.58 35.56, 39.7 17.8, 56.8 -0.91 M15.79 47.79 C32.26 28.49, 47.88 9.34, 57.26 0.06 M20.92 47.12 C31.82 35.78, 41.08 22.44, 63.69 -1.88 M22.63 48.51 C37.78 29.29, 53.46 11.6, 64.77 -0.57 M25.03 47.42 C41.29 29.88, 57.73 10.63, 69.99 0.16 M26.29 49.21 C38.21 34.74, 49.12 22.08, 69.22 -0.81 M34.09 46.17 C44.68 33.42, 58.32 22.21, 73.48 -0.02 M32.11 48.77 C43.98 34.36, 55.19 21.25, 73.9 0.64 M38.14 48.29 C46.43 38.97, 55.18 27.81, 80.56 1.4 M38.35 48.98 C48.15 37.32, 56.57 25.54, 78.78 0.23 M41.06 49.72 C59.54 30.19, 72.53 10.8, 83.9 -1.2 M43.12 48.66 C53.91 36.28, 62.47 25.14, 85.45 -0.3 M47.8 46.96 C60.12 37.66, 71.15 23.61, 89.8 -1.41 M48.98 48.05 C60.3 34.11, 72.35 20.67, 89.65 0.45 M54.14 46.55 C62.61 38.03, 73.34 24.51, 95.85 0.74 M53.86 48.95 C66.53 35.21, 77.36 21.41, 96.3 -0.32 M57.92 46.58 C72.46 34.85, 84.13 21.55, 102.25 0.26 M59.59 49.01 C69.01 38.06, 78.76 26.92, 99.92 0.74 M64.18 46.93 C77.03 32.88, 86.19 20.61, 105.5 0.7 M64.24 48.77 C78.04 33.42, 91.85 15.82, 105.71 -0.71 M67.65 47.04 C77.3 35.27, 89.74 27.3, 109.04 0.43 M69.92 48.07 C85.26 30.36, 100.05 13.12, 111.36 0.38 M75.3 47.65 C85.45 39.49, 94.31 26.83, 110.35 5.13 M74.53 48.64 C86.63 34.25, 97.72 22.01, 111.42 5.66 M79.41 49.01 C93.52 33.13, 103.26 19.3, 112.02 11.71 M80.12 49.04 C86.77 40.24, 92.73 34.14, 111.63 12.08 M84.86 48.47 C93.39 40.67, 96.36 34.53, 109.71 17.67 M85.4 48.96 C93.2 39.17, 101.22 30.52, 110.11 19.98 M90.86 49.88 C96.14 38.82, 105.49 34.09, 111.31 25.54 M90.71 47.4 C94.1 43.86, 97.97 39.38, 111.76 24.28 M94.17 49.18 C99.59 45.14, 104.87 36.17, 111.41 32.68 M94.55 48.99 C100.04 42.27, 106.47 36.28, 110.06 31.04 M102.47 47.91 C102.84 44.35, 105.73 43.83, 112.09 37.32 M100.72 48.21 C104.52 43.95, 107.95 40.26, 111.26 36.51 M106.72 49.18 C108.16 46.86, 109.17 44.67, 111.18 43.83 M106.14 48.24 C107.36 47.06, 108.54 46.26, 110.98 43.12" stroke="#ced4da" stroke-width="0.5" fill="none"></path><path d="M-1.72 -1.44 C23.7 -0.7, 46.51 -1.16, 110.36 -0.77 M0.47 0.69 C28.36 1.11, 56.52 1.02, 110.99 0.75 M111.33 1.52 C108.31 18.74, 107.97 37.06, 108.21 48.19 M109.99 -0.01 C109.67 14.67, 110.81 30.95, 110.81 48.16 M108.6 47.64 C69.45 47.46, 30.67 48.19, 1.29 48.87 M109.37 48.62 C81.72 46.92, 52.86 47.56, -0.83 47.11 M-1.79 47.56 C-1.58 28.25, -1.43 12.3, -1.96 -1.14 M-0.21 47.22 C-0.07 32.85, 1.02 16.56, 0.99 0.91" stroke="#000000" stroke-width="1" fill="none"></path></g><g transform="translate(18.189834594726562 302.6910705566406) rotate(0 50 11.5)"><text x="50" y="17" font-family="Cascadia, Segoe UI Emoji" font-size="16px" fill="#000000" text-anchor="middle" style="white-space: pre;" direction="ltr">grid-gap</text></g><g stroke-linecap="round"><g transform="translate(64.55482453974923 218.96999254934985) rotate(0 -0.16622084824734884 29.76014050729077)"><path d="M0 0 C-0.06 9.92, -0.28 49.6, -0.33 59.52 M0 0 C-0.06 9.92, -0.28 49.6, -0.33 59.52" stroke="#000000" stroke-width="1" fill="none"></path></g><g transform="translate(64.55482453974923 218.96999254934985) rotate(0 -0.16622084824734884 29.76014050729077)"><path d="M15 0.08 C9.48 0.05, 3.96 0.02, 0 0 M15 0.08 C10.61 0.06, 6.23 0.03, 0 0" stroke="#000000" stroke-width="1" fill="none"></path></g><g transform="translate(64.55482453974923 218.96999254934985) rotate(0 -0.16622084824734884 29.76014050729077)"><path d="M-15 -0.08 C-9.48 -0.05, -3.96 -0.02, 0 0 M-15 -0.08 C-10.61 -0.06, -6.23 -0.03, 0 0" stroke="#000000" stroke-width="1" fill="none"></path></g></g><g stroke-linecap="round" transform="translate(914.9432220458984 164.35641479492188) rotate(0 89 28)"><path d="M0 0 C0 0, 0 0, 0 0 M0 0 C0 0, 0 0, 0 0 M-0.72 6.26 C1.93 3.75, 4.42 1.64, 4.43 -0.26 M-0.16 6.01 C1.46 4.84, 3.23 2.98, 5.38 0.71 M-0.57 13.61 C2.61 9.54, 5.03 7.29, 10.31 -1 M0.57 11.67 C3.14 7.74, 7.04 3.32, 11.24 -0.19 M-1.7 17.49 C6.04 12, 9.06 8.52, 16.61 -1.55 M0.06 18.59 C3.91 13.34, 10.08 7.4, 16.04 0.59 M0.52 24.3 C6.66 16.24, 14.06 11.95, 19.87 0.56 M-0.04 23.29 C4.47 18.83, 9.43 14.42, 21.41 -0.86 M-0.71 31.24 C8.23 21.57, 13.46 15.04, 26.2 0.35 M0.82 29.6 C6.07 22.5, 12.6 16.21, 25.42 0.27 M1.64 38.44 C8.5 23.83, 21.92 12.26, 32.63 -0.9 M0.07 37.54 C9.69 25.22, 18.77 15.38, 31.39 0.41 M-1.18 43.06 C11.02 33.03, 18.4 18.72, 38.27 1.67 M-0.06 41.72 C12.86 26.99, 26.7 13.29, 36.51 -0.15 M0.82 49.08 C16.26 33.43, 30.61 13.81, 42.06 -2.08 M-0.8 49.89 C17.77 29.58, 34.05 10.06, 42.9 -1.02 M1.44 53.49 C15.87 36.68, 32.99 19.48, 46 0.31 M-0.49 53.86 C11.8 40.18, 24.57 26.25, 48.07 0.54 M4.19 56.84 C23.14 36.46, 40.6 14.68, 52.93 1.29 M2.58 58.8 C17.46 39.28, 33.98 22.65, 53.91 -0.13 M6.14 59.49 C22.48 43.45, 34.52 26.65, 57.78 -1.08 M7.21 58.23 C24.81 40.43, 39.77 21, 57.22 1.17 M12.42 59.34 C27.74 39.59, 44.66 22.64, 65.29 -1.76 M13.1 58.55 C31.36 37.18, 48.25 17.87, 64.72 -0.28 M20.02 59.62 C31.68 46.87, 40.56 33.54, 69.28 0.9 M17.91 57.5 C31.94 42.69, 44.36 27.24, 69.5 0.19 M24.28 58.05 C35.87 45.69, 43.64 34.35, 74.41 -1.45 M22.91 58.15 C35.62 43.8, 48.97 29.01, 74.05 -1.2 M30.1 56.43 C41.65 43.9, 54.62 29.44, 79.41 -1.59 M29.54 59.2 C48.64 35.01, 66.8 12.67, 78.78 -0.32 M33.7 58.1 C47.95 43.12, 60.15 28.83, 86.83 0.73 M34.38 57.18 C49.39 41.37, 62.51 24.04, 84.97 -0.99 M37.9 57.46 C57.57 35.36, 75.96 14.56, 90.32 0.34 M39.67 58.74 C56.13 39.46, 72.28 21.05, 89.33 -0.65 M45.83 57.42 C56.36 45.83, 66.46 31.82, 96.34 0.08 M44.29 56.86 C59.85 42.36, 73.18 26.57, 94.93 -0.15 M48.2 58.97 C68.62 38.74, 85.58 18.88, 99.44 0.35 M50.26 59.13 C64.84 41.26, 79.61 22.56, 99.78 0.52 M57.07 58.64 C73.38 37.93, 92.86 17.75, 107.97 0.61 M55.76 58 C65.72 44.59, 77.05 32.12, 105.76 0.47 M61.06 58 C75.24 42.63, 89.78 26.04, 111.41 0.85 M61.63 59.01 C73.88 41.25, 88.29 24.83, 111.16 0.16 M66.45 57.92 C77.04 42.52, 90.95 28.73, 117.36 -0.14 M65.67 57.82 C79.43 42.03, 92.08 26.9, 117.01 0.4 M71.74 56.32 C89.52 38.04, 108.46 15.93, 122.15 0.98 M70.48 58.65 C82.11 45.22, 93.69 32.65, 122.85 0.84 M78.16 57.92 C91.67 40.98, 102.84 28.13, 125.34 1.85 M77.21 58.88 C93.55 36.98, 112.38 17.27, 126.55 0.52 M82.78 56.46 C103.58 35.57, 123.21 13.08, 130.82 0.65 M81.9 57.95 C93.26 45.38, 104.23 33.73, 132.61 0.77 M85.73 60.28 C104.12 42.55, 118.86 24.23, 138.05 1.61 M87.99 57.66 C104.08 39.01, 121.62 17.05, 136.69 -0.41 M91.98 57.7 C105.73 44.23, 117.68 30.28, 143.83 0.5 M93.32 58.41 C108.82 38.91, 126.21 20.95, 142.59 -0.22 M98.56 58.65 C114.75 40.11, 132.73 18.77, 149.53 2.16 M98.64 57.48 C112.9 41.29, 129.54 22.18, 148.76 1.27 M104.36 56.07 C119.94 37.53, 139.43 15.75, 154.84 -2.05 M102.58 57.19 C123.28 36.6, 140.92 14.62, 153.29 -0.68 M109.31 59.45 C126.97 38.93, 147.11 15.69, 157.05 -0.71 M108.19 59.29 C121.32 42.97, 133.4 28.82, 158.44 0.82 M112.21 56.33 C131.36 39.5, 144.56 20.16, 164.76 -0.86 M113.88 57.05 C133.49 36.62, 150.24 14.96, 163.61 0.47 M117.9 57.82 C131.43 44.29, 143.73 28.41, 169.16 1.52 M118.01 57.67 C134.99 39.61, 151.04 20.02, 169.83 1.13 M123.06 56.03 C138.49 40.64, 150.73 27.63, 173.75 -1.02 M123.8 58.39 C137.71 44.12, 149.57 29.36, 174.81 -0.06 M131.47 57.66 C144.2 44.78, 155.61 28.42, 180.97 2.88 M129.88 58.83 C142.3 43.19, 156.75 28.94, 178.72 1.47 M135.71 57.43 C153.36 38.91, 172.38 18.53, 178.66 8.66 M135.28 57.21 C149.51 42.44, 161.82 24.74, 179.96 7.61 M140.45 59.63 C151.57 45.06, 164.73 27.77, 178.36 11.97 M139.92 58.6 C155.16 41.83, 169.24 24.18, 178.73 12.56 M144.18 59.56 C156.67 42.33, 168.63 30.97, 180.77 17.58 M145.65 57.17 C154.3 48.31, 163.28 36.15, 179.71 18.41 M150.49 57.12 C156.81 53.42, 162.87 45.22, 180.77 25 M150.67 58.44 C160.62 48.3, 168.92 38.01, 178.28 25.59 M157.76 58.21 C160.67 52.33, 166.88 47.97, 177.93 30.34 M156.61 57.53 C164.64 49.71, 172.41 39.1, 180.37 31.39 M162.5 56.3 C167.32 51.24, 169.77 45.75, 179.06 35.99 M160.99 57.42 C166.96 52.47, 171.57 46.3, 178.23 38.45 M168.9 57.89 C168.85 52.94, 172.47 48.67, 179.31 44.79 M166.28 57.21 C170.58 54.16, 174.7 47.73, 178.77 43.74 M172.38 59.2 C173.97 56.01, 174.59 55.61, 178.22 49.91 M172.12 58.2 C174.44 55.45, 176.96 53.33, 179.61 49.33" stroke="#ced4da" stroke-width="0.5" fill="none"></path><path d="M-1.65 -0.54 C44.38 -2.76, 87.74 -3.36, 176.73 1.74 M0.67 0.8 C55.07 -1.42, 109.68 0.01, 178.22 -0.47 M176.56 0.36 C176.76 20.7, 176.77 42.81, 178.19 57.02 M177.45 -0.58 C178.12 12.95, 177.61 27.28, 178.34 56.85 M176.95 57.86 C120.3 56.95, 64.93 53.29, 1.07 55 M178.98 55.35 C125.12 54.68, 72.75 54.94, -0.57 55.3 M-1.52 55.51 C-0.05 35.47, -1.52 14.98, -1.85 0.63 M-0.35 56.13 C0.29 34.87, -0.13 11.87, 0.83 -0.16" stroke="#000000" stroke-width="1" fill="none"></path></g><g transform="translate(919.9432220458984 169.35641479492188) rotate(0 84 23)"><text x="84" y="17" font-family="Cascadia, Segoe UI Emoji" font-size="16px" fill="#000000" text-anchor="middle" style="white-space: pre;" direction="ltr">grid-column-start</text><text x="84" y="40" font-family="Cascadia, Segoe UI Emoji" font-size="16px" fill="#000000" text-anchor="middle" style="white-space: pre;" direction="ltr">grid-column-end</text></g><g stroke-linecap="round" transform="translate(746.8892059326172 280.5419616699219) rotate(0 57.5 16.5)"><path d="M0 0 C0 0, 0 0, 0 0 M0 0 C0 0, 0 0, 0 0 M0.15 6.53 C1.56 5.04, 3.85 2.84, 4.6 -0.4 M-0.57 6.25 C1.5 5.09, 2.9 2.86, 4.91 0.65 M-0.35 12.95 C2.61 10.45, 3.86 6.64, 11.84 -1.56 M-0.24 11.69 C4.33 7.47, 8.25 2.18, 11.27 0.41 M-0.88 20.43 C2.95 13.38, 6.26 8.11, 16.08 -1.24 M-0.03 18.8 C3.47 15.69, 6.26 10.86, 14.77 1.13 M1.03 23.86 C4.35 18.17, 10.29 12.86, 19.77 -1.71 M0.18 24.4 C7.84 15.21, 16.28 6.3, 22.05 0.39 M1.72 31.11 C5.85 22.95, 16.33 13.26, 25.56 -0.89 M0.31 30.45 C4.61 24.5, 10.88 18.95, 26.44 0.81 M2.59 34.98 C12.24 24.21, 20.24 14.97, 30.98 -1.14 M0.91 34.5 C9.32 26.69, 16.47 17.29, 32.62 -0.33 M8.95 35.25 C15.98 23.23, 26.07 12.25, 34.98 0.91 M6.76 34.63 C18.15 22.47, 27.78 9.96, 37.7 0.77 M11.61 33.91 C17.71 25.15, 26.79 18.13, 42.69 0.8 M13.14 33.99 C20.29 26.65, 27.17 17.36, 42.83 0.19 M18.79 33.41 C25 24.37, 36.66 15.94, 47.63 0.81 M18.6 34.2 C27.44 23.58, 38.32 11.97, 48.07 0.03 M23.17 34.87 C30.77 27.8, 36.38 21.9, 52.53 0.4 M22.67 34.93 C33.34 21.64, 44.94 9.4, 54.01 0.16 M29.94 33.4 C38.17 25.17, 43.87 14.11, 59.53 -1.26 M28.72 34.37 C37.87 22.69, 48.92 9, 58.69 -0.02 M34.32 32.78 C38.91 27.32, 49.39 18.3, 62.93 1.19 M34.18 35.23 C41.67 25.03, 50.63 15.59, 63.13 0.15 M39.11 36.25 C48.11 24.02, 60.26 11.12, 67.45 1.84 M38.89 34.73 C51.07 20.97, 62.04 6.46, 68.33 0.37 M42.81 33.78 C53.26 20.74, 64.69 10.54, 73.02 -2.04 M43.91 35.13 C53.56 23.35, 65.45 11.13, 74.76 -0.9 M49.82 36.51 C56.17 25.18, 64.51 16.74, 80.93 0.54 M48.53 35.47 C58.17 25.18, 65.42 16.23, 79.37 -0.65 M55.2 35.29 C65.05 24.1, 74.09 13.06, 86.7 0.74 M55.76 35.29 C61.98 24.51, 70.3 16.11, 85.1 0.36 M58.95 35.2 C71.66 20.19, 84.05 8.74, 90.24 0.48 M59.34 34.43 C68.38 25.23, 75.85 16.41, 89.85 -0.57 M66.74 33.98 C75.64 23.02, 86.46 9.29, 96.64 -1.18 M65.25 34.72 C74.95 24.7, 82.33 15.72, 95.99 -0.38 M72.16 36.6 C79.43 24.41, 84.56 17.81, 102.41 -1.42 M70.67 33.8 C80.39 23.91, 88.69 14.56, 101.4 -0.49 M77.47 33.74 C82.64 23.92, 91.77 15.73, 108.24 0.74 M75.52 34.8 C87.86 21.39, 97.17 8.11, 106.89 -1.05 M79.85 36.27 C93.81 23.18, 102.27 7.16, 113.22 -1 M81.46 34.15 C90.42 25.57, 97.93 14.49, 111.28 0.83 M88.16 33.75 C97.34 19.98, 108.09 7.62, 114.32 -0.22 M87.34 35.29 C92.12 27.05, 99.23 19.28, 115.55 0.31 M93.17 32.97 C100.99 24.91, 109.69 14.81, 117.28 7.95 M92.29 34.45 C96.89 29.09, 103.53 20.82, 116.49 5.84 M96.34 32.41 C102.57 28.49, 107.97 20.56, 113.94 12.04 M97.11 34.35 C103.31 26.64, 109.72 19.75, 114.82 13.6 M104.04 32.75 C106.79 28.04, 110.07 23.42, 117.2 18.56 M103.37 34.01 C106.25 29.47, 112.42 24.32, 116.86 19.04 M108.18 34.93 C109.78 30.84, 111.64 28.08, 115.9 25.23 M108.51 34.39 C109.87 32.15, 111.92 30.49, 116.07 25.35 M113.02 34.28 C114.17 33.95, 114.9 32.69, 115.48 31.73 M112.9 34.61 C113.95 33.77, 114.59 32.68, 115.79 31.75" stroke="#ced4da" stroke-width="0.5" fill="none"></path><path d="M-0.25 1.65 C24.04 -2.08, 50.48 0.13, 113.27 1.72 M0.3 0.36 C36.52 0.27, 75.13 0.27, 114.79 0.73 M115.55 1.02 C115.17 8.67, 115.76 19.12, 113.06 33.12 M114.24 0.88 C115.31 8.3, 115.71 15.03, 115.78 33.85 M113.55 33.36 C79.89 35.36, 41.92 33.16, -1.58 31.68 M115.05 32.78 C85.67 32.58, 54.27 33.22, -0.06 32.58 M-1.31 31.09 C-0.8 25.59, 2.13 15.87, 1.24 -0.38 M-0.29 33.2 C-0.45 20.68, 0.26 10.99, -0.09 0.05" stroke="#000000" stroke-width="1" fill="none"></path></g><g transform="translate(751.8892059326172 285.5419616699219) rotate(0 52.5 11.5)"><text x="52.5" y="17" font-family="Cascadia, Segoe UI Emoji" font-size="16px" fill="#000000" text-anchor="middle" style="white-space: pre;" direction="ltr">grid-row</text></g><g stroke-linecap="round" transform="translate(917.0451507568359 278.70013427734375) rotate(0 57.5 16.5)"><path d="M0 0 C0 0, 0 0, 0 0 M0 0 C0 0, 0 0, 0 0 M-0.35 5.89 C2.02 3.64, 4.53 1.02, 4.33 0.88 M-0.13 6.41 C1.48 4.66, 3.23 2.6, 5.17 0.26 M0.64 10.94 C3.9 9.78, 5.99 4.07, 9.69 -1.54 M0.11 11.52 C3.98 7.95, 8.19 3.68, 11.05 -0.01 M0.24 19.49 C3.26 14.62, 7.72 10.12, 14.58 -0.66 M-0.24 18.34 C4.8 13.37, 8.18 9.92, 15.39 0.45 M1.29 23.59 C6.78 16.39, 13.26 6.22, 21.91 0.81 M0.68 24.85 C7.31 16.32, 13.54 8.79, 21.78 -0.53 M-0.66 28.5 C9.61 18.26, 21.61 7.23, 27.19 -1.04 M-0.59 31.36 C7.86 22.15, 14.35 12.91, 26.58 0.18 M0.93 33.28 C12.36 24, 24.42 10.04, 32.48 0.77 M1.73 33.91 C11.75 24.17, 20.75 14.42, 31.7 -0.97 M7.68 35.27 C14.33 27.18, 22.12 19.13, 37.45 1.3 M7.74 33.62 C12.63 27.85, 18.55 21.51, 37.21 0.09 M10.84 36.44 C23.32 20.8, 32.97 10.68, 41.07 1.12 M11.81 33.78 C23.88 20.78, 33.97 9.15, 42.31 -0.74 M16.25 32.48 C29.97 23.13, 40.13 8.26, 48.91 -0.12 M18.7 33.74 C27.28 23.65, 36.65 12.66, 47.86 0.57 M24.36 34.17 C34.59 23.68, 44.14 8.21, 54.84 1.75 M22.83 34.94 C30.72 24.78, 37.86 15.84, 53.37 0.36 M27.26 33.56 C38.15 21.12, 51.89 6.89, 56.34 0.97 M28.62 33.94 C37.27 25.75, 45.47 15.46, 57.48 -0.37 M35.27 33.75 C38.55 27.59, 44.71 21.87, 64.2 -0.68 M34.24 34.89 C40.59 25.91, 48.28 18.5, 63.01 0.17 M39.44 34.65 C47.25 25.13, 55.16 19.85, 69.79 -0.38 M39.44 34.06 C50 20.26, 62.9 7.46, 69.41 0.92 M44.63 35.2 C54.18 23.17, 67.27 8.45, 74.81 -0.77 M43.86 34.78 C53.61 23.32, 63.71 12.79, 73.76 0.13 M48.79 34.91 C59.67 23.74, 67.76 12.38, 78.53 -0.41 M49.53 35.79 C55.95 27.05, 63.37 19.35, 79.33 -0.3 M56.7 35.31 C60.05 24.86, 68.97 20.89, 83.57 -0.36 M53.89 35.38 C62.95 24.73, 72.53 15.18, 84.5 -0.66 M59.22 33.5 C68.02 23.54, 78.46 14.54, 91.11 1.41 M60.27 35.72 C70.65 21.39, 81.18 10.04, 89.32 0.87 M67.03 35.6 C75.49 23.19, 80.99 17.28, 94.66 -0.56 M64.91 35.07 C75.67 23.01, 83.95 12.72, 96.49 0.48 M69.89 34.3 C76.77 24.58, 85.1 14.62, 99.31 -1.64 M71.44 34.06 C80.66 22.91, 90.36 10.78, 99.84 0.95 M74.4 34.34 C88.17 20.76, 99.91 10.24, 107.47 -1.71 M75.87 33.88 C85.92 24.42, 93.09 14.07, 105.37 -0.1 M79.21 33.99 C91.6 22.82, 99.87 11.56, 110.16 0.46 M81.15 34.63 C87.66 26.63, 95.03 16.75, 111.72 0.07 M84.84 34.56 C93.89 23.03, 103.12 14.43, 115.37 2.1 M86.1 33.45 C96.55 23.82, 106.24 13.36, 115.85 1.05 M92.85 33.95 C100.2 22.05, 109.69 12.43, 116.04 5.29 M91.94 34.89 C99.87 25.65, 108.77 15.82, 116.24 6.8 M95.65 36.05 C102.23 31.45, 104.24 25.08, 116.38 13.08 M97.3 35.05 C101.76 29.67, 104.92 25.66, 116.44 12.58 M103.71 36.34 C106.26 29.5, 112.6 24.81, 115.81 18.86 M102.69 33.92 C106.01 30.39, 108.43 26.67, 116.3 19.02 M107.61 34.9 C111.45 31.94, 112.91 27.37, 116.46 26.03 M107.73 33.84 C109.82 32.16, 111.26 30.86, 115.4 25.16 M112.79 34.92 C113.51 33.92, 115.14 32.84, 115.33 31.87 M112.93 34.59 C113.81 33.45, 114.85 32.74, 115.66 31.53" stroke="#ced4da" stroke-width="0.5" fill="none"></path><path d="M-1.91 -0.97 C30.39 2.71, 58.48 1.99, 114.62 0.95 M0.2 -0.47 C32.87 0.56, 68.38 0.23, 115.05 0.6 M114.31 0.23 C116.22 8.34, 114.45 17.89, 115.38 33.31 M115.84 -0.15 C114.27 7.42, 115.4 16.28, 115.63 33.31 M115.32 33.29 C76.86 35.28, 36.49 32.63, -1.91 32.43 M114.63 33.94 C74.21 32.98, 30.99 31.93, 0.74 32.08 M1.14 33.44 C1.31 20.89, -0.32 11.73, -1.91 1.48 M-0.44 33.41 C-0.15 22.01, -1.12 11.04, 0.56 -0.34" stroke="#000000" stroke-width="1" fill="none"></path></g><g transform="translate(922.0451507568359 283.70013427734375) rotate(0 52.5 11.5)"><text x="52.5" y="17" font-family="Cascadia, Segoe UI Emoji" font-size="16px" fill="#000000" text-anchor="middle" style="white-space: pre;" direction="ltr">grid-column</text></g><g stroke-linecap="round"><g transform="translate(851.8568317387972 71.45535278320312) rotate(0 57.375634273996184 41.377628326416016)"><path d="M0 0 C19.13 13.79, 95.63 68.96, 114.75 82.76 M0 0 C19.13 13.79, 95.63 68.96, 114.75 82.76" stroke="#000000" stroke-width="1" fill="none"></path></g><g transform="translate(851.8568317387972 71.45535278320312) rotate(0 57.375634273996184 41.377628326416016)"><path d="M85.88 74.59 C94.42 77, 102.96 79.42, 114.75 82.76 M85.88 74.59 C93.42 76.72, 100.97 78.85, 114.75 82.76" stroke="#000000" stroke-width="1" fill="none"></path></g><g transform="translate(851.8568317387972 71.45535278320312) rotate(0 57.375634273996184 41.377628326416016)"><path d="M97.89 57.94 C102.88 65.28, 107.86 72.62, 114.75 82.76 M97.89 57.94 C102.29 64.42, 106.7 70.91, 114.75 82.76" stroke="#000000" stroke-width="1" fill="none"></path></g></g><g stroke-linecap="round"><g transform="translate(775.7966322591137 231.3983983110685) rotate(0 1.1827344909436306 20.97431287057202)"><path d="M0 0 C0.39 6.99, 1.97 34.96, 2.37 41.95 M0 0 C0.39 6.99, 1.97 34.96, 2.37 41.95" stroke="#000000" stroke-width="1" fill="none"></path></g><g transform="translate(775.7966322591137 231.3983983110685) rotate(0 1.1827344909436306 20.97431287057202)"><path d="M14.98 -0.84 C9.87 -0.56, 4.76 -0.27, 0 0 M14.98 -0.84 C9.26 -0.52, 3.55 -0.2, 0 0" stroke="#000000" stroke-width="1" fill="none"></path></g><g transform="translate(775.7966322591137 231.3983983110685) rotate(0 1.1827344909436306 20.97431287057202)"><path d="M-14.98 0.84 C-9.87 0.56, -4.76 0.27, 0 0 M-14.98 0.84 C-9.26 0.52, -3.55 0.2, 0 0" stroke="#000000" stroke-width="1" fill="none"></path></g></g><g stroke-linecap="round"><g transform="translate(954.5641531333004 230.6040867876311) rotate(0 -1.0387193193926123 19.346718876431396)"><path d="M0 0 C-0.35 6.45, -1.73 32.24, -2.08 38.69 M0 0 C-0.35 6.45, -1.73 32.24, -2.08 38.69" stroke="#000000" stroke-width="1" fill="none"></path></g><g transform="translate(954.5641531333004 230.6040867876311) rotate(0 -1.0387193193926123 19.346718876431396)"><path d="M14.98 0.8 C9.01 0.48, 3.04 0.16, 0 0 M14.98 0.8 C10 0.54, 5.02 0.27, 0 0" stroke="#000000" stroke-width="1" fill="none"></path></g><g transform="translate(954.5641531333004 230.6040867876311) rotate(0 -1.0387193193926123 19.346718876431396)"><path d="M-14.98 -0.8 C-9.01 -0.48, -3.04 -0.16, 0 0 M-14.98 -0.8 C-10 -0.54, -5.02 -0.27, 0 0" stroke="#000000" stroke-width="1" fill="none"></path></g></g><g stroke-linecap="round"><g transform="translate(858.7148634225368 324.52468004934985) rotate(0 8.294202289423765 24.80408581979077)"><path d="M0 0 C2.76 8.27, 13.82 41.34, 16.59 49.61 M0 0 C2.76 8.27, 13.82 41.34, 16.59 49.61" stroke="#000000" stroke-width="1" fill="none"></path></g><g transform="translate(858.7148634225368 324.52468004934985) rotate(0 8.294202289423765 24.80408581979077)"><path d="M14.23 -4.76 C9.57 -3.2, 4.92 -1.64, 0 0 M14.23 -4.76 C11.09 -3.71, 7.95 -2.66, 0 0" stroke="#000000" stroke-width="1" fill="none"></path></g><g transform="translate(858.7148634225368 324.52468004934985) rotate(0 8.294202289423765 24.80408581979077)"><path d="M-14.23 4.76 C-9.57 3.2, -4.92 1.64, 0 0 M-14.23 4.76 C-11.09 3.71, -7.95 2.66, 0 0" stroke="#000000" stroke-width="1" fill="none"></path></g></g><g stroke-linecap="round"><g transform="translate(923.0005903355132 325.04161730520923) rotate(0 -6.457386029395593 25.230507938931396)"><path d="M0 0 C-2.15 8.41, -10.76 42.05, -12.91 50.46 M0 0 C-2.15 8.41, -10.76 42.05, -12.91 50.46" stroke="#000000" stroke-width="1" fill="none"></path></g><g transform="translate(923.0005903355132 325.04161730520923) rotate(0 -6.457386029395593 25.230507938931396)"><path d="M14.53 3.72 C9.24 2.36, 3.94 1.01, 0 0 M14.53 3.72 C9.78 2.5, 5.02 1.29, 0 0" stroke="#000000" stroke-width="1" fill="none"></path></g><g transform="translate(923.0005903355132 325.04161730520923) rotate(0 -6.457386029395593 25.230507938931396)"><path d="M-14.53 -3.72 C-9.24 -2.36, -3.94 -1.01, 0 0 M-14.53 -3.72 C-9.78 -2.5, -5.02 -1.29, 0 0" stroke="#000000" stroke-width="1" fill="none"></path></g></g></svg>