<svg version="1.1" xmlns="http://www.w3.org/2000/svg" viewBox="0 0 771.6165466308591 293.4525833129883" width="771.6165466308591" height="293.4525833129883">
  <!-- svg-source:excalidraw -->
  
  <defs>
    <style class="style-fonts">
      @font-face {
        font-family: "Virgil";
        src: url("https://file%2B.vscode-resource.vscode-cdn.net/Users/chenxiaochun/.vscode/extensions/pomdtr.excalidraw-editor-3.5.1/public//dist/excalidraw-assets/Virgil.woff2");
      }
      @font-face {
        font-family: "Cascadia";
        src: url("https://file%2B.vscode-resource.vscode-cdn.net/Users/chenxiaochun/.vscode/extensions/pomdtr.excalidraw-editor-3.5.1/public//dist/excalidraw-assets/Cascadia.woff2");
      }
    </style>
  </defs>
  <rect x="0" y="0" width="771.6165466308591" height="293.4525833129883" fill="#ffffff"></rect><g stroke-linecap="round" transform="translate(10 21.83855438232422) rotate(0 55.232757568359375 130.80701446533203)"><path d="M6.69 7.14 C6.69 7.14, 6.69 7.14, 6.69 7.14 M6.69 7.14 C6.69 7.14, 6.69 7.14, 6.69 7.14 M3.15 17.32 C5.99 14.05, 8.84 10.78, 16.27 2.22 M3.15 17.32 C7.71 12.07, 12.28 6.82, 16.27 2.22 M2.89 23.71 C9.48 16.13, 16.07 8.55, 22.57 1.07 M2.89 23.71 C10.39 15.09, 17.89 6.46, 22.57 1.07 M3.29 29.36 C10.15 21.46, 17.02 13.56, 28.22 0.68 M3.29 29.36 C8.74 23.08, 14.2 16.8, 28.22 0.68 M3.02 35.75 C12.69 24.64, 22.36 13.52, 33.86 0.28 M3.02 35.75 C12.36 25.02, 21.69 14.28, 33.86 0.28 M2.76 42.15 C15.59 27.4, 28.41 12.65, 38.85 0.64 M2.76 42.15 C13.19 30.16, 23.62 18.17, 38.85 0.64 M3.16 47.8 C15.17 33.97, 27.19 20.15, 43.83 1 M3.16 47.8 C19.17 29.38, 35.18 10.96, 43.83 1 M2.9 54.19 C20.21 34.28, 37.52 14.36, 49.48 0.61 M2.9 54.19 C18.53 36.21, 34.16 18.23, 49.48 0.61 M3.29 59.84 C19.79 40.85, 36.3 21.87, 54.46 0.97 M3.29 59.84 C17.62 43.35, 31.96 26.86, 54.46 0.97 M3.03 66.23 C22.59 43.73, 42.15 21.24, 60.11 0.57 M3.03 66.23 C24.9 41.07, 46.78 15.91, 60.11 0.57 M2.77 72.63 C17.71 55.45, 32.65 38.26, 65.09 0.93 M2.77 72.63 C23.65 48.61, 44.53 24.59, 65.09 0.93 M3.16 78.28 C29.51 47.96, 55.87 17.65, 70.74 0.54 M3.16 78.28 C23.67 54.69, 44.18 31.1, 70.74 0.54 M2.9 84.67 C24.39 59.95, 45.88 35.23, 75.72 0.9 M2.9 84.67 C23.17 61.36, 43.43 38.05, 75.72 0.9 M3.3 90.32 C29.48 60.2, 55.66 30.08, 80.71 1.26 M3.3 90.32 C19.9 71.21, 36.51 52.1, 80.71 1.26 M3.03 96.71 C31.36 64.13, 59.69 31.54, 86.35 0.87 M3.03 96.71 C34.41 60.62, 65.79 24.52, 86.35 0.87 M2.77 103.11 C30.48 71.24, 58.19 39.36, 90.68 1.98 M2.77 103.11 C27.53 74.63, 52.29 46.15, 90.68 1.98 M3.17 108.75 C24.32 84.42, 45.47 60.09, 95.67 2.34 M3.17 108.75 C25.7 82.83, 48.24 56.91, 95.67 2.34 M2.91 115.15 C36.83 76.13, 70.76 37.1, 99.35 4.21 M2.91 115.15 C33.46 80, 64.02 44.85, 99.35 4.21 M2.64 121.55 C24.44 96.48, 46.24 71.4, 102.37 6.83 M2.64 121.55 C26.56 94.04, 50.48 66.53, 102.37 6.83 M3.04 127.19 C42.39 81.93, 81.74 36.66, 106.04 8.7 M3.04 127.19 C42.08 82.28, 81.12 37.37, 106.04 8.7 M2.78 133.59 C41.9 88.59, 81.01 43.59, 108.4 12.08 M2.78 133.59 C31.57 100.46, 60.37 67.34, 108.4 12.08 M3.17 139.23 C29.17 109.33, 55.17 79.42, 110.11 16.22 M3.17 139.23 C43.18 93.21, 83.18 47.19, 110.11 16.22 M2.91 145.63 C40.32 102.6, 77.73 59.56, 110.5 21.86 M2.91 145.63 C45.54 96.59, 88.18 47.55, 110.5 21.86 M2.65 152.03 C32.45 117.75, 62.26 83.46, 110.9 27.5 M2.65 152.03 C30.22 120.31, 57.79 88.6, 110.9 27.5 M3.04 157.67 C26.44 130.76, 49.84 103.84, 110.64 33.9 M3.04 157.67 C25.83 131.46, 48.62 105.24, 110.64 33.9 M2.78 164.07 C37.43 124.21, 72.08 84.36, 110.38 40.3 M2.78 164.07 C26.49 136.8, 50.2 109.53, 110.38 40.3 M2.52 170.47 C29.54 139.38, 56.56 108.3, 110.77 45.94 M2.52 170.47 C31.46 137.18, 60.39 103.9, 110.77 45.94 M2.92 176.11 C38.4 135.29, 73.88 94.48, 110.51 52.34 M2.92 176.11 C37.08 136.81, 71.24 97.51, 110.51 52.34 M2.65 182.51 C37 143, 71.34 103.49, 110.9 57.98 M2.65 182.51 C30.54 150.43, 58.42 118.35, 110.9 57.98 M3.05 188.15 C40.52 145.05, 77.99 101.95, 110.64 64.38 M3.05 188.15 C28.82 158.51, 54.59 128.86, 110.64 64.38 M2.79 194.55 C34.7 157.84, 66.61 121.13, 110.38 70.78 M2.79 194.55 C26.94 166.77, 51.09 138.98, 110.38 70.78 M2.53 200.95 C38.27 159.83, 74.01 118.71, 110.78 76.42 M2.53 200.95 C37.87 160.28, 73.22 119.62, 110.78 76.42 M2.92 206.59 C31.65 173.54, 60.38 140.49, 110.51 82.82 M2.92 206.59 C41.28 162.46, 79.64 118.33, 110.51 82.82 M2.66 212.99 C38.55 171.7, 74.44 130.42, 110.91 88.46 M2.66 212.99 C42.24 167.46, 81.82 121.93, 110.91 88.46 M2.4 219.39 C36.06 180.67, 69.72 141.94, 110.65 94.86 M2.4 219.39 C44.54 170.91, 86.67 122.44, 110.65 94.86 M2.79 225.03 C36.29 186.5, 69.79 147.96, 110.39 101.26 M2.79 225.03 C44.83 176.67, 86.87 128.3, 110.39 101.26 M-0.09 234.45 C34.72 194.4, 69.53 154.35, 110.78 106.9 M-0.09 234.45 C22.64 208.29, 45.38 182.14, 110.78 106.9 M0.96 239.33 C37.3 197.53, 73.64 155.72, 110.52 113.3 M0.96 239.33 C31.93 203.71, 62.9 168.08, 110.52 113.3 M1.35 244.98 C41.33 198.99, 81.31 153, 110.91 118.94 M1.35 244.98 C26.9 215.59, 52.44 186.2, 110.91 118.94 M3.71 248.36 C41.99 204.32, 80.27 160.29, 110.65 125.34 M3.71 248.36 C43.18 202.95, 82.65 157.55, 110.65 125.34 M5.42 252.49 C42.73 209.57, 80.05 166.65, 110.39 131.74 M5.42 252.49 C31.63 222.34, 57.84 192.19, 110.39 131.74 M7.78 255.87 C34.41 225.24, 61.03 194.62, 110.79 137.38 M7.78 255.87 C30.92 229.26, 54.05 202.65, 110.79 137.38 M11.46 257.74 C49.17 214.36, 86.88 170.97, 110.52 143.78 M11.46 257.74 C48.87 214.7, 86.28 171.67, 110.52 143.78 M15.13 259.61 C34.75 237.04, 54.37 214.48, 110.92 149.42 M15.13 259.61 C41.05 229.79, 66.97 199.98, 110.92 149.42 M18.15 262.23 C49.48 226.19, 80.81 190.15, 110.66 155.82 M18.15 262.23 C44.69 231.7, 71.23 201.18, 110.66 155.82 M23.14 262.59 C46.84 235.33, 70.54 208.07, 110.4 162.22 M23.14 262.59 C55.9 224.91, 88.65 187.23, 110.4 162.22 M28.13 262.95 C55.46 231.51, 82.79 200.07, 110.79 167.86 M28.13 262.95 C60.71 225.47, 93.3 187.99, 110.79 167.86 M33.77 262.56 C51.94 241.66, 70.1 220.76, 110.53 174.26 M33.77 262.56 C53.28 240.11, 72.8 217.66, 110.53 174.26 M38.76 262.92 C57.59 241.26, 76.41 219.6, 110.92 179.9 M38.76 262.92 C57.75 241.07, 76.74 219.23, 110.92 179.9 M43.74 263.28 C69.23 233.96, 94.72 204.63, 110.66 186.3 M43.74 263.28 C61.75 242.56, 79.76 221.85, 110.66 186.3 M49.39 262.88 C63.84 246.25, 78.3 229.62, 110.4 192.7 M49.39 262.88 C61.85 248.55, 74.31 234.21, 110.4 192.7 M54.37 263.24 C70.64 244.53, 86.91 225.82, 110.8 198.34 M54.37 263.24 C67.29 248.38, 80.21 233.53, 110.8 198.34 M60.02 262.85 C78.68 241.38, 97.34 219.91, 110.53 204.74 M60.02 262.85 C73.91 246.87, 87.8 230.89, 110.53 204.74 M65 263.21 C76.31 250.21, 87.61 237.21, 110.93 210.38 M65 263.21 C82.9 242.63, 100.79 222.04, 110.93 210.38 M70.65 262.81 C85.53 245.69, 100.42 228.57, 110.67 216.78 M70.65 262.81 C81.83 249.95, 93.01 237.09, 110.67 216.78 M75.63 263.17 C84.14 253.39, 92.64 243.61, 110.41 223.18 M75.63 263.17 C84.46 253.02, 93.28 242.87, 110.41 223.18 M80.62 263.53 C91.53 250.99, 102.44 238.44, 110.8 228.82 M80.62 263.53 C91.75 250.73, 102.88 237.93, 110.8 228.82 M85.61 263.89 C95.25 252.8, 104.9 241.7, 111.19 234.46 M85.61 263.89 C95.1 252.98, 104.59 242.06, 111.19 234.46 M91.91 262.75 C96.81 257.1, 101.72 251.46, 110.93 240.86 M91.91 262.75 C96.49 257.47, 101.08 252.19, 110.93 240.86" stroke="#ced4da" stroke-width="0.5" fill="none"></path><path d="M27.62 0 M27.62 0 C40.87 0, 54.13 0, 82.85 0 M27.62 0 C46.27 0, 64.92 0, 82.85 0 M82.85 0 C101.26 0, 110.47 9.21, 110.47 27.62 M82.85 0 C101.26 0, 110.47 9.21, 110.47 27.62 M110.47 27.62 C110.47 105.15, 110.47 182.68, 110.47 234 M110.47 27.62 C110.47 83.5, 110.47 139.38, 110.47 234 M110.47 234 C110.47 252.41, 101.26 261.61, 82.85 261.61 M110.47 234 C110.47 252.41, 101.26 261.61, 82.85 261.61 M82.85 261.61 C61.96 261.61, 41.07 261.61, 27.62 261.61 M82.85 261.61 C67.13 261.61, 51.4 261.61, 27.62 261.61 M27.62 261.61 C9.21 261.61, 0 252.41, 0 234 M27.62 261.61 C9.21 261.61, 0 252.41, 0 234 M0 234 C0 188.02, 0 142.04, 0 27.62 M0 234 C0 154.41, 0 74.81, 0 27.62 M0 27.62 C0 9.21, 9.21 0, 27.62 0 M0 27.62 C0 9.21, 9.21 0, 27.62 0" stroke="#000000" stroke-width="1" fill="none"></path></g><g stroke-linecap="round" transform="translate(295.8019104003906 10) rotate(0 232.90731811523426 133.1213150024414)"><path d="M7.86 8.16 C7.86 8.16, 7.86 8.16, 7.86 8.16 M7.86 8.16 C7.86 8.16, 7.86 8.16, 7.86 8.16 M3.66 19.09 C7.23 14.98, 10.8 10.88, 18.1 2.48 M3.66 19.09 C9.03 12.92, 14.39 6.75, 18.1 2.48 M2.75 26.24 C9.48 18.49, 16.21 10.75, 25.05 0.58 M2.75 26.24 C10.26 17.6, 17.77 8.95, 25.05 0.58 M2.48 32.64 C10.98 22.86, 19.48 13.09, 30.7 0.18 M2.48 32.64 C8.4 25.84, 14.31 19.03, 30.7 0.18 M2.88 38.28 C13.36 26.22, 23.84 14.17, 34.37 2.05 M2.88 38.28 C9.37 30.81, 15.86 23.34, 34.37 2.05 M2.62 44.68 C13.18 32.52, 23.74 20.37, 39.36 2.41 M2.62 44.68 C15.22 30.18, 27.82 15.68, 39.36 2.41 M2.36 51.07 C11 41.13, 19.64 31.2, 45 2.02 M2.36 51.07 C19.12 31.79, 35.89 12.5, 45 2.02 M2.75 56.72 C12.48 45.53, 22.2 34.34, 49.99 2.38 M2.75 56.72 C14.18 43.57, 25.62 30.41, 49.99 2.38 M2.49 63.11 C16.27 47.27, 30.04 31.42, 55.63 1.98 M2.49 63.11 C15.47 48.18, 28.45 33.25, 55.63 1.98 M2.23 69.51 C19.9 49.19, 37.57 28.86, 60.62 2.34 M2.23 69.51 C24.4 44.01, 46.56 18.51, 60.62 2.34 M2.62 75.16 C27.92 46.05, 53.22 16.95, 66.26 1.95 M2.62 75.16 C15.94 59.83, 29.26 44.51, 66.26 1.95 M2.36 81.55 C21.03 60.08, 39.7 38.6, 71.25 2.31 M2.36 81.55 C18.35 63.16, 34.34 44.77, 71.25 2.31 M2.76 87.2 C21.98 65.08, 41.2 42.97, 76.89 1.91 M2.76 87.2 C20.62 66.65, 38.47 46.11, 76.89 1.91 M2.49 93.59 C22.45 70.64, 42.4 47.68, 81.88 2.27 M2.49 93.59 C24.62 68.14, 46.75 42.69, 81.88 2.27 M2.23 99.99 C22.11 77.12, 41.99 54.25, 87.52 1.88 M2.23 99.99 C35.92 61.23, 69.62 22.48, 87.52 1.88 M2.63 105.64 C23.36 81.79, 44.09 57.94, 92.51 2.24 M2.63 105.64 C20.78 84.75, 38.94 63.86, 92.51 2.24 M2.37 112.03 C26.74 84, 51.11 55.96, 98.15 1.85 M2.37 112.03 C24.47 86.61, 46.57 61.19, 98.15 1.85 M2.1 118.43 C26.64 90.21, 51.17 61.99, 103.14 2.21 M2.1 118.43 C31.15 85.01, 60.2 51.6, 103.14 2.21 M2.5 124.07 C24.37 98.92, 46.23 73.76, 108.78 1.81 M2.5 124.07 C24.83 98.38, 47.16 72.69, 108.78 1.81 M2.24 130.47 C43.36 83.17, 84.47 35.87, 113.77 2.17 M2.24 130.47 C27.22 101.73, 52.2 72.99, 113.77 2.17 M2.63 136.11 C39.56 93.64, 76.49 51.16, 119.41 1.78 M2.63 136.11 C37.49 96.01, 72.36 55.91, 119.41 1.78 M2.37 142.51 C43.36 95.36, 84.35 48.2, 124.4 2.14 M2.37 142.51 C39.38 99.94, 76.39 57.36, 124.4 2.14 M2.11 148.91 C48.42 95.64, 94.73 42.36, 130.04 1.74 M2.11 148.91 C48.72 95.29, 95.33 41.67, 130.04 1.74 M2.5 154.55 C44.79 105.91, 87.08 57.26, 135.03 2.1 M2.5 154.55 C31.71 120.96, 60.91 87.36, 135.03 2.1 M2.24 160.95 C39.07 118.58, 75.9 76.21, 140.67 1.71 M2.24 160.95 C54.72 100.59, 107.19 40.22, 140.67 1.71 M1.98 167.35 C50.78 111.21, 99.58 55.07, 145.66 2.07 M1.98 167.35 C41.25 122.17, 80.52 77, 145.66 2.07 M2.38 172.99 C46.61 122.11, 90.84 71.23, 150.65 2.43 M2.38 172.99 C34.61 135.91, 66.85 98.82, 150.65 2.43 M2.11 179.39 C43.11 132.23, 84.1 85.07, 156.29 2.03 M2.11 179.39 C58.14 114.94, 114.16 50.5, 156.29 2.03 M2.51 185.03 C46.25 134.72, 89.98 84.41, 161.28 2.39 M2.51 185.03 C43.33 138.07, 84.16 91.1, 161.28 2.39 M2.25 191.43 C37.33 151.08, 72.4 110.73, 166.92 2 M2.25 191.43 C67.27 116.63, 132.3 41.83, 166.92 2 M1.99 197.83 C63.36 127.23, 124.73 56.63, 171.91 2.36 M1.99 197.83 C66.41 123.72, 130.84 49.6, 171.91 2.36 M2.38 203.47 C62.48 134.34, 122.57 65.21, 177.55 1.96 M2.38 203.47 C50.6 148, 98.82 92.53, 177.55 1.96 M2.12 209.87 C50.1 154.67, 98.08 99.48, 182.54 2.32 M2.12 209.87 C68.42 133.6, 134.72 57.33, 182.54 2.32 M2.51 215.51 C51.71 158.91, 100.91 102.32, 188.18 1.93 M2.51 215.51 C61.04 148.19, 119.56 80.87, 188.18 1.93 M2.25 221.91 C49.43 167.64, 96.61 113.37, 193.17 2.29 M2.25 221.91 C61.3 153.98, 120.35 86.05, 193.17 2.29 M1.99 228.31 C48.16 175.19, 94.34 122.08, 198.81 1.9 M1.99 228.31 C46.93 176.61, 91.88 124.9, 198.81 1.9 M1.07 235.46 C63.7 163.41, 126.33 91.37, 203.8 2.26 M1.07 235.46 C81.12 143.37, 161.17 51.29, 203.8 2.26 M0.81 241.86 C74.78 156.76, 148.76 71.67, 209.44 1.86 M0.81 241.86 C69.99 162.28, 139.16 82.7, 209.44 1.86 M1.86 246.75 C44.92 197.21, 87.98 147.68, 214.43 2.22 M1.86 246.75 C69.38 169.08, 136.89 91.41, 214.43 2.22 M4.23 250.13 C85.05 157.15, 165.88 64.17, 220.07 1.83 M4.23 250.13 C78.66 164.5, 153.09 78.87, 220.07 1.83 M5.28 255.01 C54.94 197.88, 104.6 140.75, 225.06 2.19 M5.28 255.01 C65.51 185.72, 125.75 116.43, 225.06 2.19 M8.29 257.64 C72.95 183.26, 137.61 108.88, 230.7 1.79 M8.29 257.64 C95.31 157.53, 182.33 57.43, 230.7 1.79 M10.66 261.02 C61.07 203.02, 111.48 145.03, 235.69 2.15 M10.66 261.02 C92.54 166.82, 174.43 72.62, 235.69 2.15 M14.33 262.89 C93.02 172.37, 171.71 81.85, 241.33 1.76 M14.33 262.89 C104.46 159.21, 194.59 55.52, 241.33 1.76 M18.01 264.76 C106.7 162.72, 195.4 60.69, 246.32 2.12 M18.01 264.76 C107.01 162.37, 196.02 59.98, 246.32 2.12 M22.99 265.12 C76.21 203.9, 129.43 142.67, 251.96 1.72 M22.99 265.12 C89.75 188.33, 156.5 111.54, 251.96 1.72 M26.67 266.99 C86.08 198.64, 145.49 130.3, 256.95 2.08 M26.67 266.99 C86.05 198.68, 145.42 130.37, 256.95 2.08 M32.31 266.59 C97.97 191.06, 163.63 115.52, 262.59 1.69 M32.31 266.59 C80.03 211.7, 127.74 156.81, 262.59 1.69 M37.96 266.2 C110.98 182.19, 184 98.19, 267.58 2.05 M37.96 266.2 C124.51 166.62, 211.07 67.05, 267.58 2.05 M42.94 266.56 C109.23 190.3, 175.52 114.04, 272.56 2.41 M42.94 266.56 C107.16 192.69, 171.37 118.82, 272.56 2.41 M47.93 266.92 C94.2 213.69, 140.47 160.46, 278.21 2.01 M47.93 266.92 C107.64 198.23, 167.35 129.54, 278.21 2.01 M53.57 266.52 C116.47 194.17, 179.37 121.81, 283.19 2.37 M53.57 266.52 C110.43 201.12, 167.28 135.72, 283.19 2.37 M58.56 266.88 C124.42 191.12, 190.28 115.36, 288.84 1.98 M58.56 266.88 C132.29 182.07, 206.02 97.25, 288.84 1.98 M64.2 266.49 C137.33 182.36, 210.47 98.23, 293.82 2.34 M64.2 266.49 C122.27 199.69, 180.33 132.89, 293.82 2.34 M69.19 266.85 C138.12 187.55, 207.05 108.25, 299.47 1.94 M69.19 266.85 C133.2 193.21, 197.22 119.57, 299.47 1.94 M74.83 266.45 C154.5 174.8, 234.18 83.15, 304.45 2.3 M74.83 266.45 C130.05 202.93, 185.27 139.41, 304.45 2.3 M79.82 266.81 C152.12 183.65, 224.41 100.48, 310.1 1.91 M79.82 266.81 C161.4 172.97, 242.98 79.12, 310.1 1.91 M85.46 266.42 C161.42 179.04, 237.38 91.66, 315.08 2.27 M85.46 266.42 C167.78 171.73, 250.09 77.04, 315.08 2.27 M90.45 266.78 C170.98 174.14, 251.51 81.51, 320.73 1.88 M90.45 266.78 C153.47 194.28, 216.49 121.79, 320.73 1.88 M96.09 266.38 C162.29 190.24, 228.48 114.09, 325.71 2.24 M96.09 266.38 C178.32 171.79, 260.55 77.2, 325.71 2.24 M101.08 266.74 C187.05 167.85, 273.02 68.95, 331.36 1.84 M101.08 266.74 C161.87 196.81, 222.66 126.88, 331.36 1.84 M106.72 266.35 C172.08 191.17, 237.43 115.99, 336.34 2.2 M106.72 266.35 C197.13 162.35, 287.54 58.35, 336.34 2.2 M111.71 266.71 C180.45 187.64, 249.18 108.57, 341.99 1.81 M111.71 266.71 C170.69 198.86, 229.67 131.01, 341.99 1.81 M117.35 266.32 C170.59 205.08, 223.82 143.84, 346.97 2.17 M117.35 266.32 C168.51 207.47, 219.66 148.62, 346.97 2.17 M122.34 266.68 C211.15 164.51, 299.96 62.35, 352.62 1.77 M122.34 266.68 C187.77 191.41, 253.2 116.14, 352.62 1.77 M127.98 266.28 C194.32 189.97, 260.66 113.65, 357.6 2.13 M127.98 266.28 C175.26 211.9, 222.53 157.52, 357.6 2.13 M132.97 266.64 C188.74 202.48, 244.52 138.32, 363.25 1.74 M132.97 266.64 C198.63 191.11, 264.29 115.58, 363.25 1.74 M138.61 266.25 C198.69 197.14, 258.76 128.03, 368.23 2.1 M138.61 266.25 C209.04 185.22, 279.48 104.2, 368.23 2.1 M143.6 266.61 C194.81 207.7, 246.02 148.78, 373.88 1.7 M143.6 266.61 C212.55 187.29, 281.5 107.97, 373.88 1.7 M149.24 266.21 C195.78 212.68, 242.32 159.14, 378.86 2.06 M149.24 266.21 C216.34 189.03, 283.43 111.85, 378.86 2.06 M154.23 266.57 C206.43 206.53, 258.63 146.48, 383.85 2.42 M154.23 266.57 C216.33 195.14, 278.42 123.71, 383.85 2.42 M159.87 266.18 C208.46 210.28, 257.06 154.38, 389.49 2.03 M159.87 266.18 C236.16 178.42, 312.45 90.66, 389.49 2.03 M164.86 266.54 C234.9 185.97, 304.93 105.4, 394.48 2.39 M164.86 266.54 C221.04 201.91, 277.22 137.28, 394.48 2.39 M169.85 266.9 C223.94 204.67, 278.03 142.45, 400.12 1.99 M169.85 266.9 C261.95 160.95, 354.05 55, 400.12 1.99 M175.49 266.5 C232.97 200.38, 290.45 134.26, 405.11 2.35 M175.49 266.5 C260.86 168.29, 346.23 70.09, 405.11 2.35 M180.48 266.86 C241.69 196.45, 302.9 126.04, 410.75 1.96 M180.48 266.86 C243.01 194.92, 305.55 122.99, 410.75 1.96 M186.12 266.47 C233.2 212.31, 280.27 158.16, 415.74 2.32 M186.12 266.47 C256.06 186.01, 326.01 105.55, 415.74 2.32 M191.11 266.83 C270.45 175.56, 349.79 84.28, 421.38 1.93 M191.11 266.83 C266.27 180.36, 341.44 93.89, 421.38 1.93 M196.75 266.43 C255.92 198.36, 315.1 130.29, 426.37 2.29 M196.75 266.43 C288.37 161.04, 379.99 55.65, 426.37 2.29 M201.74 266.79 C284.22 171.91, 366.7 77.03, 432.01 1.89 M201.74 266.79 C281.64 174.88, 361.54 82.96, 432.01 1.89 M207.38 266.4 C263.38 201.98, 319.38 137.56, 437 2.25 M207.38 266.4 C279.48 183.46, 351.58 100.51, 437 2.25 M212.37 266.76 C267.78 203.02, 323.19 139.27, 442.64 1.86 M212.37 266.76 C285.79 182.29, 359.22 97.83, 442.64 1.86 M218.01 266.36 C297.44 174.99, 376.88 83.61, 447.63 2.22 M218.01 266.36 C266.64 210.42, 315.27 154.48, 447.63 2.22 M223 266.73 C308.09 168.84, 393.19 70.95, 451.31 4.09 M223 266.73 C275.68 206.12, 328.36 145.51, 451.31 4.09 M228.64 266.33 C294.98 190.02, 361.32 113.7, 454.98 5.96 M228.64 266.33 C309.59 173.21, 390.54 80.09, 454.98 5.96 M233.63 266.69 C319.36 168.06, 405.1 69.43, 458 8.58 M233.63 266.69 C295.22 195.83, 356.82 124.97, 458 8.58 M239.27 266.3 C319.43 174.08, 399.6 81.86, 461.02 11.2 M239.27 266.3 C310.22 184.68, 381.17 103.06, 461.02 11.2 M244.26 266.66 C319.51 180.09, 394.75 93.53, 463.38 14.58 M244.26 266.66 C297.97 204.86, 351.69 143.07, 463.38 14.58 M249.9 266.26 C330.41 173.64, 410.92 81.03, 465.09 18.72 M249.9 266.26 C329.58 174.6, 409.26 82.94, 465.09 18.72 M254.89 266.62 C334.49 175.05, 414.1 83.47, 465.48 24.36 M254.89 266.62 C326.64 184.08, 398.39 101.54, 465.48 24.36 M260.53 266.23 C322.32 195.15, 384.11 124.07, 465.88 30 M260.53 266.23 C318.69 199.32, 376.86 132.41, 465.88 30 M265.52 266.59 C316.89 207.49, 368.26 148.4, 467.58 34.14 M265.52 266.59 C338.75 182.34, 411.98 98.1, 467.58 34.14 M271.16 266.19 C322.04 207.66, 372.92 149.13, 467.98 39.78 M271.16 266.19 C337.42 189.97, 403.68 113.74, 467.98 39.78 M276.15 266.55 C350.33 181.21, 424.52 95.87, 467.72 46.18 M276.15 266.55 C336.42 197.21, 396.7 127.88, 467.72 46.18 M281.14 266.91 C339.21 200.1, 397.29 133.3, 468.11 51.82 M281.14 266.91 C339.37 199.93, 397.6 132.94, 468.11 51.82 M286.78 266.52 C330.08 216.7, 373.39 166.89, 467.85 58.22 M286.78 266.52 C323.87 223.85, 360.96 181.18, 467.85 58.22 M291.77 266.88 C338.83 212.74, 385.89 158.6, 467.59 64.62 M291.77 266.88 C343.03 207.9, 394.3 148.92, 467.59 64.62 M297.41 266.48 C351.8 203.91, 406.19 141.34, 467.98 70.26 M297.41 266.48 C338.96 218.68, 380.52 170.88, 467.98 70.26 M302.4 266.84 C349.86 212.24, 397.33 157.64, 467.72 76.66 M302.4 266.84 C346.09 216.58, 389.78 166.32, 467.72 76.66 M308.04 266.45 C369.22 196.07, 430.4 125.69, 468.12 82.3 M308.04 266.45 C347.21 221.39, 386.37 176.34, 468.12 82.3 M313.03 266.81 C355.31 218.16, 397.6 169.51, 467.86 88.7 M313.03 266.81 C362.54 209.85, 412.06 152.89, 467.86 88.7 M318.67 266.41 C353.19 226.7, 387.72 186.98, 467.59 95.1 M318.67 266.41 C352.16 227.89, 385.65 189.36, 467.59 95.1 M323.66 266.77 C363.62 220.8, 403.58 174.83, 467.99 100.74 M323.66 266.77 C359.96 225.01, 396.27 183.24, 467.99 100.74 M329.3 266.38 C373.23 215.85, 417.15 165.32, 467.73 107.14 M329.3 266.38 C357.57 233.86, 385.83 201.35, 467.73 107.14 M334.29 266.74 C373.95 221.11, 413.61 175.49, 468.12 112.78 M334.29 266.74 C381.94 211.92, 429.6 157.1, 468.12 112.78 M339.93 266.35 C382.8 217.03, 425.67 167.71, 467.86 119.18 M339.93 266.35 C366.25 236.07, 392.56 205.8, 467.86 119.18 M344.92 266.71 C378.83 227.69, 412.74 188.68, 467.6 125.57 M344.92 266.71 C373.5 233.82, 402.09 200.93, 467.6 125.57 M350.56 266.31 C377.4 235.44, 404.23 204.57, 467.99 131.22 M350.56 266.31 C380.58 231.77, 410.61 197.24, 467.99 131.22 M355.55 266.67 C390.19 226.81, 424.84 186.96, 467.73 137.62 M355.55 266.67 C398.76 216.96, 441.97 167.25, 467.73 137.62 M361.19 266.28 C402.65 218.58, 444.11 170.88, 468.13 143.26 M361.19 266.28 C402.19 219.11, 443.18 171.95, 468.13 143.26 M366.18 266.64 C389.79 239.47, 413.4 212.31, 467.87 149.66 M366.18 266.64 C388.39 241.08, 410.6 215.53, 467.87 149.66 M371.82 266.24 C395.74 238.72, 419.67 211.2, 467.6 156.05 M371.82 266.24 C393.02 241.85, 414.22 217.47, 467.6 156.05 M376.81 266.6 C397.97 242.26, 419.13 217.92, 468 161.7 M376.81 266.6 C398.86 241.23, 420.92 215.85, 468 161.7 M382.45 266.21 C407.92 236.91, 433.39 207.61, 467.74 168.1 M382.45 266.21 C399.94 246.08, 417.44 225.96, 467.74 168.1 M387.44 266.57 C406.86 244.22, 426.29 221.87, 468.13 173.74 M387.44 266.57 C409.03 241.73, 430.63 216.88, 468.13 173.74 M393.08 266.17 C412.9 243.37, 432.73 220.56, 467.87 180.14 M393.08 266.17 C421.01 234.04, 448.95 201.91, 467.87 180.14 M398.07 266.53 C421.54 239.53, 445.01 212.53, 467.61 186.53 M398.07 266.53 C412.73 249.66, 427.4 232.79, 467.61 186.53 M403.05 266.89 C424.28 242.48, 445.51 218.06, 468 192.18 M403.05 266.89 C426.97 239.38, 450.89 211.87, 468 192.18 M408.7 266.5 C429.27 242.83, 449.85 219.16, 467.74 198.57 M408.7 266.5 C425.83 246.78, 442.97 227.07, 467.74 198.57 M413.68 266.86 C430.48 247.54, 447.27 228.22, 468.14 204.22 M413.68 266.86 C426.45 252.18, 439.21 237.49, 468.14 204.22 M419.33 266.46 C431.3 252.69, 443.28 238.91, 467.88 210.62 M419.33 266.46 C430.35 253.78, 441.38 241.1, 467.88 210.62 M424.31 266.82 C436.49 252.81, 448.67 238.81, 467.61 217.01 M424.31 266.82 C433.84 255.87, 443.36 244.91, 467.61 217.01 M429.96 266.43 C443.35 251.03, 456.74 235.62, 468.01 222.66 M429.96 266.43 C439.32 255.66, 448.69 244.88, 468.01 222.66 M434.94 266.79 C446.87 253.06, 458.81 239.34, 467.75 229.05 M434.94 266.79 C447.29 252.59, 459.63 238.39, 467.75 229.05 M440.59 266.4 C449.49 256.15, 458.39 245.91, 467.49 235.45 M440.59 266.4 C447.99 257.88, 455.39 249.37, 467.49 235.45 M444.26 268.26 C451.42 260.03, 458.58 251.79, 466.57 242.6 M444.26 268.26 C452.24 259.09, 460.22 249.91, 466.57 242.6" stroke="#ced4da" stroke-width="0.5" fill="none"></path><path d="M32 0 M32 0 C191.73 0, 351.46 0, 433.81 0 M32 0 C170.65 0, 309.29 0, 433.81 0 M433.81 0 C455.15 0, 465.81 10.67, 465.81 32 M433.81 0 C455.15 0, 465.81 10.67, 465.81 32 M465.81 32 C465.81 82.2, 465.81 132.4, 465.81 234.24 M465.81 32 C465.81 97.1, 465.81 162.21, 465.81 234.24 M465.81 234.24 C465.81 255.58, 455.15 266.24, 433.81 266.24 M465.81 234.24 C465.81 255.58, 455.15 266.24, 433.81 266.24 M433.81 266.24 C325.48 266.24, 217.14 266.24, 32 266.24 M433.81 266.24 C273.99 266.24, 114.16 266.24, 32 266.24 M32 266.24 C10.67 266.24, 0 255.58, 0 234.24 M32 266.24 C10.67 266.24, 0 255.58, 0 234.24 M0 234.24 C0 186.09, 0 137.93, 0 32 M0 234.24 C0 181.03, 0 127.81, 0 32 M0 32 C0 10.67, 10.67 0, 32 0 M0 32 C0 10.67, 10.67 0, 32 0" stroke="#000000" stroke-width="1" fill="none"></path></g><g transform="translate(31.597564697265625 44.64429473876953) rotate(0 24 10)"><text x="0" y="0" font-family="Virgil, Segoe UI Emoji" font-size="16px" fill="#000000" text-anchor="start" style="white-space: pre;" direction="ltr" dominant-baseline="text-before-edge">工作区</text></g><g transform="translate(330.74407958984375 29.775047302246094) rotate(0 24 10)"><text x="0" y="0" font-family="Virgil, Segoe UI Emoji" font-size="16px" fill="#000000" text-anchor="start" style="white-space: pre;" direction="ltr" dominant-baseline="text-before-edge">版本库</text></g><g stroke-linecap="round" transform="translate(41.161275285736565 91.1433969788053) rotate(0 28.67492373836083 43.5126033901723)"><path d="M0 0 L57.35 0 L57.35 87.03 L0 87.03" stroke="none" stroke-width="0" fill="#fff"></path><path d="M0 0 C19.26 0, 38.51 0, 57.35 0 M0 0 C13.85 0, 27.7 0, 57.35 0 M57.35 0 C57.35 31.74, 57.35 63.47, 57.35 87.03 M57.35 0 C57.35 30.47, 57.35 60.95, 57.35 87.03 M57.35 87.03 C41.18 87.03, 25.01 87.03, 0 87.03 M57.35 87.03 C43.78 87.03, 30.21 87.03, 0 87.03 M0 87.03 C0 54.75, 0 22.48, 0 0 M0 87.03 C0 54.29, 0 21.54, 0 0" stroke="#000000" stroke-width="1" fill="none"></path></g><g stroke-linecap="round" transform="translate(35.03715494820574 85.44717266485793) rotate(0 28.67492373836083 43.5126033901723)"><path d="M0 0 L57.35 0 L57.35 87.03 L0 87.03" stroke="none" stroke-width="0" fill="#fff"></path><path d="M0 0 C16.56 0, 33.11 0, 57.35 0 M0 0 C11.98 0, 23.95 0, 57.35 0 M57.35 0 C57.35 30.74, 57.35 61.48, 57.35 87.03 M57.35 0 C57.35 23.9, 57.35 47.79, 57.35 87.03 M57.35 87.03 C35.19 87.03, 13.03 87.03, 0 87.03 M57.35 87.03 C35.79 87.03, 14.24 87.03, 0 87.03 M0 87.03 C0 52.73, 0 18.44, 0 0 M0 87.03 C0 52.78, 0 18.53, 0 0" stroke="#000000" stroke-width="1" fill="none"></path></g><g stroke-linecap="round" transform="translate(27.413813728044488 78.74980749573288) rotate(0 28.67492373836083 43.512603390172316)"><path d="M0 0 L57.35 0 L57.35 87.03 L0 87.03" stroke="none" stroke-width="0" fill="#fff"></path><path d="M0 0 C20.84 0, 41.68 0, 57.35 0 M0 0 C20.94 0, 41.87 0, 57.35 0 M57.35 0 C57.35 25.75, 57.35 51.5, 57.35 87.03 M57.35 0 C57.35 31.07, 57.35 62.14, 57.35 87.03 M57.35 87.03 C41.88 87.03, 26.41 87.03, 0 87.03 M57.35 87.03 C43.92 87.03, 30.49 87.03, 0 87.03 M0 87.03 C0 61.4, 0 35.77, 0 0 M0 87.03 C0 60.76, 0 34.5, 0 0" stroke="#000000" stroke-width="1" fill="none"></path></g><g stroke-linecap="round"><g transform="translate(37.13981175782027 118.30417576736556) rotate(0 18.89785035141736 -1.110167873112033)"><path d="M0 0 C5.47 0.02, 26.5 0.55, 32.8 0.13 C39.1 -0.29, 36.96 -2.07, 37.8 -2.51 M0 0 C5.47 0.02, 26.5 0.55, 32.8 0.13 C39.1 -0.29, 36.96 -2.07, 37.8 -2.51" stroke="#000000" stroke-width="1" fill="none"></path></g></g><mask></mask><g stroke-linecap="round"><g transform="translate(38.645196159153784 92.77268645686371) rotate(0 18.48710255382494 -1.1377433044480796)"><path d="M0 0 C2.28 -0.38, 7.5 -2.23, 13.66 -2.27 C19.82 -2.32, 33.09 -0.6, 36.97 -0.27 M0 0 C2.28 -0.38, 7.5 -2.23, 13.66 -2.27 C19.82 -2.32, 33.09 -0.6, 36.97 -0.27" stroke="#000000" stroke-width="1" fill="none"></path></g></g><mask></mask><g stroke-linecap="round"><g transform="translate(38.58304195999449 147.4576708947812) rotate(0 19.610618588415974 0.15129728440595613)"><path d="M0 0 C3.57 -0.03, 16.34 -0.52, 21.43 -0.21 C26.52 0.11, 27.56 2.11, 30.53 1.88 C33.49 1.65, 37.77 -1.02, 39.22 -1.59 M0 0 C3.57 -0.03, 16.34 -0.52, 21.43 -0.21 C26.52 0.11, 27.56 2.11, 30.53 1.88 C33.49 1.65, 37.77 -1.02, 39.22 -1.59" stroke="#000000" stroke-width="1" fill="none"></path></g></g><mask></mask><g stroke-linecap="round"><g transform="translate(35.99944989527569 156.58055989547853) rotate(0 22.07337954288832 -0.6720473976625101)"><path d="M0 0 C1.37 -0.16, 6.07 -0.83, 8.25 -0.95 C10.43 -1.06, 8.21 -0.92, 13.09 -0.68 C17.97 -0.44, 32.36 0.69, 37.54 0.5 C42.71 0.3, 43.05 -1.47, 44.15 -1.86 M0 0 C1.37 -0.16, 6.07 -0.83, 8.25 -0.95 C10.43 -1.06, 8.21 -0.92, 13.09 -0.68 C17.97 -0.44, 32.36 0.69, 37.54 0.5 C42.71 0.3, 43.05 -1.47, 44.15 -1.86" stroke="#000000" stroke-width="1" fill="none"></path></g></g><mask></mask><g stroke-linecap="round"><g transform="translate(36.230576446711325 104.99312429729645) rotate(0 19.03936850016771 0.4953730135011227)"><path d="M0 0 C2.46 -0.08, 8.42 -0.73, 14.76 -0.48 C21.11 -0.22, 34.19 1.19, 38.08 1.53 M0 0 C2.46 -0.08, 8.42 -0.73, 14.76 -0.48 C21.11 -0.22, 34.19 1.19, 38.08 1.53" stroke="#000000" stroke-width="1" fill="none"></path></g></g><mask></mask><g stroke-linecap="round"><g transform="translate(36.317794265666976 132.97350592570632) rotate(0 19.03936850016771 0.5237927151702024)"><path d="M0 0 C1.09 0.19, 4.11 1.24, 6.57 1.16 C9.03 1.08, 9.51 -0.54, 14.76 -0.48 C20.01 -0.42, 34.19 1.19, 38.08 1.53 M0 0 C1.09 0.19, 4.11 1.24, 6.57 1.16 C9.03 1.08, 9.51 -0.54, 14.76 -0.48 C20.01 -0.42, 34.19 1.19, 38.08 1.53" stroke="#000000" stroke-width="1" fill="none"></path></g></g><mask></mask><g stroke-linecap="round" transform="translate(604.3245849609375 61.798858642578125) rotate(0 61.745574951171875 54.000877380371094)"><path d="M0 0 L123.49 0 L123.49 108 L0 108" stroke="none" stroke-width="0" fill="#fff"></path><path d="M0 0 C28.26 0, 56.51 0, 123.49 0 M0 0 C36.33 0, 72.66 0, 123.49 0 M123.49 0 C123.49 36.58, 123.49 73.16, 123.49 108 M123.49 0 C123.49 36.5, 123.49 73.01, 123.49 108 M123.49 108 C93.31 108, 63.13 108, 0 108 M123.49 108 C94.74 108, 65.99 108, 0 108 M0 108 C0 78.31, 0 48.62, 0 0 M0 108 C0 80.77, 0 53.55, 0 0" stroke="#000000" stroke-width="1" fill="none"></path></g><g transform="translate(609.511962890625 65.47868194580079) rotate(0 28.125 9.599999999999994)"><text x="0" y="0" font-family="Cascadia, Segoe UI Emoji" font-size="16px" fill="#000000" text-anchor="start" style="white-space: pre;" direction="ltr" dominant-baseline="text-before-edge">master</text></g><g transform="translate(607.1561737060547 13.50380935668943) rotate(0 18.75 9.599999999999994)"><text x="0" y="0" font-family="Cascadia, Segoe UI Emoji" font-size="16px" fill="#000000" text-anchor="start" style="white-space: pre;" direction="ltr" dominant-baseline="text-before-edge">HEAD</text></g><g stroke-linecap="round" transform="translate(329.83074951171875 62.64447784423828) rotate(0 64.67508000607631 58.670433044433594)"><path d="M0 0 L129.35 0 L129.35 117.34 L0 117.34" stroke="none" stroke-width="0" fill="#ced4da"></path><path d="M0 0 C29.6 0, 59.19 0, 129.35 0 M0 0 C38.05 0, 76.1 0, 129.35 0 M129.35 0 C129.35 39.74, 129.35 79.48, 129.35 117.34 M129.35 0 C129.35 39.66, 129.35 79.32, 129.35 117.34 M129.35 117.34 C97.74 117.34, 66.12 117.34, 0 117.34 M129.35 117.34 C99.24 117.34, 69.12 117.34, 0 117.34 M0 117.34 C0 85.08, 0 52.82, 0 0 M0 117.34 C0 87.76, 0 58.18, 0 0" stroke="#000000" stroke-width="1" fill="none"></path></g><g transform="translate(335.13370536852653 68.92428002338707) rotate(0 25.546875 10.466462161049805)"><text x="0" y="0" font-family="Cascadia, Segoe UI Emoji" font-size="17.444103601749674px" fill="#000000" text-anchor="start" style="white-space: pre;" direction="ltr" dominant-baseline="text-before-edge">index</text></g><g stroke-linecap="round" transform="translate(377.8668980288361 107.51216639867016) rotate(0 17.223835397249047 26.136213136479967)"><path d="M0 0 L34.45 0 L34.45 52.27 L0 52.27" stroke="none" stroke-width="0" fill="#fff"></path><path d="M0 0 C9.22 0, 18.43 0, 34.45 0 M0 0 C8.67 0, 17.34 0, 34.45 0 M34.45 0 C34.45 12.12, 34.45 24.24, 34.45 52.27 M34.45 0 C34.45 18.17, 34.45 36.35, 34.45 52.27 M34.45 52.27 C23.58 52.27, 12.71 52.27, 0 52.27 M34.45 52.27 C22.7 52.27, 10.96 52.27, 0 52.27 M0 52.27 C0 37.41, 0 22.54, 0 0 M0 52.27 C0 31.89, 0 11.51, 0 0" stroke="#000000" stroke-width="1" fill="none"></path></g><g stroke-linecap="round" transform="translate(374.18839336709686 104.09068110146649) rotate(0 17.223835397249047 26.136213136479967)"><path d="M0 0 L34.45 0 L34.45 52.27 L0 52.27" stroke="none" stroke-width="0" fill="#fff"></path><path d="M0 0 C7.16 0, 14.31 0, 34.45 0 M0 0 C12.11 0, 24.23 0, 34.45 0 M34.45 0 C34.45 15.22, 34.45 30.44, 34.45 52.27 M34.45 0 C34.45 10.61, 34.45 21.23, 34.45 52.27 M34.45 52.27 C26.75 52.27, 19.05 52.27, 0 52.27 M34.45 52.27 C22.99 52.27, 11.53 52.27, 0 52.27 M0 52.27 C0 37.83, 0 23.39, 0 0 M0 52.27 C0 41.02, 0 29.78, 0 0" stroke="#000000" stroke-width="1" fill="none"></path></g><g stroke-linecap="round" transform="translate(369.60936900591037 100.06785208469881) rotate(0 17.223835397249047 26.136213136479967)"><path d="M0 0 L34.45 0 L34.45 52.27 L0 52.27" stroke="none" stroke-width="0" fill="#fff"></path><path d="M0 0 C8.11 0, 16.22 0, 34.45 0 M0 0 C10.74 0, 21.48 0, 34.45 0 M34.45 0 C34.45 11.64, 34.45 23.28, 34.45 52.27 M34.45 0 C34.45 14.52, 34.45 29.04, 34.45 52.27 M34.45 52.27 C24.79 52.27, 15.13 52.27, 0 52.27 M34.45 52.27 C24.92 52.27, 15.4 52.27, 0 52.27 M0 52.27 C0 41.58, 0 30.89, 0 0 M0 52.27 C0 32.4, 0 12.53, 0 0" stroke="#000000" stroke-width="1" fill="none"></path></g><g stroke-linecap="round"><g transform="translate(375.45137195829216 123.8265178293392) rotate(0 11.351153599729287 -0.666831719737587)"><path d="M0 0 C3.28 0.01, 15.92 0.33, 19.7 0.08 C23.49 -0.17, 22.2 -1.24, 22.7 -1.51 M0 0 C3.28 0.01, 15.92 0.33, 19.7 0.08 C23.49 -0.17, 22.2 -1.24, 22.7 -1.51" stroke="#000000" stroke-width="1" fill="none"></path></g></g><mask></mask><g stroke-linecap="round"><g transform="translate(376.35559382736255 108.49081289972452) rotate(0 11.10443446212787 -0.6833951357269257)"><path d="M0 0 C1.37 -0.23, 4.5 -1.34, 8.2 -1.37 C11.91 -1.39, 19.87 -0.36, 22.21 -0.16 M0 0 C1.37 -0.23, 4.5 -1.34, 8.2 -1.37 C11.91 -1.39, 19.87 -0.36, 22.21 -0.16" stroke="#000000" stroke-width="1" fill="none"></path></g></g><mask></mask><g stroke-linecap="round"><g transform="translate(376.31826038210795 141.33781117786737) rotate(0 11.779283867919958 0.09087799313562073)"><path d="M0 0 C2.15 -0.02, 9.82 -0.31, 12.87 -0.12 C15.93 0.06, 16.55 1.27, 18.34 1.13 C20.12 0.99, 22.69 -0.61, 23.56 -0.96 M0 0 C2.15 -0.02, 9.82 -0.31, 12.87 -0.12 C15.93 0.06, 16.55 1.27, 18.34 1.13 C20.12 0.99, 22.69 -0.61, 23.56 -0.96" stroke="#000000" stroke-width="1" fill="none"></path></g></g><mask></mask><g stroke-linecap="round"><g transform="translate(374.766403963504 146.8175515924924) rotate(0 13.258562058496523 -0.40367095173837697)"><path d="M0 0 C0.83 -0.09, 3.64 -0.5, 4.95 -0.57 C6.27 -0.64, 4.93 -0.56, 7.86 -0.41 C10.79 -0.27, 19.44 0.42, 22.55 0.3 C25.66 0.18, 25.86 -0.88, 26.52 -1.12 M0 0 C0.83 -0.09, 3.64 -0.5, 4.95 -0.57 C6.27 -0.64, 4.93 -0.56, 7.86 -0.41 C10.79 -0.27, 19.44 0.42, 22.55 0.3 C25.66 0.18, 25.86 -0.88, 26.52 -1.12" stroke="#000000" stroke-width="1" fill="none"></path></g></g><mask></mask><g stroke-linecap="round"><g transform="translate(374.9052320808578 115.83112221550294) rotate(0 11.436157672348259 0.2975499890647484)"><path d="M0 0 C1.48 -0.05, 5.06 -0.44, 8.87 -0.29 C12.68 -0.14, 20.54 0.72, 22.87 0.92 M0 0 C1.48 -0.05, 5.06 -0.44, 8.87 -0.29 C12.68 -0.14, 20.54 0.72, 22.87 0.92" stroke="#000000" stroke-width="1" fill="none"></path></g></g><mask></mask><g stroke-linecap="round"><g transform="translate(374.95762020126244 132.63777502187912) rotate(0 11.436157672348259 0.3146205231681449)"><path d="M0 0 C0.66 0.12, 2.47 0.74, 3.94 0.7 C5.42 0.65, 5.71 -0.33, 8.87 -0.29 C12.02 -0.25, 20.54 0.72, 22.87 0.92 M0 0 C0.66 0.12, 2.47 0.74, 3.94 0.7 C5.42 0.65, 5.71 -0.33, 8.87 -0.29 C12.02 -0.25, 20.54 0.72, 22.87 0.92" stroke="#000000" stroke-width="1" fill="none"></path></g></g><mask></mask><g stroke-linecap="round" transform="translate(647.921987958051 102.21539325827439) rotate(0 16.346397552670055 24.804749964021113)"><path d="M0 0 L32.69 0 L32.69 49.61 L0 49.61" stroke="none" stroke-width="0" fill="#fff"></path><path d="M0 0 C10.84 0, 21.69 0, 32.69 0 M0 0 C7.28 0, 14.55 0, 32.69 0 M32.69 0 C32.69 15.83, 32.69 31.66, 32.69 49.61 M32.69 0 C32.69 17.81, 32.69 35.61, 32.69 49.61 M32.69 49.61 C21.44 49.61, 10.19 49.61, 0 49.61 M32.69 49.61 C25.8 49.61, 18.91 49.61, 0 49.61 M0 49.61 C0 33.84, 0 18.07, 0 0 M0 49.61 C0 34.84, 0 20.08, 0 0" stroke="#000000" stroke-width="1" fill="none"></path></g><g stroke-linecap="round" transform="translate(644.4308782131366 98.9682094807495) rotate(0 16.346397552670055 24.804749964021127)"><path d="M0 0 L32.69 0 L32.69 49.61 L0 49.61" stroke="none" stroke-width="0" fill="#fff"></path><path d="M0 0 C9.04 0, 18.07 0, 32.69 0 M0 0 C10.6 0, 21.2 0, 32.69 0 M32.69 0 C32.69 17.67, 32.69 35.34, 32.69 49.61 M32.69 0 C32.69 11.63, 32.69 23.27, 32.69 49.61 M32.69 49.61 C25.78 49.61, 18.86 49.61, 0 49.61 M32.69 49.61 C23.67 49.61, 14.65 49.61, 0 49.61 M0 49.61 C0 30.03, 0 10.46, 0 0 M0 49.61 C0 31.99, 0 14.38, 0 0" stroke="#000000" stroke-width="1" fill="none"></path></g><g stroke-linecap="round" transform="translate(640.0851241528492 95.15031637634809) rotate(0 16.346397552670055 24.804749964021113)"><path d="M0 0 L32.69 0 L32.69 49.61 L0 49.61" stroke="none" stroke-width="0" fill="#fff"></path><path d="M0 0 C7.81 0, 15.61 0, 32.69 0 M0 0 C12.32 0, 24.65 0, 32.69 0 M32.69 0 C32.69 16.92, 32.69 33.84, 32.69 49.61 M32.69 0 C32.69 18.82, 32.69 37.64, 32.69 49.61 M32.69 49.61 C22.7 49.61, 12.72 49.61, 0 49.61 M32.69 49.61 C24.05 49.61, 15.41 49.61, 0 49.61 M0 49.61 C0 39.35, 0 29.1, 0 0 M0 49.61 C0 32.55, 0 15.49, 0 0" stroke="#000000" stroke-width="1" fill="none"></path></g><g stroke-linecap="round"><g transform="translate(645.6295165928024 117.69863889718022) rotate(0 10.77288914710789 -0.6328611566563325)"><path d="M0 0 C3.12 0.01, 15.11 0.31, 18.7 0.07 C22.29 -0.17, 21.07 -1.18, 21.55 -1.43 M0 0 C3.12 0.01, 15.11 0.31, 18.7 0.07 C22.29 -0.17, 21.07 -1.18, 21.55 -1.43" stroke="#000000" stroke-width="1" fill="none"></path></g></g><mask></mask><g stroke-linecap="round"><g transform="translate(646.4876744773118 103.14418434346547) rotate(0 10.538738679800872 -0.6485807787002642)"><path d="M0 0 C1.3 -0.22, 4.27 -1.27, 7.79 -1.3 C11.3 -1.32, 18.86 -0.34, 21.08 -0.15 M0 0 C1.3 -0.22, 4.27 -1.27, 7.79 -1.3 C11.3 -1.32, 18.86 -0.34, 21.08 -0.15" stroke="#000000" stroke-width="1" fill="none"></path></g></g><mask></mask><g stroke-linecap="round"><g transform="translate(646.4522429184245 134.31785036399356) rotate(0 11.179209075669974 0.08624837443704791)"><path d="M0 0 C2.04 -0.02, 9.32 -0.3, 12.22 -0.12 C15.12 0.06, 15.71 1.2, 17.4 1.07 C19.09 0.94, 21.53 -0.58, 22.36 -0.91 M0 0 C2.04 -0.02, 9.32 -0.3, 12.22 -0.12 C15.12 0.06, 15.71 1.2, 17.4 1.07 C19.09 0.94, 21.53 -0.58, 22.36 -0.91" stroke="#000000" stroke-width="1" fill="none"></path></g></g><mask></mask><g stroke-linecap="round"><g transform="translate(644.9794430815651 139.5184350907379) rotate(0 12.583128054019085 -0.3831066487452688)"><path d="M0 0 C0.78 -0.09, 3.46 -0.47, 4.7 -0.54 C5.95 -0.6, 4.68 -0.53, 7.46 -0.39 C10.24 -0.25, 18.45 0.4, 21.4 0.28 C24.35 0.17, 24.54 -0.84, 25.17 -1.06 M0 0 C0.78 -0.09, 3.46 -0.47, 4.7 -0.54 C5.95 -0.6, 4.68 -0.53, 7.46 -0.39 C10.24 -0.25, 18.45 0.4, 21.4 0.28 C24.35 0.17, 24.54 -0.84, 25.17 -1.06" stroke="#000000" stroke-width="1" fill="none"></path></g></g><mask></mask><g stroke-linecap="round"><g transform="translate(645.1111988459122 110.11055457796311) rotate(0 10.853562837524578 0.2823918309055671)"><path d="M0 0 C1.4 -0.05, 4.8 -0.42, 8.42 -0.27 C12.03 -0.13, 19.49 0.68, 21.71 0.87 M0 0 C1.4 -0.05, 4.8 -0.42, 8.42 -0.27 C12.03 -0.13, 19.49 0.68, 21.71 0.87" stroke="#000000" stroke-width="1" fill="none"></path></g></g><mask></mask><g stroke-linecap="round"><g transform="translate(645.1609181461389 126.06102216932203) rotate(0 10.853562837524578 0.29859273682777143)"><path d="M0 0 C0.62 0.11, 2.34 0.71, 3.74 0.66 C5.15 0.61, 5.42 -0.31, 8.42 -0.27 C11.41 -0.24, 19.49 0.68, 21.71 0.87 M0 0 C0.62 0.11, 2.34 0.71, 3.74 0.66 C5.15 0.61, 5.42 -0.31, 8.42 -0.27 C11.41 -0.24, 19.49 0.68, 21.71 0.87" stroke="#000000" stroke-width="1" fill="none"></path></g></g><mask></mask><g stroke-linecap="round"><g transform="translate(552.3502806799131 201.0066384101446) rotate(0 21.943622153819376 23.61336602929751)" fill-rule="evenodd"><path d="M0.88 -0.71 L0.06 46.8 L3.6 48.54 L10.49 51.77 L23.02 53.42 L34.21 50.29 L42.42 47.64 L42.41 47.47 L43.94 -2 L36.94 -1 L22.09 -4.27 L6.7 -4.13 L0.48 -1.39" stroke="none" stroke-width="0" fill="#228be6" fill-rule="evenodd"></path><path d="M0.74 0.83 C0.66 8.09, -0.56 35.33, -0.58 43.12 C-0.6 50.92, -0.01 46.62, 0.64 47.61 C1.29 48.61, 1.74 48.61, 3.31 49.11 C4.88 49.6, 6.93 50.11, 10.08 50.57 C13.23 51.03, 18.09 51.63, 22.22 51.84 C26.36 52.05, 31.52 52.13, 34.87 51.81 C38.22 51.5, 40.97 50.62, 42.3 49.94 C43.62 49.25, 42.52 48.92, 42.82 47.71 C43.13 46.49, 43.84 49.92, 44.13 42.65 C44.42 35.38, 44.74 11.24, 44.55 4.07 C44.36 -3.1, 43.46 0.54, 42.98 -0.39 C42.49 -1.33, 42.97 -0.95, 41.64 -1.54 C40.31 -2.12, 38.48 -3.45, 35.01 -3.9 C31.53 -4.36, 24.92 -4.14, 20.78 -4.26 C16.64 -4.37, 13.2 -5.15, 10.17 -4.61 C7.14 -4.06, 4.33 -1.62, 2.61 -0.99 C0.9 -0.36, 0.38 -1.15, -0.11 -0.82 C-0.6 -0.49, -0.17 0.78, -0.32 1.01 M-0.33 0.22 C-0.02 7.15, 1.66 33.08, 1.75 41.2 C1.84 49.32, 0.42 47.48, 0.2 48.93 C-0.02 50.38, -0.95 49.63, 0.45 49.89 C1.85 50.15, 4.83 50.34, 8.6 50.47 C12.37 50.61, 18.66 50.63, 23.05 50.69 C27.44 50.75, 31.92 50.91, 34.92 50.81 C37.92 50.7, 39.48 50.77, 41.05 50.06 C42.63 49.35, 43.7 47.93, 44.37 46.55 C45.04 45.18, 44.92 48.7, 45.08 41.83 C45.23 34.96, 45.34 12.43, 45.32 5.31 C45.3 -1.82, 45.46 0.28, 44.97 -0.93 C44.48 -2.15, 44.14 -1.42, 42.39 -1.98 C40.64 -2.54, 38.04 -3.86, 34.45 -4.31 C30.87 -4.76, 24.77 -4.78, 20.88 -4.68 C16.98 -4.58, 14.28 -3.93, 11.09 -3.73 C7.9 -3.52, 3.84 -3.93, 1.75 -3.46 C-0.34 -2.98, -1.45 -1.74, -1.44 -0.87 C-1.44 0.01, 1.72 1.81, 1.79 1.79" stroke="#0a11d3" stroke-width="1" fill="none"></path></g></g><mask></mask><g stroke-linecap="round"><g transform="translate(552.6917364167697 233.4403517814584) rotate(0 22.245376037769347 2.1536288645055777)"><path d="M-0.72 0.38 C-0.55 0.56, 0.47 1.51, 1.79 1.94 C3.11 2.37, 5.37 2.67, 7.19 2.96 C9.02 3.24, 10.28 3.38, 12.76 3.63 C15.23 3.87, 18.48 4.26, 22.05 4.43 C25.61 4.61, 30.85 4.97, 34.16 4.66 C37.48 4.36, 40.47 3.36, 41.95 2.62 C43.43 1.88, 42.65 0.81, 43.02 0.22 M1.1 -0.47 C1.1 -0.16, 0.19 2.74, 1.17 3.48 C2.15 4.21, 5.01 3.82, 6.98 3.95 C8.95 4.08, 10.22 4.12, 13 4.24 C15.77 4.37, 19.99 4.76, 23.65 4.71 C27.32 4.67, 31.87 4.46, 34.99 3.96 C38.11 3.47, 40.67 2.38, 42.37 1.74 C44.08 1.09, 45.16 0.23, 45.21 0.11" stroke="#0a11d3" stroke-width="1" fill="none"></path></g></g><mask></mask><g stroke-linecap="round"><g transform="translate(552.1484062108957 217.01033883127815) rotate(0 21.851504869424218 2.2143647327376357)"><path d="M0.63 0 C1.12 0.16, 1.29 0.89, 2.21 1.33 C3.13 1.77, 4.55 2.14, 6.12 2.64 C7.7 3.14, 9 3.9, 11.66 4.34 C14.31 4.79, 18.17 5.2, 22.04 5.29 C25.91 5.38, 31.62 5.42, 34.87 4.9 C38.12 4.38, 39.97 3.14, 41.52 2.17 C43.08 1.2, 43.67 -0.6, 44.2 -0.92 M-0.5 -1.05 C-0.01 -0.77, 0.84 1.79, 1.81 2.54 C2.79 3.3, 3.77 3.01, 5.35 3.47 C6.93 3.94, 8.27 4.91, 11.32 5.34 C14.37 5.76, 19.51 6.19, 23.64 6.02 C27.76 5.85, 33.05 5.15, 36.06 4.33 C39.07 3.5, 40.51 2.05, 41.72 1.06 C42.94 0.06, 43.05 -1.31, 43.35 -1.63" stroke="#0a11d3" stroke-width="1" fill="none"></path></g></g><mask></mask><g stroke-linecap="round" transform="translate(551.591623082428 197.02026703714336) rotate(0 21.770819431734765 4.402984441468618)"><path d="M23.93 -0.63 C28.44 -0.71, 34.04 0.57, 37.4 1.21 C40.77 1.85, 43.72 2.12, 44.12 3.21 C44.53 4.3, 42.82 6.97, 39.82 7.75 C36.83 8.53, 30.76 7.68, 26.17 7.89 C21.57 8.1, 16.39 9.46, 12.27 9.01 C8.15 8.56, 3.42 6.33, 1.46 5.21 C-0.51 4.08, -1.08 2.94, 0.47 2.26 C2.01 1.59, 6.38 1.45, 10.71 1.16 C15.05 0.88, 23.74 0.62, 26.48 0.57 C29.22 0.52, 27.16 1.02, 27.14 0.86 M26.6 -0.66 C31.09 -0.44, 35.55 1.13, 38.24 2.22 C40.94 3.31, 42.96 4.85, 42.79 5.86 C42.63 6.87, 40.45 7.81, 37.23 8.25 C34.01 8.7, 27.97 8.52, 23.48 8.52 C18.99 8.51, 14.23 8.82, 10.29 8.21 C6.34 7.6, 1.11 5.97, -0.16 4.86 C-1.42 3.74, 0.96 2.41, 2.69 1.52 C4.42 0.62, 6.54 -0.48, 10.23 -0.53 C13.91 -0.57, 22.06 1.36, 24.82 1.27 C27.58 1.18, 26.47 -1.2, 26.77 -1.08" stroke="none" stroke-width="0" fill="#fff"></path><path d="M21.46 -0.94 C26.1 -0.9, 32.45 0.02, 36.2 0.66 C39.94 1.3, 43.11 1.87, 43.92 2.91 C44.73 3.94, 43.59 5.8, 41.06 6.86 C38.53 7.91, 33.13 9.03, 28.77 9.24 C24.4 9.46, 19.19 8.45, 14.86 8.15 C10.53 7.85, 5.13 8.16, 2.8 7.46 C0.48 6.75, 0.16 5.03, 0.92 3.91 C1.67 2.78, 3.44 1.36, 7.32 0.68 C11.21 0.01, 21.15 -0.18, 24.21 -0.16 C27.26 -0.14, 25.61 0.71, 25.65 0.8 M13.44 0.92 C17.72 0.28, 25.69 -0.35, 30.27 -0.24 C34.85 -0.13, 38.6 0.82, 40.92 1.58 C43.23 2.35, 45 3.29, 44.14 4.37 C43.28 5.44, 39.58 7.13, 35.74 8.04 C31.91 8.95, 26.05 10, 21.12 9.84 C16.18 9.67, 9.64 8.04, 6.12 7.07 C2.61 6.1, 0.72 4.88, 0.04 4.03 C-0.63 3.18, -0.39 2.77, 2.08 1.97 C4.55 1.17, 12.91 -0.75, 14.86 -0.78 C16.81 -0.81, 13.59 1.51, 13.8 1.78" stroke="#0a11d3" stroke-width="1" fill="none"></path></g><g stroke-linecap="round" transform="translate(587.1150051104541 209.2286141552711) rotate(0 3.190722279000738 3.4629104244338578)"><path d="M3.87 -0.03 C4.68 0.09, 5.96 -0.15, 6.48 0.62 C6.99 1.39, 7.26 3.83, 6.98 4.59 C6.7 5.35, 5.35 4.69, 4.8 5.19 C4.26 5.69, 4.33 7.58, 3.69 7.6 C3.05 7.62, 1.66 6.01, 0.98 5.31 C0.3 4.6, -0.42 3.88, -0.38 3.38 C-0.34 2.89, 0.78 2.78, 1.2 2.34 C1.62 1.91, 1.77 1.01, 2.14 0.75 C2.51 0.5, 2.94 1.02, 3.43 0.81 C3.91 0.59, 4.84 -0.37, 5.04 -0.54 M2.62 0.55 C3.07 0.86, 4.03 1.61, 4.51 2.16 C5 2.7, 5.52 3.34, 5.51 3.8 C5.5 4.27, 4.69 4.47, 4.47 4.96 C4.25 5.46, 4.8 6.64, 4.19 6.78 C3.58 6.91, 1.25 6.25, 0.81 5.77 C0.38 5.3, 1.91 4.58, 1.59 3.92 C1.26 3.25, -0.84 2.11, -1.13 1.79 C-1.43 1.47, -1.02 2.49, -0.17 1.98 C0.67 1.47, 3.2 -1.18, 3.92 -1.25 C4.64 -1.32, 4.44 1.47, 4.13 1.56" stroke="none" stroke-width="0" fill="#fff"></path><path d="M2.3 0.02 C3.01 -0.3, 4.03 -0.89, 4.67 -0.61 C5.3 -0.33, 5.93 0.84, 6.12 1.67 C6.31 2.51, 5.83 3.75, 5.79 4.38 C5.76 5.01, 6.32 4.88, 5.91 5.44 C5.51 6, 4.02 7.54, 3.38 7.73 C2.73 7.92, 2.64 7.2, 2.04 6.59 C1.45 5.99, 0.05 4.87, -0.21 4.09 C-0.48 3.31, 0.21 2.44, 0.47 1.91 C0.73 1.37, 0.95 1.18, 1.34 0.9 C1.73 0.61, 2.82 0.29, 2.83 0.2 M5.15 -0.23 C5.99 -0.21, 5.79 0.65, 6.15 1.26 C6.5 1.87, 7.42 2.55, 7.29 3.42 C7.16 4.29, 6.12 5.72, 5.36 6.47 C4.6 7.23, 3.68 8.14, 2.73 7.95 C1.77 7.75, 0.12 6.16, -0.37 5.3 C-0.85 4.43, -0.18 3.42, -0.2 2.77 C-0.22 2.11, -0.94 1.97, -0.5 1.36 C-0.05 0.76, 1.8 -0.95, 2.46 -0.88 C3.11 -0.82, 2.99 1.52, 3.43 1.76 C3.88 2, 4.83 0.88, 5.12 0.54" stroke="#0a11d3" stroke-width="1" fill="none"></path></g><g stroke-linecap="round" transform="translate(587.1150051104541 224.43077789517957) rotate(0 3.190722279000738 3.4629104244338578)"><path d="M2.76 -0.76 C3.51 -0.88, 4.51 0.65, 4.96 0.94 C5.4 1.23, 5.13 0.34, 5.41 0.98 C5.69 1.63, 6.73 4.09, 6.65 4.8 C6.56 5.5, 5.56 5.01, 4.9 5.22 C4.24 5.43, 3.16 5.84, 2.67 6.06 C2.18 6.27, 2.36 6.79, 1.95 6.52 C1.55 6.26, 0.64 5.19, 0.24 4.48 C-0.16 3.77, -0.91 3.15, -0.45 2.26 C0.02 1.38, 2.41 -0.35, 3.03 -0.84 C3.65 -1.33, 3.34 -0.95, 3.26 -0.69 M1.66 1.44 C2.24 1.29, 3.26 1.21, 3.75 1.27 C4.24 1.33, 4.22 1.27, 4.63 1.8 C5.03 2.33, 6.33 3.86, 6.18 4.45 C6.03 5.05, 4.07 5.19, 3.72 5.39 C3.36 5.58, 4.71 5.74, 4.04 5.64 C3.37 5.55, 0.61 4.95, -0.28 4.83 C-1.17 4.7, -1.58 5.67, -1.32 4.9 C-1.05 4.13, 0.54 0.74, 1.32 0.19 C2.09 -0.36, 3.34 1.77, 3.33 1.6 C3.32 1.42, 1.3 -0.7, 1.26 -0.86" stroke="none" stroke-width="0" fill="#fff"></path><path d="M2.49 -0.33 C3.02 -0.58, 3.84 -0.04, 4.28 0.37 C4.73 0.77, 4.75 1.62, 5.16 2.1 C5.58 2.58, 6.75 2.49, 6.78 3.25 C6.81 4.01, 5.77 6.01, 5.33 6.66 C4.9 7.31, 4.89 7.25, 4.18 7.14 C3.47 7.03, 1.74 6.47, 1.1 6 C0.46 5.52, 0.59 4.83, 0.35 4.28 C0.11 3.74, -0.72 3.4, -0.33 2.72 C0.06 2.03, 2.37 0.64, 2.69 0.18 C3.01 -0.28, 1.55 0.04, 1.59 -0.04 M4 -0.6 C4.7 -0.54, 6.3 -0.25, 6.75 0.5 C7.19 1.24, 6.92 2.8, 6.68 3.86 C6.43 4.92, 6.02 6.46, 5.28 6.86 C4.54 7.26, 2.91 6.5, 2.24 6.25 C1.56 5.99, 1.75 5.63, 1.23 5.31 C0.71 4.99, -0.77 5.02, -0.9 4.31 C-1.04 3.61, 0.13 1.5, 0.4 1.09 C0.66 0.68, -0.01 1.97, 0.69 1.83 C1.38 1.7, 3.89 0.7, 4.57 0.27 C5.25 -0.16, 4.81 -0.58, 4.74 -0.73" stroke="#0a11d3" stroke-width="1" fill="none"></path></g><g stroke-linecap="round" transform="translate(587.1150051104541 240.95350995790716) rotate(0 3.190722279000738 3.4629104244338578)"><path d="M3.53 0.72 C3.98 0.64, 3.94 -0.59, 4.45 -0.17 C4.96 0.24, 6.37 2.54, 6.6 3.24 C6.82 3.94, 6.2 3.58, 5.78 4 C5.36 4.41, 4.5 5.19, 4.08 5.73 C3.65 6.28, 3.77 7.22, 3.22 7.25 C2.67 7.29, 1.47 6.51, 0.78 5.92 C0.1 5.34, -1 4.72, -0.89 3.75 C-0.77 2.77, 0.72 0.85, 1.47 0.09 C2.21 -0.66, 3.26 -0.82, 3.59 -0.77 C3.93 -0.73, 3.62 0.26, 3.47 0.39 M2.95 0.99 C3.47 0.81, 3.62 0.59, 4.18 1.02 C4.74 1.45, 6.27 2.92, 6.3 3.55 C6.33 4.18, 4.58 4.43, 4.34 4.77 C4.11 5.12, 5.54 5.51, 4.88 5.61 C4.22 5.72, 1.39 5.36, 0.38 5.39 C-0.62 5.42, -1.23 6.53, -1.14 5.8 C-1.05 5.06, 0.31 1.64, 0.92 1 C1.53 0.35, 2.26 2.27, 2.54 1.94 C2.83 1.61, 2.31 -0.7, 2.61 -0.98 C2.92 -1.25, 4.27 0.11, 4.38 0.3" stroke="none" stroke-width="0" fill="#fff"></path><path d="M3 0.33 C3.41 0.4, 3.6 0.92, 4.2 1.18 C4.8 1.43, 6.29 1.16, 6.59 1.88 C6.89 2.59, 6.2 4.67, 6.01 5.47 C5.81 6.28, 6.02 6.53, 5.4 6.7 C4.78 6.87, 3.03 6.71, 2.29 6.51 C1.55 6.31, 1.44 5.91, 0.96 5.51 C0.48 5.1, -0.67 4.8, -0.59 4.08 C-0.51 3.36, 0.96 1.89, 1.45 1.16 C1.94 0.44, 1.89 0.06, 2.36 -0.26 C2.82 -0.58, 4.05 -0.95, 4.24 -0.77 M3.64 -0.83 C4.3 -0.85, 4.69 -0.02, 5.08 0.67 C5.46 1.36, 5.99 2.75, 5.95 3.3 C5.91 3.85, 5.08 3.64, 4.85 3.99 C4.62 4.34, 5.11 4.95, 4.57 5.4 C4.03 5.86, 2.21 6.84, 1.6 6.72 C0.99 6.6, 1.34 4.98, 0.89 4.68 C0.45 4.38, -1.14 5.47, -1.06 4.93 C-0.97 4.39, 0.64 2.38, 1.4 1.42 C2.15 0.46, 3.21 -0.44, 3.48 -0.84 C3.74 -1.23, 2.98 -1.02, 3 -0.92" stroke="#0a11d3" stroke-width="1" fill="none"></path></g><g transform="translate(545.5305633544922 255.32130813598633) rotate(0 32.8125 9.599999999999994)"><text x="0" y="0" font-family="Cascadia, Segoe UI Emoji" font-size="16px" fill="#000000" text-anchor="start" style="white-space: pre;" direction="ltr" dominant-baseline="text-before-edge">objects</text></g><g stroke-linecap="round"><g transform="translate(134.68957494049283 98.90890309209988) rotate(0 90.59366504510487 -1.2619421093849468)"><path d="M0 0 C65.51 -0.91, 131.02 -1.83, 181.19 -2.52 M0 0 C43.13 -0.6, 86.27 -1.2, 181.19 -2.52" stroke="#000000" stroke-width="1" fill="none"></path></g><g transform="translate(134.68957494049283 98.90890309209988) rotate(0 90.59366504510487 -1.2619421093849468)"><path d="M181.19 -2.52 L167.68 4 L167.51 -8.67 L181.19 -2.52" stroke="none" stroke-width="0" fill="#000000" fill-rule="evenodd"></path><path d="M181.19 -2.52 C176.3 -0.16, 171.42 2.2, 167.68 4 M181.19 -2.52 C177.97 -0.97, 174.76 0.58, 167.68 4 M167.68 4 C167.63 0.42, 167.58 -3.16, 167.51 -8.67 M167.68 4 C167.64 0.78, 167.59 -2.45, 167.51 -8.67 M167.51 -8.67 C172.89 -6.25, 178.27 -3.83, 181.19 -2.52 M167.51 -8.67 C171.62 -6.82, 175.73 -4.98, 181.19 -2.52 M181.19 -2.52 C181.19 -2.52, 181.19 -2.52, 181.19 -2.52 M181.19 -2.52 C181.19 -2.52, 181.19 -2.52, 181.19 -2.52" stroke="#000000" stroke-width="1" fill="none"></path></g></g><mask></mask><g stroke-linecap="round"><g transform="translate(312.072280436286 154.77026114607276) rotate(0 -90.60116285532044 0.31774111860451626)"><path d="M0 0 C-42.57 0.15, -85.14 0.3, -181.2 0.64 M0 0 C-68.16 0.24, -136.31 0.48, -181.2 0.64" stroke="#000000" stroke-width="1" fill="none"></path></g><g transform="translate(312.072280436286 154.77026114607276) rotate(0 -90.60116285532044 0.31774111860451626)"><path d="M-181.2 0.64 L-167.63 -5.75 L-167.59 6.93 L-181.2 0.64" stroke="none" stroke-width="0" fill="#000000" fill-rule="evenodd"></path><path d="M-181.2 0.64 C-178.01 -0.87, -174.83 -2.37, -167.63 -5.75 M-181.2 0.64 C-176.1 -1.77, -170.99 -4.17, -167.63 -5.75 M-167.63 -5.75 C-167.62 -2.17, -167.6 1.4, -167.59 6.93 M-167.63 -5.75 C-167.62 -2.06, -167.6 1.63, -167.59 6.93 M-167.59 6.93 C-172.81 4.51, -178.04 2.1, -181.2 0.64 M-167.59 6.93 C-171.47 5.13, -175.36 3.34, -181.2 0.64 M-181.2 0.64 C-181.2 0.64, -181.2 0.64, -181.2 0.64 M-181.2 0.64 C-181.2 0.64, -181.2 0.64, -181.2 0.64" stroke="#000000" stroke-width="1" fill="none"></path></g></g><mask></mask><g transform="translate(173.95384216308594 73.80313491821289) rotate(0 32.8125 9.599999999999994)"><text x="0" y="0" font-family="Cascadia, Segoe UI Emoji" font-size="16px" fill="#495057" text-anchor="start" style="white-space: pre;" direction="ltr" dominant-baseline="text-before-edge">git add</text></g><g transform="translate(121.92564392089844 129.47627639770508) rotate(0 103.125 9.599999999999994)"><text x="0" y="0" font-family="Cascadia, Segoe UI Emoji" font-size="16px" fill="#495057" text-anchor="start" style="white-space: pre;" direction="ltr" dominant-baseline="text-before-edge">git checkout -- &lt;file&gt;</text></g><g transform="translate(149.5238800048828 213.46819534301756) rotate(0 112.5 9.599999999999994)"><text x="0" y="0" font-family="Cascadia, Segoe UI Emoji" font-size="16px" fill="#495057" text-anchor="start" style="white-space: pre;" direction="ltr" dominant-baseline="text-before-edge">git checkout HEAD &lt;file&gt;</text></g><g stroke-linecap="round"><g transform="translate(472.8680877685547 77.87894058227539) rotate(0 57.499603271484375 -0.8720626831054688)"><path d="M0 0 C43.62 -0.66, 87.25 -1.32, 115 -1.74 M0 0 C24.13 -0.37, 48.26 -0.73, 115 -1.74" stroke="#000000" stroke-width="1" fill="none"></path></g><g transform="translate(472.8680877685547 77.87894058227539) rotate(0 57.499603271484375 -0.8720626831054688)"><path d="M115 -1.74 L101.5 4.8 L101.31 -7.88 L115 -1.74" stroke="none" stroke-width="0" fill="#000000" fill-rule="evenodd"></path><path d="M115 -1.74 C109.88 0.74, 104.76 3.22, 101.5 4.8 M115 -1.74 C112.17 -0.37, 109.34 1, 101.5 4.8 M101.5 4.8 C101.46 1.99, 101.42 -0.82, 101.31 -7.88 M101.5 4.8 C101.44 0.58, 101.37 -3.64, 101.31 -7.88 M101.31 -7.88 C104.62 -6.4, 107.92 -4.91, 115 -1.74 M101.31 -7.88 C106.66 -5.48, 112.02 -3.08, 115 -1.74 M115 -1.74 C115 -1.74, 115 -1.74, 115 -1.74 M115 -1.74 C115 -1.74, 115 -1.74, 115 -1.74" stroke="#000000" stroke-width="1" fill="none"></path></g></g><mask></mask><g stroke-linecap="round"><g transform="translate(587.6777801513672 124.67815017700195) rotate(0 -59.476104736328125 -0.0562591552734375)"><path d="M0 0 C-30.51 -0.03, -61.02 -0.06, -118.95 -0.11 M0 0 C-27.96 -0.03, -55.93 -0.05, -118.95 -0.11" stroke="#000000" stroke-width="1" fill="none"></path></g><g transform="translate(587.6777801513672 124.67815017700195) rotate(0 -59.476104736328125 -0.0562591552734375)"><path d="M-118.95 -0.11 L-105.35 -6.44 L-105.36 6.24 L-118.95 -0.11" stroke="none" stroke-width="0" fill="#000000" fill-rule="evenodd"></path><path d="M-118.95 -0.11 C-115.46 -1.74, -111.97 -3.36, -105.35 -6.44 M-118.95 -0.11 C-115.76 -1.6, -112.56 -3.09, -105.35 -6.44 M-105.35 -6.44 C-105.36 -2.42, -105.36 1.59, -105.36 6.24 M-105.35 -6.44 C-105.36 -2.7, -105.36 1.03, -105.36 6.24 M-105.36 6.24 C-109.59 4.27, -113.81 2.29, -118.95 -0.11 M-105.36 6.24 C-110.74 3.73, -116.12 1.21, -118.95 -0.11 M-118.95 -0.11 C-118.95 -0.11, -118.95 -0.11, -118.95 -0.11 M-118.95 -0.11 C-118.95 -0.11, -118.95 -0.11, -118.95 -0.11" stroke="#000000" stroke-width="1" fill="none"></path></g></g><mask></mask><g stroke-linecap="round"><g transform="translate(589.4609222412109 160.26298904418945) rotate(0 -59.80311584472656 0.8306121826171875)"><path d="M0 0 C-34.89 0.48, -69.79 0.97, -119.61 1.66 M0 0 C-27.89 0.39, -55.79 0.77, -119.61 1.66" stroke="#000000" stroke-width="1" fill="none"></path></g><g transform="translate(589.4609222412109 160.26298904418945) rotate(0 -59.80311584472656 0.8306121826171875)"><path d="M-119.61 1.66 L-106.1 -4.87 L-105.92 7.81 L-119.61 1.66" stroke="none" stroke-width="0" fill="#000000" fill-rule="evenodd"></path><path d="M-119.61 1.66 C-115.67 -0.24, -111.73 -2.15, -106.1 -4.87 M-119.61 1.66 C-116.46 0.14, -113.31 -1.38, -106.1 -4.87 M-106.1 -4.87 C-106.06 -1.84, -106.02 1.19, -105.92 7.81 M-106.1 -4.87 C-106.05 -0.95, -105.99 2.97, -105.92 7.81 M-105.92 7.81 C-108.9 6.47, -111.88 5.13, -119.61 1.66 M-105.92 7.81 C-110.11 5.93, -114.3 4.05, -119.61 1.66 M-119.61 1.66 C-119.61 1.66, -119.61 1.66, -119.61 1.66 M-119.61 1.66 C-119.61 1.66, -119.61 1.66, -119.61 1.66" stroke="#000000" stroke-width="1" fill="none"></path></g></g><mask></mask><g stroke-linecap="round"><g transform="translate(532.6356353759766 167.42302097132722) rotate(0 -201.26605224609375 20.749702015370104)"><path d="M0 0 C-0.07 8.09, -0.14 16.18, -0.35 39.99 M0 0 C-0.08 8.95, -0.16 17.9, -0.35 39.99 M-0.35 39.99 C-150.1 40.55, -299.84 41.11, -402.53 41.5 M-0.35 39.99 C-103.02 40.38, -205.68 40.76, -402.53 41.5" stroke="#000000" stroke-width="1" fill="none"></path></g><g transform="translate(532.6356353759766 167.42302097132722) rotate(0 -201.26605224609375 20.749702015370104)"><path d="M-402.53 41.5 L-388.96 35.11 L-388.91 47.79 L-402.53 41.5" stroke="none" stroke-width="0" fill="#000000" fill-rule="evenodd"></path><path d="M-402.53 41.5 C-399.79 40.21, -397.04 38.91, -388.96 35.11 M-402.53 41.5 C-399.5 40.07, -396.46 38.64, -388.96 35.11 M-388.96 35.11 C-388.94 39.83, -388.93 44.55, -388.91 47.79 M-388.96 35.11 C-388.95 38.35, -388.94 41.58, -388.91 47.79 M-388.91 47.79 C-393.38 45.73, -397.85 43.66, -402.53 41.5 M-388.91 47.79 C-392.68 46.05, -396.44 44.31, -402.53 41.5 M-402.53 41.5 C-402.53 41.5, -402.53 41.5, -402.53 41.5 M-402.53 41.5 C-402.53 41.5, -402.53 41.5, -402.53 41.5" stroke="#000000" stroke-width="1" fill="none"></path></g></g><mask></mask><g transform="translate(476.58335876464844 53.32761611938474) rotate(0 46.875 9.599999999999994)"><text x="0" y="0" font-family="Cascadia, Segoe UI Emoji" font-size="16px" fill="#495057" text-anchor="start" style="white-space: pre;" direction="ltr" dominant-baseline="text-before-edge">git commit</text></g><g transform="translate(469.91941833496094 94.9245552062988) rotate(0 65.625 9.599999999999994)"><text x="0" y="0" font-family="Cascadia, Segoe UI Emoji" font-size="16px" fill="#495057" text-anchor="start" style="white-space: pre;" direction="ltr" dominant-baseline="text-before-edge">git reset HEAD</text></g><g stroke-linecap="round"><g transform="translate(672.5801239013672 183.7809944152832) rotate(0 -33.22034666158663 23.27230643879784)"><path d="M0 0 C-0.03 11.55, -0.06 23.1, -0.11 45.02 M-0.11 45.02 C-20.78 45.5, -41.46 45.97, -66.44 46.54" stroke="#495057" stroke-width="1.5" fill="none" stroke-dasharray="1.5 7"></path></g><g transform="translate(672.5801239013672 183.7809944152832) rotate(0 -33.22034666158663 23.27230643879784)"><path d="M-66.44 46.54 L-53 39.9 L-52.7 52.57 L-66.44 46.54" stroke="none" stroke-width="0" fill="#495057" fill-rule="evenodd"></path><path d="M-66.44 46.54 C-62.99 44.84, -59.54 43.13, -53 39.9 M-53 39.9 C-52.9 43.85, -52.81 47.8, -52.7 52.57 M-52.7 52.57 C-57.71 50.37, -62.72 48.17, -66.44 46.54 M-66.44 46.54 C-66.44 46.54, -66.44 46.54, -66.44 46.54" stroke="#495057" stroke-width="1.5" fill="none"></path></g></g><mask></mask><g stroke-linecap="round"><g transform="translate(414.29527282714844 188.79875564575195) rotate(0 65.69012451171875 20.252456665039062)"><path d="M0 0 C0.18 8.43, 0.36 16.87, 0.83 39.32 M0.83 39.32 C48.52 39.75, 96.21 40.18, 131.38 40.5" stroke="#495057" stroke-width="1.5" fill="none" stroke-dasharray="1.5 7"></path></g><g transform="translate(414.29527282714844 188.79875564575195) rotate(0 65.69012451171875 20.252456665039062)"><path d="M131.38 40.5 L117.73 46.72 L117.84 34.04 L131.38 40.5" stroke="none" stroke-width="0" fill="#495057" fill-rule="evenodd"></path><path d="M131.38 40.5 C128.45 41.84, 125.52 43.17, 117.73 46.72 M117.73 46.72 C117.77 42.09, 117.81 37.46, 117.84 34.04 M117.84 34.04 C122.58 36.3, 127.31 38.56, 131.38 40.5 M131.38 40.5 C131.38 40.5, 131.38 40.5, 131.38 40.5" stroke="#495057" stroke-width="1.5" fill="none"></path></g></g><mask></mask><g stroke-linecap="round"><g transform="translate(625.9905548095702 37.4841194152832) rotate(0 0.205596923828125 9.03594970703125)"><path d="M0 0 C0.09 3.79, 0.17 7.58, 0.41 18.07 M0 0 C0.16 6.83, 0.31 13.65, 0.41 18.07" stroke="#000000" stroke-width="1" fill="none"></path></g><g transform="translate(625.9905548095702 37.4841194152832) rotate(0 0.205596923828125 9.03594970703125)"><path d="M-2.87 9.65 C-2.18 11.42, -1.49 13.19, 0.41 18.07 M-2.87 9.65 C-1.63 12.83, -0.39 16.01, 0.41 18.07" stroke="#000000" stroke-width="1" fill="none"></path></g><g transform="translate(625.9905548095702 37.4841194152832) rotate(0 0.205596923828125 9.03594970703125)"><path d="M3.31 9.51 C2.7 11.31, 2.09 13.1, 0.41 18.07 M3.31 9.51 C2.21 12.74, 1.12 15.98, 0.41 18.07" stroke="#000000" stroke-width="1" fill="none"></path></g></g><mask></mask></svg>