<svg version="1.1" xmlns="http://www.w3.org/2000/svg" viewBox="0 0 435.91119384765625 300.33403005964385" width="871.8223876953125" height="600.6680601192877">
  <!-- svg-source:excalidraw -->
  
  <defs>
    <style class="style-fonts">
      @font-face {
        font-family: "Virgil";
        src: url("https://file%2B.vscode-resource.vscode-cdn.net/Users/chenxiaochun/.vscode/extensions/pomdtr.excalidraw-editor-3.7.4/public//dist/excalidraw-assets/Virgil.woff2");
      }
      @font-face {
        font-family: "Cascadia";
        src: url("https://file%2B.vscode-resource.vscode-cdn.net/Users/chenxiaochun/.vscode/extensions/pomdtr.excalidraw-editor-3.7.4/public//dist/excalidraw-assets/Cascadia.woff2");
      }
      @font-face {
        font-family: "Assistant";
        src: url("https://file%2B.vscode-resource.vscode-cdn.net/Users/chenxiaochun/.vscode/extensions/pomdtr.excalidraw-editor-3.7.4/public//dist/excalidraw-assets/Assistant-Regular.woff2");
      }
    </style>
    
  </defs>
  <rect x="0" y="0" width="435.91119384765625" height="300.33403005964385" fill="#ffffff"></rect><g stroke-linecap="round" transform="translate(10 142.63441467285156) rotate(0 64.95281982421875 18.8623046875)"><path d="M9.43 0 C52.88 0, 96.34 0, 120.47 0 C126.76 0, 129.91 3.14, 129.91 9.43 C129.91 15.82, 129.91 22.21, 129.91 28.29 C129.91 34.58, 126.76 37.72, 120.47 37.72 C80.98 37.72, 41.48 37.72, 9.43 37.72 C3.14 37.72, 0 34.58, 0 28.29 C0 23.18, 0 18.07, 0 9.43 C0 3.14, 3.14 0, 9.43 0" stroke="none" stroke-width="0" fill="#ffec99"></path><path d="M9.43 0 C43.34 0, 77.24 0, 120.47 0 M9.43 0 C50.96 0, 92.49 0, 120.47 0 M120.47 0 C126.76 0, 129.91 3.14, 129.91 9.43 M120.47 0 C126.76 0, 129.91 3.14, 129.91 9.43 M129.91 9.43 C129.91 15.1, 129.91 20.76, 129.91 28.29 M129.91 9.43 C129.91 13.74, 129.91 18.04, 129.91 28.29 M129.91 28.29 C129.91 34.58, 126.76 37.72, 120.47 37.72 M129.91 28.29 C129.91 34.58, 126.76 37.72, 120.47 37.72 M120.47 37.72 C85.18 37.72, 49.89 37.72, 9.43 37.72 M120.47 37.72 C93.28 37.72, 66.09 37.72, 9.43 37.72 M9.43 37.72 C3.14 37.72, 0 34.58, 0 28.29 M9.43 37.72 C3.14 37.72, 0 34.58, 0 28.29 M0 28.29 C0 21.34, 0 14.39, 0 9.43 M0 28.29 C0 24.09, 0 19.88, 0 9.43 M0 9.43 C0 3.14, 3.14 0, 9.43 0 M0 9.43 C0 3.14, 3.14 0, 9.43 0" stroke="#1e1e1e" stroke-width="1" fill="none"></path></g><g transform="translate(28.07781982421875 149.49671936035156) rotate(0 46.875 12)"><text x="46.875" y="0" font-family="Cascadia, Segoe UI Emoji" font-size="20px" fill="#1e1e1e" text-anchor="middle" style="white-space: pre;" direction="ltr" dominant-baseline="text-before-edge">pendding</text></g><g stroke-linecap="round" transform="translate(152.2900390625 142.13345336914062) rotate(0 64.95281982421875 18.8623046875)"><path d="M9.43 0 C47.09 0, 84.75 0, 120.47 0 C126.76 0, 129.91 3.14, 129.91 9.43 C129.91 15.19, 129.91 20.95, 129.91 28.29 C129.91 34.58, 126.76 37.72, 120.47 37.72 C85.28 37.72, 50.09 37.72, 9.43 37.72 C3.14 37.72, 0 34.58, 0 28.29 C0 22.54, 0 16.79, 0 9.43 C0 3.14, 3.14 0, 9.43 0" stroke="none" stroke-width="0" fill="#b2f2bb"></path><path d="M9.43 0 C47.68 0, 85.92 0, 120.47 0 M9.43 0 C38.48 0, 67.52 0, 120.47 0 M120.47 0 C126.76 0, 129.91 3.14, 129.91 9.43 M120.47 0 C126.76 0, 129.91 3.14, 129.91 9.43 M129.91 9.43 C129.91 15.06, 129.91 20.68, 129.91 28.29 M129.91 9.43 C129.91 13.68, 129.91 17.93, 129.91 28.29 M129.91 28.29 C129.91 34.58, 126.76 37.72, 120.47 37.72 M129.91 28.29 C129.91 34.58, 126.76 37.72, 120.47 37.72 M120.47 37.72 C80.13 37.72, 39.79 37.72, 9.43 37.72 M120.47 37.72 C89.23 37.72, 57.99 37.72, 9.43 37.72 M9.43 37.72 C3.14 37.72, 0 34.58, 0 28.29 M9.43 37.72 C3.14 37.72, 0 34.58, 0 28.29 M0 28.29 C0 23.93, 0 19.57, 0 9.43 M0 28.29 C0 24.5, 0 20.71, 0 9.43 M0 9.43 C0 3.14, 3.14 0, 9.43 0 M0 9.43 C0 3.14, 3.14 0, 9.43 0" stroke="#1e1e1e" stroke-width="1" fill="none"></path></g><g transform="translate(158.64910888671875 148.99575805664062) rotate(0 58.59375 12)"><text x="58.59375" y="0" font-family="Cascadia, Segoe UI Emoji" font-size="20px" fill="#1e1e1e" text-anchor="middle" style="white-space: pre;" direction="ltr" dominant-baseline="text-before-edge">fullfilled</text></g><g stroke-linecap="round" transform="translate(296.00555419921875 141.24935913085938) rotate(0 64.95281982421875 18.8623046875)"><path d="M9.43 0 C43.35 0, 77.27 0, 120.47 0 C126.76 0, 129.91 3.14, 129.91 9.43 C129.91 14.38, 129.91 19.33, 129.91 28.29 C129.91 34.58, 126.76 37.72, 120.47 37.72 C90.67 37.72, 60.87 37.72, 9.43 37.72 C3.14 37.72, 0 34.58, 0 28.29 C0 23.04, 0 17.78, 0 9.43 C0 3.14, 3.14 0, 9.43 0" stroke="none" stroke-width="0" fill="#ffc9c9"></path><path d="M9.43 0 C38.48 0, 67.52 0, 120.47 0 M9.43 0 C39.97 0, 70.51 0, 120.47 0 M120.47 0 C126.76 0, 129.91 3.14, 129.91 9.43 M120.47 0 C126.76 0, 129.91 3.14, 129.91 9.43 M129.91 9.43 C129.91 13.68, 129.91 17.93, 129.91 28.29 M129.91 9.43 C129.91 14.11, 129.91 18.79, 129.91 28.29 M129.91 28.29 C129.91 34.58, 126.76 37.72, 120.47 37.72 M129.91 28.29 C129.91 34.58, 126.76 37.72, 120.47 37.72 M120.47 37.72 C89.23 37.72, 57.99 37.72, 9.43 37.72 M120.47 37.72 C81.02 37.72, 41.56 37.72, 9.43 37.72 M9.43 37.72 C3.14 37.72, 0 34.58, 0 28.29 M9.43 37.72 C3.14 37.72, 0 34.58, 0 28.29 M0 28.29 C0 24.5, 0 20.71, 0 9.43 M0 28.29 C0 22.77, 0 17.25, 0 9.43 M0 9.43 C0 3.14, 3.14 0, 9.43 0 M0 9.43 C0 3.14, 3.14 0, 9.43 0" stroke="#1e1e1e" stroke-width="1" fill="none"></path></g><g transform="translate(314.0833740234375 148.11166381835938) rotate(0 46.875 12)"><text x="46.875" y="0" font-family="Cascadia, Segoe UI Emoji" font-size="20px" fill="#1e1e1e" text-anchor="middle" style="white-space: pre;" direction="ltr" dominant-baseline="text-before-edge">rejected</text></g><g stroke-linecap="round" transform="translate(151.81219482421875 10) rotate(0 64.95281982421875 29)"><path d="M14.5 0 C51.18 0, 87.86 0, 115.41 0 M14.5 0 C38.59 0, 62.68 0, 115.41 0 M115.41 0 C125.07 0, 129.91 4.83, 129.91 14.5 M115.41 0 C125.07 0, 129.91 4.83, 129.91 14.5 M129.91 14.5 C129.91 23.39, 129.91 32.29, 129.91 43.5 M129.91 14.5 C129.91 23.75, 129.91 33, 129.91 43.5 M129.91 43.5 C129.91 53.17, 125.07 58, 115.41 58 M129.91 43.5 C129.91 53.17, 125.07 58, 115.41 58 M115.41 58 C83.88 58, 52.35 58, 14.5 58 M115.41 58 C78.02 58, 40.63 58, 14.5 58 M14.5 58 C4.83 58, 0 53.17, 0 43.5 M14.5 58 C4.83 58, 0 53.17, 0 43.5 M0 43.5 C0 34.2, 0 24.9, 0 14.5 M0 43.5 C0 32.06, 0 20.62, 0 14.5 M0 14.5 C0 4.83, 4.83 0, 14.5 0 M0 14.5 C0 4.83, 4.83 0, 14.5 0" stroke="#1e1e1e" stroke-width="1" fill="none"></path></g><g transform="translate(175.7493896484375 15) rotate(0 41.015625 24)"><text x="41.015625" y="0" font-family="Cascadia, Segoe UI Emoji" font-size="20px" fill="#1e1e1e" text-anchor="middle" style="white-space: pre;" direction="ltr" dominant-baseline="text-before-edge">Promise</text><text x="41.015625" y="24" font-family="Cascadia, Segoe UI Emoji" font-size="20px" fill="#1e1e1e" text-anchor="middle" style="white-space: pre;" direction="ltr" dominant-baseline="text-before-edge">三种状态</text></g><g stroke-linecap="round"><g transform="translate(208.01763916015625 78.45147705078125) rotate(0 -62.34015456179077 29.28711700439453)"><path d="M0 0 C-20.78 9.76, -103.9 48.81, -124.68 58.57 M0 0 C-20.78 9.76, -103.9 48.81, -124.68 58.57" stroke="#1e1e1e" stroke-width="1" fill="none"></path></g><g transform="translate(208.01763916015625 78.45147705078125) rotate(0 -62.34015456179077 29.28711700439453)"><path d="M-103.53 37.3 C-108.45 42.25, -113.36 47.19, -124.68 58.57 M-103.53 37.3 C-109.94 43.75, -116.35 50.2, -124.68 58.57" stroke="#1e1e1e" stroke-width="1" fill="none"></path></g><g transform="translate(208.01763916015625 78.45147705078125) rotate(0 -62.34015456179077 29.28711700439453)"><path d="M-94.8 55.87 C-101.75 56.5, -108.69 57.13, -124.68 58.57 M-94.8 55.87 C-103.86 56.69, -112.91 57.51, -124.68 58.57" stroke="#1e1e1e" stroke-width="1" fill="none"></path></g></g><mask></mask><g stroke-linecap="round"><g transform="translate(218.014404296875 79.30433654785156) rotate(0 0.281585693359375 26.585289001464844)"><path d="M0 0 C0.09 8.86, 0.47 44.31, 0.56 53.17 M0 0 C0.09 8.86, 0.47 44.31, 0.56 53.17" stroke="#1e1e1e" stroke-width="1" fill="none"></path></g><g transform="translate(218.014404296875 79.30433654785156) rotate(0 0.281585693359375 26.585289001464844)"><path d="M-8.79 28.28 C-6.35 34.78, -3.91 41.28, 0.56 53.17 M-8.79 28.28 C-6.5 34.38, -4.21 40.47, 0.56 53.17" stroke="#1e1e1e" stroke-width="1" fill="none"></path></g><g transform="translate(218.014404296875 79.30433654785156) rotate(0 0.281585693359375 26.585289001464844)"><path d="M9.39 28.09 C7.09 34.64, 4.78 41.19, 0.56 53.17 M9.39 28.09 C7.23 34.23, 5.07 40.37, 0.56 53.17" stroke="#1e1e1e" stroke-width="1" fill="none"></path></g></g><mask></mask><g stroke-linecap="round"><g transform="translate(230.7454833984375 78.60772705078125) rotate(0 61.09667697593477 26.595375061035156)"><path d="M0 0 C20.37 8.87, 101.83 44.33, 122.19 53.19 M0 0 C20.37 8.87, 101.83 44.33, 122.19 53.19" stroke="#1e1e1e" stroke-width="1" fill="none"></path></g><g transform="translate(230.7454833984375 78.60772705078125) rotate(0 61.09667697593477 26.595375061035156)"><path d="M92.25 51.35 C102.32 51.97, 112.39 52.59, 122.19 53.19 M92.25 51.35 C102.49 51.98, 112.73 52.61, 122.19 53.19" stroke="#1e1e1e" stroke-width="1" fill="none"></path></g><g transform="translate(230.7454833984375 78.60772705078125) rotate(0 61.09667697593477 26.595375061035156)"><path d="M100.44 32.53 C107.76 39.48, 115.07 46.43, 122.19 53.19 M100.44 32.53 C107.88 39.6, 115.32 46.66, 122.19 53.19" stroke="#1e1e1e" stroke-width="1" fill="none"></path></g></g><mask></mask><g stroke-linecap="round"><g transform="translate(93.36904907226562 192.41259002685547) rotate(0 58.5009765625 31.106796264648438)"><path d="M0 0 C13.7 10.75, 62.69 64.88, 82.19 64.5 C101.69 64.12, 111.2 8.85, 117 -2.29" stroke="#1e1e1e" stroke-width="1.5" fill="none" stroke-dasharray="8 9"></path></g><g transform="translate(93.36904907226562 192.41259002685547) rotate(0 58.5009765625 31.106796264648438)"><path d="M117.86 27.7 C117.55 16.98, 117.25 6.25, 117 -2.29" stroke="#1e1e1e" stroke-width="1.5" fill="none"></path></g><g transform="translate(93.36904907226562 192.41259002685547) rotate(0 58.5009765625 31.106796264648438)"><path d="M98.38 21.24 C105.04 12.82, 111.7 4.41, 117 -2.29" stroke="#1e1e1e" stroke-width="1.5" fill="none"></path></g></g><mask></mask><g stroke-linecap="round"><g transform="translate(66.12289428710938 193.1502134095266) rotate(0 143.70767211914062 46.05678505478181)"><path d="M0 0 C18.7 16.2, 64.31 98.02, 112.21 97.18 C160.11 96.33, 258.21 11.98, 287.42 -5.06" stroke="#1e1e1e" stroke-width="1.5" fill="none" stroke-dasharray="8 9"></path></g><g transform="translate(66.12289428710938 193.1502134095266) rotate(0 143.70767211914062 46.05678505478181)"><path d="M270.31 19.58 C275.33 12.35, 280.35 5.12, 287.42 -5.06" stroke="#1e1e1e" stroke-width="1.5" fill="none"></path></g><g transform="translate(66.12289428710938 193.1502134095266) rotate(0 143.70767211914062 46.05678505478181)"><path d="M258.47 2.82 C266.97 0.51, 275.46 -1.81, 287.42 -5.06" stroke="#1e1e1e" stroke-width="1.5" fill="none"></path></g></g><mask></mask></svg>